<?xml version="1.0" encoding="utf-8"?>
<!-- Generator: Adobe Illustrator 16.0.0, SVG Export Plug-In . SVG Version: 6.00 Build 0)  -->
<!DOCTYPE svg PUBLIC "-//W3C//DTD SVG 1.1//EN" "http://www.w3.org/Graphics/SVG/1.1/DTD/svg11.dtd">
<svg version="1.1" id="Layer_1" xmlns="http://www.w3.org/2000/svg" xmlns:xlink="http://www.w3.org/1999/xlink" x="0px" y="0px"
	 width="595.275px" height="841.89px" viewBox="0 0 595.275 841.89" enable-background="new 0 0 595.275 841.89"
	 xml:space="preserve">
<g>
	<path fill-rule="evenodd" clip-rule="evenodd" fill="#8B2AFA" d="M182.116,449.053c0.637-2.048,2.377-4.607,3.283-6.862
		c1.046-2.603,1.751-4.937,2.713-7.88c2.832-8.667,5.752-28.336,4.517-37.399c-0.159-1.165-0.491-8.309-1.544-9.049
		c-0.269-0.189-7.819-2.164-8.503-2.213l0.039,16.984c-5.755,3.81-11.396,7.721-17.134,11.696l-34.488,23.479
		c-2.851,1.98-5.728,4.015-8.577,5.838c-4.511,2.887-5.711,2.108-5.619,9.187l56.147,0.007L173,436.571
		c-9.544,3.18-3.873,6.63-25.014,5.177c0.562-0.861,24.616-17.437,28.165-19.984c0.991-0.711,3.354-2.479,4.2-2.792
		c2.161,1.175,1.678,2.118,1.657,6.402C181.99,429.044,181.66,448.19,182.116,449.053z"/>
	<path fill-rule="evenodd" clip-rule="evenodd" fill="#8B2AFA" d="M107.805,445.97c0.059-0.839,0.141-2.278,0.342-3.068
		c0.375-1.475,4.098-3.424,6.248-4.924c3.047-2.128,5.765-4.095,8.897-6.104c6.005-3.856,11.542-8.145,17.649-12.069
		c5.98-3.843,11.753-8.277,17.649-12.068c3.006-1.932,6-4.068,8.924-6.085c3.562-2.457,6.438-2.893,5.602-9.059l-55.985-0.394
		l-0.383,17.631c4.263-1.642,7.751-6.724,10.279-7.768c1.875-0.773,14.375,0.177,16.733,0.759l-17.585,12.518
		c-3.135,2.124-15.457,11.048-18.754,11.812l0-41.5c-3.168,0.69-6.365,2.202-8.282,2.648c0,18.482-1.37,28.181,3.655,45.778
		C103.206,435.515,106.376,444.774,107.805,445.97z"/>
	<path fill-rule="evenodd" clip-rule="evenodd" fill="#8B2AFA" d="M259.502,418.017h-5.59v-18.538c11.83,0,11.77-0.388,11.77,12.358
		C265.682,415.817,263.505,418.017,259.502,418.017L259.502,418.017z M241.554,391.241v60.025c0,0.679,0.205,0.883,0.883,0.883
		h10.593c0.678,0,0.883-0.204,0.883-0.883v-24.127c3.905,0,8.523-0.587,10.553,2.394c2.653,3.896,0.222,15.312,1.794,20.861
		c0.25,0.88,0.396,0.88,0.599,1.755h12.358c-1.233-5.29-1.177-1.049-1.177-8.532c0-6.802,1.547-19.269-7.944-21.48
		c1.209-1.051,7.65-2.919,7.65-11.181c0-5.834,0.736-10.099-1.994-14.483c-3.608-5.795-12.426-6.113-19.485-6.113h-13.83
		C241.758,390.358,241.554,390.563,241.554,391.241z"/>
	<path fill-rule="evenodd" clip-rule="evenodd" fill="#FA0043" d="M328.944,391.241v60.025c0,0.679,0.204,0.883,0.882,0.883h10.593
		c0.679,0,0.883-0.204,0.883-0.883v-25.599h13.535v26.481h12.358v-61.791h-12.358v26.482h-13.535v-25.599
		c0-0.678-0.204-0.883-0.883-0.883h-10.593C329.148,390.358,328.944,390.563,328.944,391.241z"/>
	<path fill-rule="evenodd" clip-rule="evenodd" fill="#8B2AFA" d="M296.872,437.731v-32.956c0-5.999,4.047-5.885,7.356-5.885
		c3.255,0,5.002,2.272,5.002,5.591v33.544c0,1.807-0.556,3.448-1.542,4.343C305.441,444.408,296.872,445.563,296.872,437.731
		L296.872,437.731z M284.808,403.599v35.016c0,9.335,8.41,14.123,17.36,14.123c13.729,0,19.42-5.351,19.42-17.949v-27.364
		c0-12.216-6.418-17.655-18.537-17.655c-7.124,0-13.034,2.01-16.359,7.475C285.836,398.65,284.808,401.493,284.808,403.599z"/>
	<path fill-rule="evenodd" clip-rule="evenodd" fill="#FA0043" d="M462.825,452.148c13.333,0,12.132,0.899,12.074-2.638
		l-0.023-14.44c-0.012-1.894-0.069-1.841,0.766-3.061c0.717-1.047,2.317-3.73,3.072-4.283l2.746,6.081
		c1.989,3.948,7.665,16.313,9.023,18.341h12.064c-0.123-1.48-3.193-6.975-4.021-8.631l-12.456-25.501
		c0-0.402,1.577-2.773,1.932-3.364c0.778-1.294,1.342-2.242,2.13-3.461l4.232-6.949c1.4-2.325,2.763-4.381,4.159-6.728
		c0.775-1.303,3.933-6.052,4.024-7.157h-11.77c-3.771,5.631-10.644,17.874-14.802,24.921c-0.211,0.356-0.222,0.414-0.439,0.738
		l-0.648,0.823l0.011-23.844c0.058-3.537,1.259-2.638-12.074-2.638V452.148z"/>
	<path fill-rule="evenodd" clip-rule="evenodd" fill="#FA0043" d="M393.089,402.127l3.015,15.228
		c0.978,4.812,1.745,10.248,2.87,15.079h-11.476L393.089,402.127L393.089,402.127z M372.786,452.148
		c11.996,0,10.915,0.873,11.506-2.322c0.201-1.086,0.393-1.993,0.598-3.229c0.348-2.098,0.623-5.63,1.726-5.63h14.124
		c0,1.775,1.133,6.285,1.508,8.791c0.5,3.339-0.611,2.39,12.616,2.39c0-2.683-8.232-42.19-9.146-46.76l-2.354-11.77
		c-0.211-1.079-0.258-3.261-1.447-3.261h-16.184c-1.229,0-1.704,4.842-2.133,6.988l-7.797,38.987
		C375.271,438.991,372.786,450.414,372.786,452.148z"/>
	<path fill-rule="evenodd" clip-rule="evenodd" fill="#FA0043" d="M419.276,409.189v24.128c0,9.478,1.35,14.676,9.326,18.039
		c5.669,2.39,17.07,1.77,21.782-2.232c6.297-5.348,5.084-11.685,5.084-20.221h-11.476c0,6.383,1.464,14.713-5.002,14.713
		c-3.599,0-7.356-0.098-7.356-5.591v-33.544c0-5.494,3.758-5.591,7.356-5.591c6.102,0,5.002,7.303,5.002,12.358h11.476
		c0-6.684,0.8-13.595-5.291-17.954c-7.887-5.644-26.875-5.566-30.142,7.237C419.429,402.913,419.276,406.316,419.276,409.189z"/>
	<path fill-rule="evenodd" clip-rule="evenodd" fill="#8B2AFA" d="M201.242,391.241v60.025c0,0.679,0.205,0.883,0.883,0.883h31.484
		c0.678,0,0.883-0.204,0.883-0.883v-7.355c0-0.678-0.205-0.883-0.883-0.883h-20.008v-17.654h16.478v-8.239
		c0-0.678-0.205-0.883-0.882-0.883h-15.595v-16.772h20.008c0.678,0,0.883-0.205,0.883-0.882v-7.356c0-0.678-0.205-0.883-0.883-0.883
		h-31.484C201.447,390.358,201.242,390.563,201.242,391.241z"/>
	<path fill-rule="evenodd" clip-rule="evenodd" fill="#FA0043" d="M117.383,383.192l18.96-0.104l0.055,2.643
		c3.646,0,16.17,0.472,18.813-0.165v-2.574c2.744-0.003,15.903,0.287,17.381-0.285c-1.632-0.161-2.364-0.628-3.547-1.346
		l-21.996-12.152c-1.754-1.099-1.967-0.349-5.146,1.238L117.383,383.192z"/>
	<path fill-rule="evenodd" clip-rule="evenodd" fill="#FA0043" d="M118.56,461.534c0.932,0.88,26.144,13.283,26.969,13.691
		c1.751,0.867,4.174-0.929,6.632-2.423l18.193-10.055c1.133-0.565,1.204-0.466,1.464-1.171c-3.068-0.006-14.506,0.382-16.607-0.175
		l0.13-3.207h-18.952l0,3.368L118.56,461.534z"/>
	<path fill-rule="evenodd" clip-rule="evenodd" d="M524.027,373.586c0,4.129-3.229,7.356-6.474,7.356
		c-3.512,0-6.379-1.081-7.624-4.44c-1.164-3.141-0.189-6.011,1.806-7.853c1.916-1.77,4.828-2.592,7.771-1.431
		c1.38,0.545,2.228,1.219,3.021,2.276C523.266,370.479,524.027,371.927,524.027,373.586L524.027,373.586z M516.377,381.825
		c11.594,0,10.67-15.889,0.883-15.889h-1.472c-3.828,0-7.504,4.238-7.272,8.183C508.748,378.093,511.993,381.825,516.377,381.825z"
		/>
	<path fill-rule="evenodd" clip-rule="evenodd" d="M517.849,372.998h-3.531v-2.648c3.296,0,4.708-0.483,4.708,1.471
		C519.025,372.509,518.537,372.998,517.849,372.998L517.849,372.998z M512.847,369.761c0,8.32-0.743,8.778,1.471,8.827v-4.119
		c4.453,0,2.865,1.171,4.975,3.558c0.714,0.808,0.264,0.562,1.793,0.562c-0.169-2.036-2.235-2.87-2.648-4.414
		c3.246-0.756,2.685-5.296-1.177-5.296C514.22,368.878,512.847,368.453,512.847,369.761z"/>
</g>
</svg>
