<svg width="30" height="31" viewBox="0 0 30 31" fill="none" xmlns="http://www.w3.org/2000/svg">
<path d="M25.9091 0.871094H4.09091C1.83156 0.871094 0 2.70266 0 4.962V26.7802C0 29.0395 1.83156 30.8711 4.09091 30.8711H25.9091C28.1684 30.8711 30 29.0395 30 26.7802V4.962C30 2.70266 28.1684 0.871094 25.9091 0.871094Z" fill="#0077B5"/>
<path d="M10.8068 9.05291C10.8068 9.5586 10.6568 10.0529 10.3759 10.4734C10.0949 10.8939 9.69558 11.2216 9.22839 11.4151C8.76119 11.6086 8.2471 11.6593 7.75112 11.5606C7.25515 11.4619 6.79957 11.2184 6.44199 10.8609C6.08441 10.5033 5.8409 10.0477 5.74225 9.55172C5.64359 9.05575 5.69422 8.54166 5.88774 8.07446C6.08126 7.60726 6.40898 7.20794 6.82944 6.927C7.24991 6.64605 7.74424 6.49609 8.24993 6.49609C8.92805 6.49609 9.57838 6.76547 10.0579 7.24497C10.5374 7.72446 10.8068 8.3748 10.8068 9.05291Z" fill="white"/>
<path d="M10.2272 13.3138V24.6098C10.2277 24.6931 10.2117 24.7757 10.1801 24.8529C10.1485 24.93 10.102 25.0001 10.0432 25.0592C9.98446 25.1183 9.91459 25.1651 9.83764 25.1971C9.76069 25.2291 9.67818 25.2456 9.59485 25.2456H6.89996C6.81663 25.2458 6.73407 25.2296 6.65704 25.1978C6.58001 25.166 6.51002 25.1193 6.45109 25.0604C6.39217 25.0015 6.34547 24.9315 6.31368 24.8544C6.28189 24.7774 6.26565 24.6948 6.26587 24.6115V13.3138C6.26587 13.1456 6.33268 12.9843 6.45159 12.8654C6.57051 12.7465 6.73179 12.6797 6.89996 12.6797H9.59485C9.76273 12.6801 9.92357 12.7471 10.0421 12.866C10.1607 12.9849 10.2272 13.1459 10.2272 13.3138Z" fill="white"/>
<path d="M24.3137 19.1945V24.6626C24.3139 24.7393 24.299 24.8152 24.2698 24.886C24.2405 24.9568 24.1976 25.0212 24.1434 25.0754C24.0893 25.1295 24.0249 25.1725 23.9541 25.2017C23.8832 25.2309 23.8073 25.2458 23.7307 25.2456H20.833C20.7564 25.2458 20.6805 25.2309 20.6096 25.2017C20.5388 25.1725 20.4745 25.1295 20.4203 25.0754C20.3661 25.0212 20.3232 24.9568 20.2939 24.886C20.2647 24.8152 20.2498 24.7393 20.25 24.6626V19.3632C20.25 18.5723 20.4819 15.8996 18.1824 15.8996C16.4012 15.8996 16.0381 17.7286 15.9665 18.5501V24.6626C15.9665 24.8158 15.9063 24.9628 15.7988 25.0719C15.6913 25.181 15.5452 25.2434 15.3921 25.2456H12.5932C12.5167 25.2456 12.441 25.2305 12.3704 25.2012C12.2998 25.1719 12.2356 25.1289 12.1816 25.0747C12.1276 25.0206 12.0848 24.9563 12.0557 24.8856C12.0266 24.8149 12.0117 24.7391 12.012 24.6626V13.2643C12.0117 13.1879 12.0266 13.1121 12.0557 13.0414C12.0848 12.9707 12.1276 12.9064 12.1816 12.8522C12.2356 12.7981 12.2998 12.7551 12.3704 12.7258C12.441 12.6965 12.5167 12.6814 12.5932 12.6814H15.3921C15.5467 12.6814 15.695 12.7428 15.8043 12.8521C15.9136 12.9615 15.975 13.1097 15.975 13.2643V14.2496C16.6364 13.2575 17.6165 12.4922 19.708 12.4922C24.3409 12.4922 24.3137 16.8183 24.3137 19.1945Z" fill="white"/>
</svg>
