<svg width="48" height="48" viewBox="0 0 48 48" fill="none" xmlns="http://www.w3.org/2000/svg">
<path d="M13.3341 14.6191C13.0803 14.7393 12.9097 14.9859 12.8866 15.266C12.8639 15.5461 12.9921 15.8172 13.2232 15.977C13.4543 16.1369 13.7535 16.1614 14.0073 16.0411C14.98 15.5781 16.0201 15.2725 17.0886 15.135C17.3672 15.0997 17.6059 14.9179 17.7146 14.6587C17.823 14.3998 17.7852 14.1025 17.6149 13.8786C17.445 13.655 17.1685 13.5391 16.8895 13.5747C15.6568 13.7335 14.457 14.0859 13.3341 14.6191Z" fill="#6A49F2"/>
<path d="M7.5289 40.9615C7.61422 40.9619 7.69883 40.9486 7.77983 40.9223C7.97747 40.8557 8.14091 40.7135 8.23343 40.5267C8.32631 40.3395 8.34107 40.1234 8.27447 39.9258C8.00483 39.119 7.86983 38.2734 7.87487 37.4227V35.4171C7.87487 34.9829 7.52278 34.6309 7.08862 34.6309C6.65409 34.6309 6.30201 34.9829 6.30201 35.4171V37.4699C6.30093 38.4746 6.46329 39.4733 6.78333 40.4259C6.89097 40.7459 7.19122 40.9615 7.5289 40.9615Z" fill="#6A49F2"/>
<path d="M10.3733 18.822C10.7823 18.3335 11.2359 17.8838 11.7284 17.4795C11.9458 17.3013 12.0513 17.0205 12.0052 16.7433C11.9595 16.4658 11.769 16.2343 11.5059 16.1353C11.2427 16.0363 10.9468 16.0856 10.7297 16.2638C8.99736 17.702 7.69415 19.5892 6.96262 21.7186C6.52377 22.9851 6.30057 24.316 6.30201 25.6563V32.2703C6.30201 32.7045 6.65409 33.0566 7.08862 33.0566C7.52278 33.0566 7.87487 32.7045 7.87487 32.2703V25.6563C7.87739 23.155 8.76192 20.735 10.3733 18.822Z" fill="#6A49F2"/>
<path d="M29.7681 25.0121C29.8066 25.0121 29.8452 25.0092 29.883 25.0034C30.3128 24.9404 30.6102 24.5412 30.5475 24.1113C29.7944 18.7203 25.6072 14.4542 20.2309 13.6006C19.953 13.561 19.6747 13.6726 19.5011 13.8937C19.3276 14.1147 19.2851 14.4114 19.3899 14.672C19.4943 14.933 19.7301 15.1181 20.0084 15.1577C24.696 15.9104 28.3421 19.6365 28.9919 24.3396C29.0485 24.7252 29.3786 25.011 29.7681 25.0121Z" fill="#6A49F2"/>
<path d="M24.3817 25.4762C24.2705 22.2988 21.6716 19.7752 18.492 19.7579C18.1515 19.7561 17.8112 19.7863 17.4761 19.8482C16.1012 20.0884 14.8574 20.8105 13.9671 21.8852C13.1657 22.8237 12.6927 23.998 12.6189 25.23C12.5995 25.3711 12.5912 25.5136 12.5937 25.6562V29.3603C12.5937 30.8316 12.5937 32.6108 12.6016 34.4878C12.5955 37.2772 13.8451 39.921 16.0037 41.6872L16.8508 42.3806C22.4236 46.9516 22.4344 46.9602 22.4992 47.002C22.6267 47.0873 22.7772 47.133 22.9309 47.133C23.2711 47.1373 23.5753 46.922 23.6851 46.5998C23.7945 46.2776 23.6844 45.9216 23.4122 45.7175C23.2621 45.6005 20.6319 43.444 17.848 41.1609L16.998 40.4704C15.1933 38.989 14.1547 36.7717 14.1716 34.4367C14.1666 32.6068 14.1666 30.8302 14.1666 29.3603V25.6562C14.1644 25.5684 14.1694 25.4805 14.1817 25.3934C14.2292 24.4743 14.5777 23.5963 15.1735 22.8942C15.8294 22.1019 16.7471 21.5705 17.7608 21.3952C18.0021 21.3505 18.2469 21.3289 18.492 21.3307C20.8292 21.3423 22.7379 23.2021 22.8096 25.5381C22.8078 25.5777 22.8103 25.6173 22.8175 25.6562V29.667C22.8171 31.2964 23.2473 32.897 24.0642 34.3071C24.1981 34.5631 24.4616 34.7251 24.7503 34.729C25.0391 34.7326 25.3069 34.5782 25.4477 34.3258C25.5884 34.0735 25.5794 33.7642 25.4246 33.5205C24.7395 32.3325 24.3824 30.9836 24.3903 29.6119V25.6562C24.3911 25.5961 24.3882 25.536 24.3817 25.4762Z" fill="#6A49F2"/>
<path d="M24.6883 44.6474C25.0623 44.7737 25.472 44.6034 25.6463 44.2488C25.8201 43.8946 25.7046 43.4662 25.3759 43.2473C25.305 43.1926 25.1271 43.0468 24.8589 42.829L24.1544 42.2587C24.1321 42.2357 24.1083 42.2141 24.0835 42.1936C23.1161 41.4073 21.7092 40.2596 20.1515 38.9874C18.3558 37.5171 17.3161 35.3175 17.3201 32.9969V31.9565C17.3125 30.389 17.3125 28.9681 17.3125 27.8672V25.6571C17.3107 25.3435 17.4342 25.0426 17.6559 24.8212C17.8594 24.6174 18.1301 24.4947 18.4174 24.4759C18.7255 24.4633 19.025 24.5793 19.2446 24.796C19.5161 25.0527 19.6702 25.4094 19.6716 25.7831V27.0334C19.6716 28.0155 19.6716 29.4454 19.6637 31.1072V31.1983C19.6752 33.9635 20.914 36.5807 23.0456 38.3426C23.3696 38.6115 23.6864 38.8732 23.9798 39.1108C24.3171 39.3844 24.8128 39.3326 25.0864 38.9953C25.36 38.6576 25.3082 38.1622 24.9709 37.8886C24.6822 37.6528 24.37 37.3972 24.0482 37.1312C22.2762 35.667 21.2459 33.4923 21.2351 31.1936V31.1033C21.243 29.4516 21.243 28.0173 21.243 27.0334V25.7831C21.2409 24.9771 20.9086 24.2074 20.3236 23.6533C19.789 23.1382 19.0646 22.8674 18.323 22.906C17.6513 22.9481 17.0184 23.2336 16.5425 23.7091C16.0251 24.225 15.736 24.9267 15.7393 25.6571V27.8672C15.7393 28.9681 15.7393 30.3937 15.7472 31.9565V32.9947C15.7432 35.7873 16.9957 38.434 19.1582 40.2017C20.6775 41.4458 22.0552 42.5694 23.0204 43.3535C23.0434 43.3773 23.0679 43.3996 23.0935 43.4205L23.8657 44.0497C24.5389 44.597 24.5389 44.597 24.6883 44.6474Z" fill="#6A49F2"/>
<path d="M7.39601 5.06774C7.51985 5.06738 7.6419 5.03786 7.75206 4.98134C12.5246 2.55239 17.9902 1.84858 23.2222 2.98908C23.6466 3.08268 24.0664 2.81411 24.1596 2.39003C24.2532 1.96558 23.9847 1.54582 23.5606 1.45258C17.9726 0.234322 12.1351 0.986371 7.03817 3.58056C6.7138 3.74581 6.54532 4.11157 6.63064 4.4651C6.7156 4.81898 7.03205 5.0681 7.39601 5.06774Z" fill="#6A49F2"/>
<path d="M26.1366 3.82642C27.1222 4.18175 28.082 4.60583 29.0087 5.09472C29.2571 5.22612 29.5566 5.21532 29.7949 5.06592C30.0329 4.91651 30.1733 4.65155 30.1628 4.37075C30.1524 4.08994 29.9933 3.83578 29.7449 3.70438C28.7531 3.18093 27.726 2.72733 26.6712 2.3468C26.2629 2.1992 25.8118 2.41088 25.6642 2.81913C25.5166 3.22773 25.7279 3.67846 26.1366 3.82642Z" fill="#6A49F2"/>
<path d="M3.44751 12.0437C3.66243 12.0433 3.86799 11.9555 4.01631 11.8C9.06646 6.50107 16.6089 4.38749 23.6772 6.29011C23.9516 6.37435 24.25 6.30307 24.4559 6.10327C24.6622 5.90383 24.7432 5.6079 24.6676 5.33106C24.592 5.05422 24.3713 4.84073 24.0923 4.77377C16.4671 2.71635 8.32737 4.9959 2.87906 10.7138C2.66126 10.9414 2.60042 11.2769 2.72426 11.5663C2.8481 11.8558 3.13286 12.0437 3.44751 12.0437Z" fill="#6A49F2"/>
<path d="M27.1574 5.84178C27.1041 5.82414 27.0494 5.81226 26.9936 5.80578C26.9467 5.79174 26.8989 5.78238 26.8506 5.77734H26.8441C26.8067 5.78202 26.7696 5.78958 26.7333 5.80038C26.6173 5.7993 26.505 5.84214 26.4186 5.91991C26.3758 5.94187 26.3347 5.96851 26.2969 5.99839C26.2527 6.04591 26.2145 6.09883 26.1835 6.15571C26.1619 6.18235 26.1418 6.21043 26.1238 6.23995V6.24607C26.1087 6.29503 26.0979 6.34507 26.0914 6.39547C26.0755 6.44695 26.0651 6.49951 26.0601 6.55279V6.55855C26.0644 6.59203 26.0712 6.62515 26.0806 6.65755C26.0853 6.7238 26.0986 6.78932 26.1198 6.85268C26.1418 6.89804 26.1681 6.94124 26.1987 6.98156C26.2224 7.02512 26.2501 7.06652 26.2818 7.10504C26.3293 7.14968 26.3823 7.18784 26.4391 7.21916C26.4654 7.24076 26.4931 7.26056 26.5227 7.27784C29.5903 8.6365 32.2745 10.7328 34.3358 13.3799C34.6058 13.7115 35.0911 13.7669 35.4288 13.5041C35.7661 13.2417 35.832 12.7575 35.5768 12.4144C33.3563 9.56459 30.4654 7.30844 27.162 5.84682L27.1574 5.84178Z" fill="#6A49F2"/>
<path d="M8.5768 11.9808C10.0946 10.8663 11.7913 10.0181 13.5935 9.47197C13.8653 9.39277 14.0734 9.17316 14.1385 8.89776C14.2033 8.622 14.1151 8.33291 13.9074 8.14031C13.7 7.94807 13.4048 7.88183 13.1348 7.96751C11.1627 8.56512 9.30653 9.49357 7.64547 10.7129C7.29555 10.9703 7.22031 11.4624 7.47735 11.8124C7.73439 12.1626 8.22652 12.2379 8.5768 11.9808Z" fill="#6A49F2"/>
<path d="M1.42632 20.9232C1.83925 21.0574 2.28313 20.8314 2.41706 20.4184C3.17775 18.0662 4.4536 15.913 6.15138 14.1158C6.34651 13.9117 6.41707 13.6183 6.33607 13.3476C6.25542 13.0772 6.03582 12.8706 5.76078 12.8065C5.48537 12.7428 5.19737 12.831 5.00549 13.0383C3.14895 15.0043 1.75429 17.3595 0.922317 19.9324C0.788035 20.345 1.01376 20.7885 1.42632 20.9232Z" fill="#6A49F2"/>
<path d="M36.0684 24.4757C36.0976 24.4757 36.1264 24.4742 36.1552 24.471C36.5857 24.4235 36.8971 24.0368 36.851 23.6059C35.8308 14.2415 27.9121 7.15407 18.4923 7.17387C17.8068 7.17495 17.1221 7.21347 16.4406 7.28871C16.1594 7.31715 15.915 7.49427 15.8001 7.7524C15.6857 8.01088 15.7184 8.31112 15.8865 8.53829C16.0543 8.76581 16.3311 8.88569 16.6119 8.85221C17.2366 8.78309 17.864 8.74781 18.4923 8.74709C27.109 8.72801 34.353 15.2099 35.2875 23.7758C35.3318 24.174 35.6681 24.4753 36.0684 24.4757Z" fill="#6A49F2"/>
<path d="M32.9852 25.1926H33.0536C33.2616 25.175 33.4539 25.0753 33.5882 24.9158C33.7224 24.7559 33.788 24.5497 33.77 24.3416C33.4805 21.0087 32.1229 17.8583 29.8992 15.3591C29.6083 15.0401 29.1151 15.0153 28.7936 15.3029C28.4721 15.591 28.4426 16.0842 28.7274 16.4082C30.7243 18.6528 31.9433 21.4824 32.2025 24.4755C32.2385 24.8809 32.578 25.1923 32.9852 25.1926Z" fill="#6A49F2"/>
<path d="M5.96537 19.98C8.23987 14.9302 13.3278 11.7438 18.864 11.9022C19.2953 11.9069 19.6527 11.5685 19.6715 11.1372C19.683 10.703 19.3403 10.342 18.9064 10.3304C12.7389 10.1551 7.07058 13.7037 4.53399 19.328C3.7337 21.0694 3.27181 22.9472 3.17281 24.8613C3.16417 25.1216 3.15625 25.3891 3.15625 25.6573C3.15625 27.4166 3.15625 28.3587 3.16561 28.4577C3.19081 28.8728 3.53641 29.1954 3.95222 29.1914H3.99074C4.42131 29.1688 4.75467 28.8048 4.73919 28.3735C4.72911 28.1661 4.72911 25.7869 4.72911 25.6573C4.72911 25.4063 4.73703 25.1554 4.74423 24.9297C4.83387 23.2175 5.2486 21.5377 5.96537 19.98Z" fill="#6A49F2"/>
<path d="M22.2295 12.3861C23.7285 12.7853 25.1459 13.4442 26.4174 14.3326C26.7742 14.581 27.2645 14.4932 27.5129 14.1368C27.7613 13.78 27.6738 13.2897 27.3171 13.0413C25.8911 12.0463 24.302 11.3093 22.6212 10.8636L22.331 10.7927C21.9141 10.6991 21.4987 10.9551 21.3954 11.3698C21.292 11.7842 21.5383 12.2054 21.9505 12.3184L22.2295 12.3861Z" fill="#6A49F2"/>
<path d="M26.0421 29.3181C26.1007 29.7487 26.4971 30.05 26.9277 29.9913C27.3579 29.9327 27.6592 29.5363 27.6009 29.1057C27.5566 28.7839 27.5354 28.4595 27.5361 28.1344V25.8696C27.6185 22.5086 25.8279 19.3798 22.8881 17.7483C19.9486 16.1171 16.3464 16.2525 13.5377 18.1004C12.3806 18.856 11.4118 19.8666 10.7062 21.0549C10.0784 22.1051 9.67662 23.2747 9.52685 24.4894C9.47393 24.8764 9.44765 25.2666 9.44801 25.6572V35.9753C9.44297 38.7636 10.6918 41.4064 12.8493 43.1729L14.4287 44.4714C15.9763 45.743 17.4243 46.9335 18.518 47.8231C18.8546 48.0978 19.3503 48.0474 19.6246 47.7108C19.8993 47.3742 19.8489 46.8788 19.5123 46.6041C18.4236 45.7156 16.9768 44.5262 15.4313 43.2561L13.8512 41.9579C12.0483 40.4801 11.0083 38.2675 11.0209 35.9361V25.6572C11.0205 25.3347 11.0421 25.0125 11.0853 24.6931C11.2088 23.6916 11.5404 22.7272 12.0591 21.8617C13.5589 19.3377 16.3921 17.9193 19.3118 18.2307C23.1563 18.7005 26.0266 21.9967 25.9632 25.8696V28.1737C25.9636 28.5567 25.9899 28.939 26.0421 29.3181Z" fill="#6A49F2"/>
<path d="M37.7595 27.5371C32.1153 27.5461 27.5461 32.1275 27.5523 37.7717C27.5584 43.4162 32.1373 47.9875 37.7818 47.9846C43.4259 47.9814 47.9998 43.405 47.9998 37.7609C47.989 32.1124 43.4079 27.5389 37.7595 27.5371ZM37.7595 46.4118C32.984 46.4024 29.1194 42.5255 29.1251 37.7497C29.1312 32.9743 33.006 29.1071 37.7818 29.11C42.5572 29.1132 46.4269 32.9854 46.4269 37.7609C46.4176 42.541 42.54 46.4114 37.7595 46.4118Z" fill="#6A49F2"/>
<path d="M42.7089 34.0743L35.4005 41.3827L32.8106 38.7929C32.5021 38.4948 32.0114 38.4991 31.7083 38.8026C31.4048 39.1061 31.4005 39.5964 31.6985 39.9049L34.2884 42.4948C34.9026 43.1086 35.8984 43.1086 36.5125 42.4948L43.821 35.1863C44.1187 34.8778 44.1147 34.3871 43.8113 34.084C43.5078 33.7805 43.0174 33.7762 42.7089 34.0743Z" fill="#6A49F2"/>
</svg>
