<svg width="52" height="48" viewBox="0 0 52 48" fill="none" xmlns="http://www.w3.org/2000/svg">
<path d="M48.8301 0.585938H39.0312C38.6106 0.585938 38.2695 0.926984 38.2695 1.34765C38.2695 1.76833 38.6106 2.10937 39.0312 2.10937H48.8301C49.738 2.10937 50.4767 2.84803 50.4767 3.756V32.6986H1.52368V3.756C1.52368 2.84803 2.26234 2.10937 3.17031 2.10937H35.4765C35.8971 2.10937 36.2382 1.76833 36.2382 1.34765C36.2382 0.926984 35.8971 0.585938 35.4765 0.585938H3.17031C1.42232 0.585938 0.000244141 2.00801 0.000244141 3.756V35.1145C0.000244141 36.8625 1.42232 38.2845 3.17031 38.2845H10.4626C10.8833 38.2845 11.2243 37.9435 11.2243 37.5228C11.2243 37.1022 10.8833 36.7611 10.4626 36.7611H3.17031C2.26234 36.7611 1.52368 36.0224 1.52368 35.1145V34.2221H50.4767V35.1145C50.4767 36.0224 49.738 36.7611 48.8301 36.7611H13.9838C13.5631 36.7611 13.222 37.1022 13.222 37.5228C13.222 37.9435 13.5631 38.2845 13.9838 38.2845H18.7779L18.0258 42.6309H16.6358C15.3758 42.6309 14.3507 43.656 14.3507 44.9161C14.3507 46.1761 15.3758 47.2012 16.6358 47.2012H35.3645C36.6246 47.2012 37.6497 46.1761 37.6497 44.9161C37.6497 43.656 36.6246 42.6309 35.3645 42.6309H33.9746L33.2225 38.2845H48.83C50.578 38.2845 52 36.8625 52 35.1145V3.756C52.0001 2.00801 50.5781 0.585938 48.8301 0.585938ZM32.4285 42.6309H30.3548C29.9341 42.6309 29.5931 42.972 29.5931 43.3926C29.5931 43.8133 29.9341 44.1543 30.3548 44.1543H35.3645C35.7846 44.1543 36.1263 44.496 36.1263 44.9161C36.1263 45.3361 35.7846 45.6778 35.3645 45.6778H16.6358C16.2158 45.6778 15.8741 45.3361 15.8741 44.9161C15.8741 44.496 16.2158 44.1543 16.6358 44.1543H26.7989C27.2196 44.1543 27.5606 43.8133 27.5606 43.3926C27.5606 42.972 27.2196 42.6309 26.7989 42.6309H19.5719L20.324 38.2845H31.6765L32.4285 42.6309Z" fill="#6A49F2"/>
<path d="M41.2061 19.8594C40.9195 19.8594 40.6572 20.0203 40.5272 20.2757L36.9325 27.3409L33.899 21.3786C33.769 21.1232 33.5067 20.9623 33.2201 20.9623C32.9335 20.9623 32.6711 21.1232 32.5411 21.3786L30.8967 24.6107H28.2712C27.8506 24.6107 27.5095 24.9517 27.5095 25.3724C27.5095 25.7931 27.8506 26.1341 28.2712 26.1341H31.3638C31.6504 26.1341 31.9128 25.9732 32.0428 25.7178L33.2201 23.4039L36.2535 29.3661C36.3835 29.6215 36.6459 29.7824 36.9325 29.7824C37.2191 29.7824 37.4814 29.6215 37.6114 29.3661L41.2061 22.3009L42.9446 25.7179C43.0746 25.9733 43.3369 26.1342 43.6235 26.1342H46.7161C47.1367 26.1342 47.4778 25.7932 47.4778 25.3725C47.4778 24.9518 47.1367 24.6108 46.7161 24.6108H44.0906L41.8851 20.2758C41.7551 20.0203 41.4927 19.8594 41.2061 19.8594Z" fill="#6A49F2"/>
<path d="M28.2712 17.6027H32.2239C32.6446 17.6027 32.9857 17.2617 32.9857 16.841V8.82226C32.9857 8.40159 32.6446 8.06055 32.2239 8.06055H28.2712C27.8506 8.06055 27.5095 8.40159 27.5095 8.82226V16.841C27.5095 17.2617 27.8506 17.6027 28.2712 17.6027ZM29.033 9.58398H31.4622V16.0793H29.033V9.58398Z" fill="#6A49F2"/>
<path d="M39.4966 10.2393H35.5439C35.1233 10.2393 34.7822 10.5803 34.7822 11.001V16.8407C34.7822 17.2614 35.1233 17.6024 35.5439 17.6024H39.4966C39.9173 17.6024 40.2584 17.2614 40.2584 16.8407V11.001C40.2584 10.5803 39.9173 10.2393 39.4966 10.2393ZM38.7349 16.079H36.3057V11.7627H38.7349V16.079Z" fill="#6A49F2"/>
<path d="M46.7159 17.6034C47.1366 17.6034 47.4776 17.2623 47.4776 16.8417V6.8125C47.4776 6.39183 47.1366 6.05078 46.7159 6.05078H42.7632C42.3425 6.05078 42.0015 6.39183 42.0015 6.8125V16.8417C42.0015 17.2623 42.3425 17.6034 42.7632 17.6034H46.7159ZM43.5249 7.57422H45.9542V16.08H43.5249V7.57422Z" fill="#6A49F2"/>
<path d="M22.5366 14.667H5.27099C4.85032 14.667 4.50928 15.008 4.50928 15.4287C4.50928 15.8494 4.85032 16.1904 5.27099 16.1904H22.5366C22.9573 16.1904 23.2983 15.8494 23.2983 15.4287C23.2983 15.008 22.9573 14.667 22.5366 14.667Z" fill="#6A49F2"/>
<path d="M5.27099 20.2363H8.36072C8.78139 20.2363 9.12244 19.8953 9.12244 19.4746C9.12244 19.0539 8.78139 18.7129 8.36072 18.7129H5.27099C4.85032 18.7129 4.50928 19.0539 4.50928 19.4746C4.50928 19.8953 4.85032 20.2363 5.27099 20.2363Z" fill="#6A49F2"/>
<path d="M22.537 18.7129H11.8513C11.4306 18.7129 11.0896 19.0539 11.0896 19.4746C11.0896 19.8953 11.4306 20.2363 11.8513 20.2363H22.537C22.9577 20.2363 23.2987 19.8953 23.2987 19.4746C23.2987 19.0539 22.9577 18.7129 22.537 18.7129Z" fill="#6A49F2"/>
<path d="M22.5366 6.05078H5.27099C4.85032 6.05078 4.50928 6.39183 4.50928 6.8125C4.50928 7.23317 4.85032 7.57422 5.27099 7.57422H22.5366C22.9573 7.57422 23.2983 7.23317 23.2983 6.8125C23.2983 6.39183 22.9573 6.05078 22.5366 6.05078Z" fill="#6A49F2"/>
<path d="M5.27099 11.6201H15.9779C16.3986 11.6201 16.7396 11.2791 16.7396 10.8584C16.7396 10.4377 16.3986 10.0967 15.9779 10.0967H5.27099C4.85032 10.0967 4.50928 10.4377 4.50928 10.8584C4.50928 11.2791 4.85032 11.6201 5.27099 11.6201Z" fill="#6A49F2"/>
<path d="M22.5368 10.0967H19.4683C19.0476 10.0967 18.7065 10.4377 18.7065 10.8584C18.7065 11.2791 19.0476 11.6201 19.4683 11.6201H22.5368C22.9574 11.6201 23.2985 11.2791 23.2985 10.8584C23.2985 10.4377 22.9574 10.0967 22.5368 10.0967Z" fill="#6A49F2"/>
<path d="M23.2983 23.4717C23.2983 23.051 22.9573 22.71 22.5366 22.71H5.27099C4.85032 22.71 4.50928 23.051 4.50928 23.4717C4.50928 23.8923 4.85032 24.2334 5.27099 24.2334H22.5366C22.9573 24.2334 23.2983 23.8923 23.2983 23.4717Z" fill="#6A49F2"/>
<path d="M5.27099 26.7354C4.85032 26.7354 4.50928 27.0764 4.50928 27.4971C4.50928 27.9177 4.85032 28.2588 5.27099 28.2588H13.396C13.8167 28.2588 14.1577 27.9177 14.1577 27.4971C14.1577 27.0764 13.8167 26.7354 13.396 26.7354H5.27099Z" fill="#6A49F2"/>
</svg>
