<svg width="36" height="36" viewBox="0 0 36 36" fill="none" xmlns="http://www.w3.org/2000/svg">
<path d="M24.4137 21.1788L19.3943 17.4143V9.74586C19.3943 8.97481 18.7711 8.35156 18 8.35156C17.229 8.35156 16.6057 8.97481 16.6057 9.74586V18.1115C16.6057 18.5507 16.8121 18.9648 17.1634 19.2269L22.7405 23.4098C22.9914 23.598 23.2843 23.6886 23.5756 23.6886C24.0009 23.6886 24.4192 23.4976 24.6925 23.1295C25.1555 22.5145 25.03 21.6403 24.4137 21.1788Z" fill="#6A49F2"/>
<path d="M18 0C8.07419 0 0 8.07419 0 18C0 27.9258 8.07419 36 18 36C27.9258 36 36 27.9258 36 18C36 8.07419 27.9258 0 18 0ZM18 33.2115C9.61348 33.2115 2.78852 26.3865 2.78852 18C2.78852 9.61348 9.61348 2.78852 18 2.78852C26.3879 2.78852 33.2115 9.61348 33.2115 18C33.2115 26.3865 26.3865 33.2115 18 33.2115Z" fill="#6A49F2"/>
</svg>
