<?xml version="1.0" encoding="utf-8"?>
<!-- Generator: Adobe Illustrator 16.0.0, SVG Export Plug-In . SVG Version: 6.00 Build 0)  -->
<!DOCTYPE svg PUBLIC "-//W3C//DTD SVG 1.1//EN" "http://www.w3.org/Graphics/SVG/1.1/DTD/svg11.dtd">
<svg version="1.1" xmlns="http://www.w3.org/2000/svg" xmlns:xlink="http://www.w3.org/1999/xlink" x="0px" y="0px"
	 width="595.275px" height="841.89px" viewBox="0 0 595.275 841.89" enable-background="new 0 0 595.275 841.89"
	 xml:space="preserve">
<g id="Layer_1">
	<g>
		<path fill-rule="evenodd" clip-rule="evenodd" fill="#8B2AFA" d="M139.914,366.016c0-8.185,4.686-15.002,12.752-15.002h289.54
			c8.065,0,12.751,6.818,12.751,15.002v194.276H346.192c-9.946,0-10.357,12.002-21.753,12.002h-54.007
			c-11.396,0-11.807-12.002-21.753-12.002h-58.508c-7.347,0-10.95,11.862,0.702,12.051l42.054-0.049
			c3.772,0,10.065-0.39,13.525-0.023c4.101,0.435,5.482,4.078,8.215,6.037c6.499,4.659,11.492,5.988,22.516,5.988
			c13.595,0,48.427,1.737,58.527-2.981c6.721-3.14,9.013-9.021,11.982-9.021h130.519c0,8.675,1.07,23.253-13.502,23.253H130.163
			c-14.572,0-13.502-14.578-13.502-23.253h45.756c8.115,0,9.748-12.002-1.5-12.002h-21.003V366.016L139.914,366.016z
			 M489.462,570.794c0-5.523-5.607-10.502-13.502-10.502h-9.751V361.515c0-6.429-4.545-12.598-8.038-15.964
			c-3.999-3.854-10.618-6.539-18.216-6.539h-43.506c0-17.011-6.344-13.86-17.036-20.469c-2.594-1.603-0.907,0.163-2.467-2.784
			h44.257c0.495,5.955,9.089,12.001,15.752,12.001c23.29,0,23.512-35.255,0-35.255c-8.451,0-13.099,5.57-16.502,12.001h-45.757
			c0.935-4.011,3.751-9.422,3.751-13.501c0-7.07-4.021-7.924-6.751-12.002c4.102-2.747,19.462-21.003,22.503-21.003
			c23.313,0,10.551-1.097,20.459,7.295c9.969,8.443,28.298,3.474,28.298-14.796c0-11.723-15.142-20.934-26.805-13.302
			c-1.456,0.954-3.042,2.117-4.104,3.396c-1.688,2.035-1.786,3.196-2.846,5.405c-19.254,0-18.239-2.392-27.941,7.313
			c-4.305,4.306-13.597,14.615-17.814,17.44c-9.554-6.397-3.988-10.176-25.993-2.658c-3.624,1.238-2.766,1.064-5.991-0.557
			c-9.927-4.988-3.57,2.14-12.5-14.559c-5.177-9.681-15.429-6.979-32.027-6.979c-12.422,0-12.864,15.084-17.195,18.81
			c-1.3,1.118-4.448,1.783-6.329,2.728c-3.226,1.622-2.368,1.795-5.991,0.557c-22.005-7.518-16.44-3.739-25.993,2.658
			c-4.218-2.825-13.51-13.134-17.815-17.44c-9.688-9.691-8.528-7.313-27.941-7.313c-1.999-3.778-2.801-6.086-6.576-8.426
			c-3.858-2.392-7.137-3.606-11.67-3.081c-7.888,0.915-15.509,7.691-15.509,16.007c0,18.435,18.488,23.133,28.303,14.801
			c9.766-8.291-2.757-7.3,20.454-7.3c3.041,0,18.401,18.256,22.503,21.003c-2.73,4.078-6.751,4.932-6.751,12.002
			c0,4.079,2.816,9.491,3.75,13.501h-45.756c-14.99-28.329-46.697-0.372-29.477,17.475c12.295,12.742,28.1,1.309,28.727-6.223
			h44.256c-1.847,3.49-5.669,4.323-11.52,7.232c-8.291,4.123-7.983,8.305-7.983,16.021h-43.506c-7.249,0-13.984,2.6-17.837,6.166
			c-3.623,3.354-8.417,9.749-8.417,16.337v198.777c-6.644,0-14.753-0.952-18.98,2.772c-2.729,2.406-3.854,4.911-4.273,7.976v14.006
			c0,6.722,5.179,13.854,9.295,16.958c5.842,4.406,11.659,5.545,21.459,5.545h323.295c9.09,0,15.296-1.463,20.709-5.545
			c7.041-5.31,8.885-11.514,9.295-18.49V570.794L489.462,570.794z M438.455,315.759c-9.479,0-8.46-11.252-1.5-11.252
			C446.13,304.507,443.199,315.759,438.455,315.759L438.455,315.759z M151.916,309.758c0-5.779,11.251-9.187,11.251,1.5
			C163.167,316.569,151.916,318.547,151.916,309.758L151.916,309.758z M228.426,291.005c0-0.738,14.265-15.002,15.002-15.002
			c5.345,0,9.537,4.5,18.002,4.5c2.446,0,14.644-5.56,16.322-6.932c2.464-2.015,7.609-12.043,8.431-15.572h22.503
			c0.772,3.317,5.771,13.184,8.028,15.225c1.857,1.679,13.336,7.279,18.225,7.279c2.468,0,6.125-1.219,8.526-1.976
			c3.18-1.002,4.531-1.723,7.977-2.525c1.56,1.044,15.002,14.179,15.002,15.002c0,5.344-4.501,9.537-4.501,18.002
			c0,2.188,5.634,14.735,6.932,16.322c2.015,2.465,12.044,7.609,15.571,8.432v5.25h-46.506
			c-2.553-10.957-5.643-16.543-12.553-23.453c-12.213-12.212-36.954-15.009-36.954-5.801c0,2.34,1.287,4.593,2.838,5.413
			c2.773,1.467,11.391-0.776,20.407,4.347c6.887,3.913,12.203,10.667,14.26,19.495h-57.008c2.573-11.042,7.501-12.362,7.501-15.752
			c0-7.901-12.615-13.811-19.502,15.752h-46.506v-5.25c3.316-0.773,13.184-5.771,15.225-8.029
			c1.554-1.718,7.278-13.495,7.278-18.225C232.927,302.007,228.426,295.65,228.426,291.005L228.426,291.005z M427.203,257.25
			c-11.574,0-7.746-11.251-2.25-11.251C433.412,245.999,432.444,257.25,427.203,257.25L427.203,257.25z M169.168,245.999
			c8.626,0,6.586,11.251,1.5,11.251C158.935,257.25,163.781,245.999,169.168,245.999z"/>
		<path fill-rule="evenodd" clip-rule="evenodd" fill="#8B2AFA" d="M163.167,374.267h268.537v162.772H163.167V374.267
			L163.167,374.267z M151.916,368.266V543.04c0,3.628,2.373,6.001,6.001,6.001h279.039c3.628,0,6.001-2.373,6.001-6.001V368.266
			c0-3.87-3.123-6.001-6.751-6.001H158.667C155.039,362.265,151.916,364.396,151.916,368.266z"/>
		<path fill-rule="evenodd" clip-rule="evenodd" fill="#8B2AFA" d="M280.183,402.021c0,20.444,16.963,18.752,28.504,18.752v82.511
			c0,32.103,35.255,25.505,35.255,6.001v-53.257c0-7.579-10.045-8.133-11.202-1.45c-0.313,1.808-0.051,6.816-0.05,8.951l0.005,37.51
			c0.037,6.339,0.268,12.747-6.006,12.747c-8.546,0-6.001-13.72-6.001-27.754l0.054-69.063c0.002-5.802-2.03-8.106-9.018-8.235
			c-5.692-0.104-11.572,0.037-17.29,0.037c-1.288-1.924-3.216-3.257-2.747-6.5c0.439-3.039,2.52-4.751,5.748-4.751h57.758
			c4.212,0,6.001,2.587,6.001,6c0,12.429-28.504-1.969-28.504,11.251c0,16.292-1.976,20.253,6.751,20.253
			c6,0,4.501-10.645,4.501-14.252c9.142,0,18.338,1.424,24.558-5.446c6.474-7.151,6.546-17.718-1.464-25.149
			c-3.376-3.133-7.821-4.66-14.093-4.66h-52.507c-5.85,0-10.485,1.345-13.977,4.026C283.601,391.74,280.183,397.253,280.183,402.021
			z"/>
		<path fill-rule="evenodd" clip-rule="evenodd" fill="#8B2AFA" d="M250.929,513.786c-3.628,0-6.001-2.373-6.001-6.001V403.521
			c0-6.224,7.792-8.26,10.749-3.248c0.793,1.345,1.253,3.54,1.253,5.498v99.764C256.93,510,255.485,513.786,250.929,513.786
			L250.929,513.786z M233.677,401.271v108.765c0,8.44,8.66,15.753,17.252,15.753c8.765,0,17.252-7.813,17.252-16.503V402.021
			c0-8.885-8.48-15.819-16.65-16.296C242.878,385.218,233.677,392.65,233.677,401.271z"/>
	</g>
</g>
<g id="Layer_1_1_">
	<path fill-rule="evenodd" clip-rule="evenodd" fill="#8B2AFA" d="M807.189,366.016c0-8.185,4.687-15.002,12.752-15.002h289.54
		c8.065,0,12.752,6.818,12.752,15.002v194.276h-108.766c-9.946,0-10.357,12.002-21.753,12.002h-54.007
		c-11.396,0-11.807-12.002-21.754-12.002h-58.508c-7.347,0-10.95,11.862,0.702,12.051l42.054-0.049
		c3.772,0,10.065-0.39,13.525-0.023c4.101,0.435,5.481,4.078,8.215,6.037c6.499,4.659,11.492,5.988,22.517,5.988
		c13.595,0,48.427,1.737,58.526-2.981c6.721-3.14,9.013-9.021,11.982-9.021h130.519c0,8.675,1.07,23.253-13.502,23.253H797.438
		c-14.572,0-13.502-14.578-13.502-23.253h45.756c8.115,0,9.748-12.002-1.5-12.002h-21.003V366.016L807.189,366.016z
		 M1156.738,570.794c0-5.523-5.608-10.502-13.503-10.502h-9.751V361.515c0-6.429-4.545-12.598-8.038-15.964
		c-1.74-1.677-3.977-3.132-6.573-4.242h-82.682l-222.405-1.123c-3.831,1.094-7.142,2.873-9.432,4.993
		c-3.623,3.354-8.417,9.749-8.417,16.337v198.777c-6.645,0-14.753-0.952-18.979,2.772c-2.729,2.406-3.854,4.911-4.273,7.976v14.006
		c0,6.722,5.18,13.854,9.295,16.958c5.843,4.406,11.659,5.545,21.459,5.545h323.295c9.09,0,15.296-1.463,20.709-5.545
		c7.041-5.31,8.886-11.514,9.296-18.49V570.794z"/>
	<path fill-rule="evenodd" clip-rule="evenodd" fill="#8B2AFA" d="M830.442,374.267h268.537v162.772H830.442V374.267
		L830.442,374.267z M819.191,368.266V543.04c0,3.628,2.372,6.001,6.001,6.001h279.038c3.629,0,6.001-2.373,6.001-6.001V368.266
		c0-3.87-3.123-6.001-6.751-6.001H825.942C822.314,362.265,819.191,364.396,819.191,368.266z"/>
	<path fill-rule="evenodd" clip-rule="evenodd" fill="#8B2AFA" d="M965.601,402.021c0,20.444,16.963,18.752,28.504,18.752v82.511
		c0,32.103,35.255,25.505,35.255,6.001v-53.257c0-7.579-10.045-8.133-11.201-1.45c-0.313,1.808-0.052,6.816-0.051,8.951l0.006,37.51
		c0.036,6.339,0.268,12.747-6.006,12.747c-8.547,0-6.001-13.72-6.001-27.754l0.054-69.063c0.001-5.802-2.03-8.106-9.018-8.235
		c-5.693-0.104-11.573,0.037-17.29,0.037c-1.288-1.924-3.216-3.257-2.747-6.5c0.439-3.039,2.52-4.751,5.747-4.751h57.759
		c4.211,0,6,2.587,6,6c0,12.429-28.504-1.969-28.504,11.251c0,16.292-1.976,20.253,6.751,20.253c6,0,4.501-10.645,4.501-14.252
		c9.143,0,18.338,1.424,24.558-5.446c6.474-7.151,6.546-17.718-1.463-25.149c-3.377-3.133-7.821-4.66-14.094-4.66h-52.507
		c-5.85,0-10.484,1.345-13.977,4.026C969.018,391.74,965.601,397.253,965.601,402.021z"/>
	
		<path fill-rule="evenodd" clip-rule="evenodd" fill="none" stroke="#8B2AFA" stroke-width="8.3999" stroke-miterlimit="22.9256" d="
		M861.984,457.065c0-21.642,4.496-38.603,13.467-50.852c8.97-12.25,20.539-18.359,34.732-18.359c9.298,0,17.658,2.887,25.13,8.632
		c7.447,5.745,13.139,13.77,17.05,24.074c3.911,10.274,5.879,21.946,5.879,34.986c0,13.223-2.062,25.077-6.184,35.503
		c-4.122,10.456-9.953,18.359-17.494,23.709c-7.565,5.38-15.716,8.055-24.451,8.055c-9.485,0-17.94-2.979-25.411-8.906
		c-7.448-5.927-13.115-14.013-16.956-24.286C863.904,479.376,861.984,468.525,861.984,457.065L861.984,457.065z M875.755,457.37
		c0,15.715,3.256,28.086,9.767,37.113s14.685,13.557,24.521,13.557c10.023,0,18.244-4.56,24.731-13.678
		c6.464-9.119,9.696-22.068,9.696-38.847c0-10.608-1.382-19.879-4.146-27.782c-2.764-7.903-6.815-14.043-12.132-18.389
		c-5.34-4.347-11.313-6.536-17.939-6.536c-9.415,0-17.519,4.195-24.311,12.584C879.151,423.782,875.755,437.765,875.755,457.37z"/>
	<g>
		
			<path fill-rule="evenodd" clip-rule="evenodd" fill="#8B2AFA" stroke="#8B2AFA" stroke-width="1.9199" stroke-miterlimit="22.9256" d="
			M1017.462,282.391h14.222v17.14h-14.222V282.391L1017.462,282.391z M1055.752,312.294c0-3.634-2.205-7.106-4.18-8.949
			c-4.529-4.227-8.595-3.815-14.418-3.815v-18.963c0-2.047-2.412-4.011-4.377-4.011h-16.41c-1.967,0-4.376,1.678-4.376,4.74v18.234
			h-15.681v-18.598c0-2.191-2.186-4.376-4.376-4.376h-16.046c-3.486,0-5.105,2.679-5.105,6.199v16.775
			c-14.222,0-4.719,0.519-15.681-4.741c0-4.505-0.364-7.791-0.364-12.034c3.773-1.997,6.929-4.103,6.929-9.846v-20.057
			c0-4.62-2.823-8.275-6.817-9.593c-0.876-0.289-1.913,0.417-1.962-3.144c-0.156-11.292-2-6.506,6.502-16.161
			c0.5-0.567,0.911-0.919,1.459-1.458c1.184-1.163,1.607-1.98,2.725-3.11c1.824-1.842,4.408-5.02,5.751-5.919l10.868,14.295
			c1.098,1.613,2.479,3.596,3.8,4.953c2.269,2.329,2.85,2.062,5.27,3.118c2.319,1.012,0.271,1.321,3.097,5.655
			c5.63,8.632,18.115,7.596,22.186,1.519l5.406,2.681c0.085,2.298-1.747,9.332,4.176,14.722c6.808,6.194,17.039,4.511,17.039,0.831
			c0-4.221-4.165-2.553-7.658-2.553c-3.919,0-8.022-4.104-8.022-8.023v-1.823c0-8.119,12.698-12.49,17.379-2.792
			c1.284,2.66,1.567,2.428,3.771,2.428c1.818,0,2.414-2.474,1.704-4.229c-1.853-4.579-6.987-9.264-12.644-9.264
			c-9.408,0-9.635,3.13-13.129,5.47c-1.988-0.463-3.116-1.725-5.104-2.188c1.052-4.517,1.357-7.854-1.598-12.26
			c-1.56-2.326-2.53-3.226-4.967-4.515c0-7.686-1.48-7.156-5.587-14.106c-0.913-1.545-1.65-2.482-2.553-4.011
			c-1.021-1.731-10.094-15.935-10.094-16.162c0-1.727,1.094-2.19,1.094-6.929c0-6.527-5.574-10.497-9.025-13.949
			c-5.406-5.405-7.164-9.025-15.772-9.025c-5.063,0-7.723,2.916-10.477,5.569l-19.518,18.044c-1.961,1.965-3.697,3.32-5.652,5.288
			l-11.117,10.399c-2.222,2.323-2.707,1.544-9.031,1.544c-3.89,0-7.034-0.157-10.424,0.516
			c-10.991,2.183-19.146,11.749-19.491,23.541c-0.208,7.094-0.718,13.845-0.718,20.798c-4.284,0.356-8.022,5.127-8.022,9.846v20.057
			c0,2.268,0.841,4.802,1.918,6.104c0.438,0.527,1.473,1.563,1.999,2.013c2.54,2.17,2.282-0.765,2.282,6.834
			c0,2.862-0.364,4.146-0.364,6.929c-3.042,1.609-5.429,2.84-7.513,5.616c-1.647,2.194-3.792,6.085-3.792,9.7v29.903
			c0,1.958,2.053,4.012,4.011,4.012h89.345c4.084,0,4.376-4.12,4.376-6.929h63.453c2.619,0,3.046-5.47-0.729-5.47h-62.724
			c0-8.476,0.791-18.169-1.094-26.256l75.861-0.009c10.177-0.071,8.743,9.492,8.743,16.784c0,13.374-12.764,6.75-12.764,12.035
			c0,5.362,10.729,2.93,14.503-1.177c2.446-2.661,3.398-5.478,3.73-8.697V312.294L1055.752,312.294z M976.618,282.391h13.857v17.14
			h-13.857V282.391L976.618,282.391z M902.954,295.883c0,4.029,2.541,3.285,6.564,3.282h27.351c5.543,0,12.892-0.739,16.784,1.084
			c3.67,1.72,7.284,5.61,7.284,10.95v27.351H874.51v-25.527c0-10.337,6.493-13.878,15.315-13.858
			c1.898,0.004,5.298,0.606,6.704-0.59c1.727-1.47,1.311-4.879-1.598-4.879h-8.752c0-4.014,0.364-6.606,0.364-10.575h62.359
			c0.519,2.225,0.344,4.244,0.358,6.94c0.023,4.149,1.318,3.694-3.27,3.642l-37.569-0.007
			C907.201,293.688,902.954,293.181,902.954,295.883L902.954,295.883z M880.345,273.639v-20.787c0-2.354,1.365-4.376,3.646-4.376
			h68.193c1.834,0,3.647,1.813,3.647,3.646v21.516c0,2.815-2.64,4.011-5.471,4.011h-64.547
			C882.875,277.65,880.345,276.227,880.345,273.639L880.345,273.639z M995.945,235.348c6.293-3.33,8.614-5.973,12.764-8.752
			c3.347,2.909,3.646,3.799,3.646,8.023c0,3.875-3.669,7.235-7.746,7.578C1000.533,242.54,996.243,238.926,995.945,235.348
			L995.945,235.348z M973.336,209.092c2.094-3.127,5.208-5.782,7.746-8.664c0.788-0.894,0.925-1.289,1.819-2.192l6.115-6.283
			c2.304,4.354,16.41,24.569,16.41,27.715c0,3.472-4.31,5.674-7.949,8.096c-8.208,5.46-8.17,2.741-17.16-9.242
			C977.967,215.387,975.482,212.297,973.336,209.092L973.336,209.092z M952.185,223.314c0-5.122-0.829-9.05-3.116-12.929
			c-2.817-4.778-6-1.429-6,0.166c0,2.591,3.702,3.435,3.647,14.586l0.729,17.505h-59.077c0-5.093,0.389-9.032,0.362-13.86
			c-0.018-3.282,0.424-9.856,1.409-12.813c2.166-6.504,9.143-11.981,16.462-11.981c6.052,0,22.377-0.708,27.273,0.807
			c0.64,0.198,6.682,3.519,6.912-1.212c0.19-3.894-9.554-5.43-11.94-5.43c0.551-0.823,0.909-0.905,1.713-1.569l5.494-5.082
			c1.263-1.168,2.192-2.305,3.455-3.473l3.651-3.278c0.604-0.607,1.016-1.084,1.645-1.638l10.771-10.015
			c6.191-5.176,11.986-14.079,19.286-8.561c1.933,1.461,5.045,4.994,6.954,6.903c5.533,5.533,6.108,4.816,6.108,11.032
			c0,3-4.581,6.694-5.889,8.333c-3.69,4.625-12.104,12.808-15.938,17.613c-0.752,0.942-1.463,1.531-2.339,2.402
			C961.364,213.199,954.117,222.02,952.185,223.314z"/>
		
			<path fill-rule="evenodd" clip-rule="evenodd" fill="#8B2AFA" stroke="#8B2AFA" stroke-width="1.9199" stroke-miterlimit="22.9256" d="
			M891.649,259.052h14.951v8.752h-14.951V259.052L891.649,259.052z M885.814,256.499v13.857c0,1.764,1.153,2.917,2.918,2.917h21.516
			c1.182,0,2.188-1.584,2.188-2.917V255.77c0-1.327-1.778-2.553-3.282-2.553h-20.057
			C887.111,253.217,885.814,254.514,885.814,256.499z"/>
		
			<path fill-rule="evenodd" clip-rule="evenodd" fill="#8B2AFA" stroke="#8B2AFA" stroke-width="1.9199" stroke-miterlimit="22.9256" d="
			M912.436,222.584c0-8.465,10.575-6.571,10.575-1.458c0,4.802-1.396,6.199-6.199,6.199
			C914.752,227.325,912.436,224.639,912.436,222.584L912.436,222.584z M917.541,233.16c12.584,0,15.378-16.395,4.749-21.159
			c-8.946-4.009-18.591,5.168-14.716,14.351C909.046,229.841,912.75,233.16,917.541,233.16z"/>
		
			<path fill-rule="evenodd" clip-rule="evenodd" fill="#8B2AFA" stroke="#8B2AFA" stroke-width="1.9199" stroke-miterlimit="22.9256" d="
			M888.367,322.14c0-4.41,6.199-4.517,6.199,0C894.566,326.302,888.367,325.559,888.367,322.14L888.367,322.14z M900.401,321.775
			c0-6.324-7.54-11.48-14.025-7.097c-8.471,5.725-0.873,19.878,8.697,15.262C897.998,328.53,900.401,325.884,900.401,321.775z"/>
		
			<path fill-rule="evenodd" clip-rule="evenodd" fill="#8B2AFA" stroke="#8B2AFA" stroke-width="1.9199" stroke-miterlimit="22.9256" d="
			M1025.849,319.587c0-1.946,0.556-4.103,3.177-3.851c4.077,0.392,3.804,5.765,0.348,6.275
			C1027.853,322.236,1025.849,321.035,1025.849,319.587L1025.849,319.587z M1020.014,318.858c0,4.969,3.71,8.752,9.481,8.752
			c3.888,0,8.023-3.75,8.023-7.659v-2.188C1037.519,308.122,1020.014,306.784,1020.014,318.858z"/>
		
			<path fill-rule="evenodd" clip-rule="evenodd" fill="#8B2AFA" stroke="#8B2AFA" stroke-width="1.9199" stroke-miterlimit="22.9256" d="
			M990.476,322.14c-4.049,0-3.884-6.794,0.261-6.405C994.973,316.134,994.344,322.14,990.476,322.14L990.476,322.14z
			 M981.724,318.858c0,5.302,3.81,8.752,9.481,8.752c4.556,0,8.022-3.841,8.022-9.482c0-4.018-3.689-8.023-8.752-8.023
			C985.619,310.105,981.724,314.002,981.724,318.858z"/>
		
			<path fill-rule="evenodd" clip-rule="evenodd" fill="#8B2AFA" stroke="#8B2AFA" stroke-width="1.9199" stroke-miterlimit="22.9256" d="
			M966.407,181.741c0-4.049,5.47-3.517,5.47-0.365C971.877,185.425,966.407,184.894,966.407,181.741L966.407,181.741z
			 M968.596,173.354c-1.624,0.375-1.65-0.127-3.277,0.734c-8.689,4.602-3.726,16.951,4.538,15.852
			C982.572,188.248,977.42,171.32,968.596,173.354z"/>
		
			<path fill-rule="evenodd" clip-rule="evenodd" fill="#8B2AFA" stroke="#8B2AFA" stroke-width="1.9199" stroke-miterlimit="22.9256" d="
			M910.978,313.023c-4.172,0.348-3.834,3.798-2.176,5.093c0.62,0.484,1.16,0.658,2.176,0.742c0,5.176-1.212,12.399,2.917,12.399
			c4.068,0,2.917-6.476,2.917-12.399c4.491-0.374,4.485-5.735,0-5.835c0-2.808,0.673-6.564-2.917-6.564
			C910.654,306.459,910.978,309.768,910.978,313.023z"/>
		
			<path fill-rule="evenodd" clip-rule="evenodd" fill="#8B2AFA" stroke="#8B2AFA" stroke-width="1.9199" stroke-miterlimit="22.9256" d="
			M940.516,310.105c-4.335,0.097-4.59,5.47,0,5.47v12.035c0,5.3,5.834,4.471,5.834,0.364v-12.399c4.456,0,4.448-5.371,0-5.47
			C946.238,305.066,940.516,305.076,940.516,310.105z"/>
		
			<path fill-rule="evenodd" clip-rule="evenodd" fill="#8B2AFA" stroke="#8B2AFA" stroke-width="1.9199" stroke-miterlimit="22.9256" d="
			M925.929,308.647v11.305c-4.439,0.099-4.979,5.42,0,5.835c0,1.075-0.719,5.47,2.553,5.47c3.265,0,2.917-2.413,2.917-5.47
			c4.949-0.412,4.464-5.835,0-5.835v-11.305C931.398,305.74,925.929,305.74,925.929,308.647z"/>
		
			<path fill-rule="evenodd" clip-rule="evenodd" fill="#8B2AFA" stroke="#8B2AFA" stroke-width="1.9199" stroke-miterlimit="22.9256" d="
			M941.974,257.593c0,3.967,6.93,3.812,6.93,0.365C948.903,253.467,941.974,253.976,941.974,257.593z"/>
		
			<path fill-rule="evenodd" clip-rule="evenodd" fill="#8B2AFA" stroke="#8B2AFA" stroke-width="1.9199" stroke-miterlimit="22.9256" d="
			M941.974,268.168c0,3.967,6.93,3.812,6.93,0.365C948.903,264.043,941.974,264.551,941.974,268.168z"/>
		
			<path fill-rule="evenodd" clip-rule="evenodd" fill="#8B2AFA" stroke="#8B2AFA" stroke-width="1.9199" stroke-miterlimit="22.9256" d="
			M933.951,260.511c5.463,0,4.252-5.835,0.365-5.835C929.701,254.676,929.877,260.511,933.951,260.511z"/>
		
			<path fill-rule="evenodd" clip-rule="evenodd" fill="#8B2AFA" stroke="#8B2AFA" stroke-width="1.9199" stroke-miterlimit="22.9256" d="
			M933.951,271.086c5.463,0,4.252-5.835,0.365-5.835C929.701,265.251,929.877,271.086,933.951,271.086z"/>
		
			<path fill-rule="evenodd" clip-rule="evenodd" fill="#8B2AFA" stroke="#8B2AFA" stroke-width="1.9199" stroke-miterlimit="22.9256" d="
			M919.729,268.168c0,4.031,6.563,3.904,6.563,0C926.293,264.269,919.729,264.269,919.729,268.168z"/>
		
			<path fill-rule="evenodd" clip-rule="evenodd" fill="#8B2AFA" stroke="#8B2AFA" stroke-width="1.9199" stroke-miterlimit="22.9256" d="
			M919.729,257.593c0,4.031,6.563,3.904,6.563,0c0-2.836-3.433-3.483-5.482-2.2C920.073,255.854,919.729,256.406,919.729,257.593z"
			/>
	</g>
</g>
</svg>
