<svg width="81" height="82" viewBox="0 0 81 82" fill="none" xmlns="http://www.w3.org/2000/svg">
<path d="M40.6407 28.762C41.7557 28.762 42.6587 27.8585 42.6587 26.7443C42.6587 25.63 41.7557 24.7266 40.6407 24.7266C31.7252 24.7266 24.4976 31.9532 24.4976 40.8682C24.4976 49.7826 31.7252 57.0092 40.6407 57.0092C49.5569 57.0092 56.7845 49.7826 56.7845 40.8682C56.7845 39.7534 55.8809 38.8505 54.7666 38.8505C53.6522 38.8505 52.7486 39.7534 52.7486 40.8682C52.7486 47.5541 47.3282 52.9744 40.6407 52.9744C33.9539 52.9744 28.5329 47.5541 28.5329 40.8682C28.5329 34.1817 33.9539 28.762 40.6407 28.762Z" fill="white"/>
<path d="M79.1436 28.8808C78.7931 27.8222 77.6509 27.2481 76.5916 27.5985C75.557 27.9408 74.9809 29.0421 75.2893 30.0871C81.3241 49.3019 70.6378 69.7701 51.4204 75.804C32.2035 81.838 11.7327 71.1531 5.6979 51.9383C-0.337483 32.7234 10.3494 12.2553 29.5663 6.2213C36.6802 3.98791 44.3071 3.98791 51.4204 6.2213C52.4884 6.54326 53.6151 5.93888 53.9371 4.87101C54.2542 3.81921 53.6726 2.70746 52.6274 2.36757C31.2888 -4.32639 8.56262 7.54316 1.86777 28.8795C-4.82709 50.2153 7.04466 72.9385 28.3833 79.6324C49.7225 86.3264 72.4481 74.4568 79.143 53.1204C81.6189 45.2301 81.6189 36.7712 79.1436 28.8808Z" fill="white"/>
<path d="M44.4838 14.9148C44.4943 13.766 43.6117 12.8057 42.4658 12.7198C41.8632 12.6685 41.26 12.6172 40.6413 12.6172C25.0383 12.6172 12.3896 25.2642 12.3896 40.8651C12.3896 56.4654 25.0383 69.1123 40.6413 69.1123C56.2437 69.1123 68.8923 56.4654 68.8923 40.8651C68.8923 40.1352 68.8478 39.406 68.7582 38.6817C68.5969 37.5743 67.5685 36.8074 66.4609 36.9687C65.3533 37.1294 64.5863 38.1583 64.747 39.2657C64.7532 39.3078 64.7606 39.3492 64.7692 39.3912C64.8131 39.88 64.8564 40.3645 64.8564 40.8638C64.857 54.2363 54.0156 65.0763 40.6419 65.0775C27.2677 65.0782 16.4262 54.2375 16.4256 40.8657C16.425 27.4938 27.2658 16.6532 40.6401 16.6526H40.6407C41.1413 16.6526 41.6265 16.6959 42.1142 16.7391L42.4924 16.7706C43.5468 16.8157 44.4381 15.9975 44.4826 14.9433C44.4832 14.9334 44.4832 14.9241 44.4838 14.9148Z" fill="white"/>
<path d="M52.7485 18.6702V25.9055L39.2142 39.438C38.4126 40.2124 38.3903 41.4897 39.1648 42.2913C39.9392 43.0928 41.2167 43.115 42.0183 42.3407C42.035 42.3246 42.0517 42.308 42.0678 42.2913L55.6021 28.7587H62.8384C63.3737 28.7587 63.8867 28.5461 64.2655 28.1673L76.3728 16.0611C77.1608 15.2732 77.1608 13.9958 76.3728 13.2079C75.9945 12.8297 75.4815 12.6171 74.9463 12.6171H68.8923V6.56396C68.8923 5.44974 67.9887 4.54626 66.8738 4.54688C66.3391 4.54688 65.8261 4.75946 65.4479 5.13766L53.34 17.2439C52.9612 17.6221 52.7485 18.135 52.7485 18.6702ZM56.7845 19.5057L64.8564 11.4349V14.6348C64.8564 15.749 65.76 16.6525 66.8744 16.6525H70.0747L62.0028 24.7233H56.7845V19.5057Z" fill="white"/>
</svg>
