<svg width="70" height="69" viewBox="0 0 70 69" fill="none" xmlns="http://www.w3.org/2000/svg">
<path d="M63.5199 57.0199H62.8719C62.224 57.0199 61.792 56.5879 61.792 55.94C61.792 55.292 62.224 54.86 62.8719 54.86H63.5199C65.7878 54.86 67.7316 53.0241 67.7316 50.6483V13.3903H2.93527V50.6483C2.93527 53.0241 4.77117 54.86 7.14703 54.86H40.3012C40.9491 54.86 41.3811 55.292 41.3811 55.94C41.3811 56.5879 40.9491 57.0199 40.3012 57.0199H7.14703C3.58323 57.0199 0.775391 54.2121 0.775391 50.6483V12.3104C0.775391 11.6624 1.20737 11.2305 1.85533 11.2305H68.8116C69.4595 11.2305 69.8915 11.6624 69.8915 12.3104V50.6483C69.8915 54.2121 67.0837 57.0199 63.5199 57.0199Z" fill="#0398AB"/>
<path d="M68.8116 13.3913H1.85533C1.20737 13.3913 0.775391 12.9593 0.775391 12.3113V6.37164C0.775391 2.91584 3.58323 0 7.14703 0H63.6279C67.1917 0 69.9995 2.80784 69.9995 6.37164V12.3113C69.8915 12.9593 69.4595 13.3913 68.8116 13.3913ZM2.93527 11.2314H67.7316V6.37164C67.7316 4.10377 65.8957 2.15988 63.5199 2.15988H7.14703C4.77117 2.15988 2.93527 4.10377 2.93527 6.37164V11.2314Z" fill="#0398AB"/>
<path d="M11.0351 9.93552C9.30724 9.93552 7.90332 8.5316 7.90332 6.8037C7.90332 5.0758 9.30724 3.67188 11.0351 3.67188C12.763 3.67188 14.167 5.0758 14.167 6.8037C14.167 8.5316 12.763 9.93552 11.0351 9.93552ZM11.0351 5.72376C10.4952 5.72376 10.0632 6.15574 10.0632 6.69571C10.0632 7.23568 10.4952 7.66765 11.0351 7.66765C11.5751 7.66765 12.0071 7.23568 12.0071 6.69571C12.0071 6.15574 11.5751 5.72376 11.0351 5.72376Z" fill="#0398AB"/>
<path d="M20.2148 9.93552C18.4869 9.93552 17.083 8.5316 17.083 6.8037C17.083 5.0758 18.4869 3.67188 20.2148 3.67188C21.9427 3.67188 23.3467 5.0758 23.3467 6.8037C23.3467 8.5316 21.9427 9.93552 20.2148 9.93552ZM20.2148 5.72376C19.6749 5.72376 19.2429 6.15574 19.2429 6.69571C19.2429 7.23568 19.6749 7.66765 20.2148 7.66765C20.7548 7.66765 21.1868 7.23568 21.1868 6.69571C21.1868 6.15574 20.7548 5.72376 20.2148 5.72376Z" fill="#0398AB"/>
<path d="M59.6318 9.93552H30.1494C28.4215 9.93552 27.0176 8.5316 27.0176 6.8037C27.0176 5.0758 28.4215 3.67188 30.1494 3.67188H59.6318C61.3597 3.67188 62.7636 5.0758 62.7636 6.8037C62.8716 8.5316 61.3597 9.93552 59.6318 9.93552ZM30.1494 5.72376C29.6094 5.72376 29.1775 6.15574 29.1775 6.69571C29.1775 7.23568 29.6094 7.66765 30.1494 7.66765H59.6318C60.1717 7.66765 60.6037 7.23568 60.6037 6.69571C60.6037 6.15574 60.1717 5.72376 59.6318 5.72376H30.1494Z" fill="#0398AB"/>
<path d="M63.4121 68.6837H39.5454C38.0335 68.6837 36.7376 67.9278 35.9816 66.6318C35.2257 65.3359 35.2257 63.824 35.8736 62.5281L47.861 39.8493C48.6169 38.4454 50.0209 37.6895 51.5328 37.6895C53.0447 37.6895 54.4486 38.5534 55.2046 39.8493L67.1919 62.5281C67.8399 63.824 67.8399 65.3359 67.0839 66.6318C66.3279 67.9278 64.924 68.6837 63.4121 68.6837ZM49.6969 40.8213L37.7095 63.5C37.3856 64.148 37.3856 64.7959 37.8175 65.4439C38.2495 66.0919 38.7895 66.4159 39.5454 66.4159H63.4121C64.0601 66.4159 64.708 66.0919 65.14 65.4439C65.572 64.7959 65.572 64.148 65.248 63.5L53.2607 40.8213C52.9367 40.1733 52.2887 39.7413 51.5328 39.7413C50.6688 39.8493 50.0209 40.1733 49.6969 40.8213Z" fill="#0398AB"/>
<path d="M51.4245 57.1291C49.9126 57.1291 48.6167 55.9412 48.5087 54.4292L47.9687 48.8136C47.8607 47.8416 48.1847 46.8697 48.8327 46.1137C49.4806 45.3578 50.4526 44.9258 51.4245 44.9258C52.3965 44.9258 53.3684 45.3578 54.0164 46.1137C54.6643 46.8697 54.9883 47.8416 54.8803 48.8136L54.3403 54.4292C54.3403 56.0492 53.0444 57.1291 51.4245 57.1291ZM51.4245 47.1937C51.1005 47.1937 50.6686 47.3016 50.4526 47.6256C50.2366 47.9496 50.1286 48.2736 50.1286 48.5976L50.6686 54.2133C50.6686 54.6452 51.1005 54.9692 51.5325 54.9692C51.9645 54.9692 52.2885 54.6452 52.3965 54.2133L52.9364 48.5976C52.9364 48.2736 52.8284 47.8416 52.6124 47.6256C52.1805 47.4096 51.8565 47.1937 51.4245 47.1937Z" fill="#0398AB"/>
<path d="M51.4254 65.2277C49.5895 65.2277 48.1855 63.7158 48.1855 61.9879C48.1855 60.26 49.6975 58.748 51.4254 58.748C53.2613 58.748 54.6652 60.26 54.6652 61.9879C54.6652 63.7158 53.2613 65.2277 51.4254 65.2277ZM51.4254 60.9079C50.7774 60.9079 50.3454 61.4479 50.3454 61.9879C50.3454 62.5278 50.8854 63.0678 51.4254 63.0678C51.9653 63.0678 52.5053 62.5278 52.5053 61.9879C52.5053 61.4479 52.0733 60.9079 51.4254 60.9079Z" fill="#0398AB"/>
<path d="M11.7906 34.3411H10.7107C8.8748 34.3411 7.25489 33.3691 6.39094 31.7492L5.203 29.6973C4.87902 29.1574 5.09501 28.5094 5.63498 28.1854C6.17495 27.8614 6.82291 28.0774 7.14689 28.6174L8.33483 30.6693C8.8748 31.5332 9.73875 32.0732 10.8187 32.0732H11.8986C12.5466 32.0732 12.9786 32.5052 12.9786 33.1531C12.9786 33.8011 12.3306 34.3411 11.7906 34.3411Z" fill="#0398AB"/>
<path d="M6.17495 48.7051C5.95896 48.7051 5.85097 48.7051 5.63498 48.5971C5.09501 48.2731 4.87902 47.6251 5.203 47.0851L6.39094 45.0333C7.25489 43.4134 8.98279 42.4414 10.7107 42.4414H12.7626C13.4105 42.4414 13.8425 42.8734 13.8425 43.5213C13.8425 44.1693 13.4105 44.6013 12.7626 44.6013H10.7107C9.73875 44.6013 8.7668 45.1413 8.22683 46.0052L7.0389 48.0571C6.93091 48.4891 6.49893 48.7051 6.17495 48.7051Z" fill="#0398AB"/>
<path d="M11.6828 39.4177H6.8231C6.17514 39.4177 5.74316 38.9857 5.74316 38.3378C5.74316 37.6898 6.17514 37.2578 6.8231 37.2578H11.6828C12.3308 37.2578 12.7628 37.6898 12.7628 38.3378C12.7628 38.9857 12.3308 39.4177 11.6828 39.4177Z" fill="#0398AB"/>
<path d="M31.1218 34.3405H30.0419C29.3939 34.3405 28.9619 33.9085 28.9619 33.2606C28.9619 32.6126 29.3939 32.1806 30.0419 32.1806H31.1218C32.0937 32.1806 33.0657 31.6407 33.6057 30.7767L34.7936 28.7248C35.1176 28.1849 35.7655 27.9689 36.3055 28.2928C36.8455 28.6168 37.0615 29.2648 36.7375 29.8048L35.5495 31.8566C34.5776 33.3686 32.9577 34.3405 31.1218 34.3405Z" fill="#0398AB"/>
<path d="M35.657 48.7045C35.225 48.7045 34.901 48.4885 34.6851 48.1645L33.4971 46.1126C32.9571 45.2487 32.0932 44.7087 31.0133 44.7087H28.8534C28.2054 44.7087 27.7734 44.2767 27.7734 43.6288C27.7734 42.9808 28.2054 42.5488 28.8534 42.5488H31.0133C32.8492 42.5488 34.4691 43.5208 35.333 45.1407L36.5209 47.1926C36.8449 47.7325 36.6289 48.3805 36.089 48.7045C36.089 48.5965 35.873 48.7045 35.657 48.7045Z" fill="#0398AB"/>
<path d="M35.009 39.4177H30.1493C29.5013 39.4177 29.0693 38.9857 29.0693 38.3378C29.0693 37.6898 29.5013 37.2578 30.1493 37.2578H35.009C35.657 37.2578 36.0889 37.6898 36.0889 38.3378C36.0889 38.9857 35.657 39.4177 35.009 39.4177Z" fill="#0398AB"/>
<path d="M24.7506 29.9151H17.191C15.3551 29.9151 13.9512 28.5112 13.9512 26.6753C13.9512 22.8955 17.083 19.7637 20.8628 19.7637H21.1868C24.9666 19.7637 28.0984 22.8955 28.0984 26.6753C27.9904 28.5112 26.4785 29.9151 24.7506 29.9151ZM20.7548 22.0315C18.1629 22.0315 16.0031 24.1914 16.0031 26.7833C16.0031 27.3232 16.435 27.8632 17.083 27.8632H24.6426C25.1825 27.8632 25.7225 27.4312 25.7225 26.7833C25.7225 24.1914 23.5626 22.0315 20.9708 22.0315H20.7548Z" fill="#0398AB"/>
<path d="M20.9708 22.031C18.163 22.031 15.7871 19.7631 15.7871 16.8473V16.5233C15.7871 15.8753 16.2191 15.4434 16.867 15.4434C17.515 15.4434 17.947 15.8753 17.947 16.5233V16.8473C17.947 18.4672 19.3509 19.8711 20.9708 19.8711C22.5907 19.8711 23.9947 18.4672 23.9947 16.8473V16.5233C23.9947 15.8753 24.4266 15.4434 25.0746 15.4434C25.7226 15.4434 26.1545 15.8753 26.1545 16.5233V16.8473C26.0465 19.6551 23.7787 22.031 20.9708 22.031Z" fill="#0398AB"/>
<path d="M20.9698 51.2966C15.3541 51.2966 10.8184 44.493 10.8184 36.1774C10.8184 32.3976 11.7903 30.0218 13.9502 28.8338C15.7861 27.7539 18.1619 27.7539 20.7538 27.7539H21.2938C23.7776 27.7539 26.2615 27.7539 28.0974 28.8338C30.2573 30.0218 31.2292 32.3976 31.2292 36.1774C31.1212 44.601 26.4775 51.2966 20.9698 51.2966ZM20.3218 29.9138C18.054 29.9138 16.2181 29.9138 14.9221 30.6697C14.0582 31.2097 12.8702 32.2897 12.8702 36.1774C12.8702 43.197 16.542 49.1367 20.8618 49.1367C25.1816 49.1367 28.8534 43.197 28.8534 36.1774C28.8534 32.2897 27.6654 31.2097 26.8015 30.6697C25.5055 29.9138 23.4537 29.9138 21.0778 29.9138H20.5378C20.5378 29.9138 20.4298 29.9138 20.3218 29.9138Z" fill="#0398AB"/>
<path d="M18.81 36.1782C18.162 36.1782 17.7301 35.7463 17.7301 35.0983C17.7301 34.7743 17.5141 34.5583 17.1901 34.5583C16.8661 34.5583 16.6501 34.7743 16.6501 35.0983C16.6501 35.7463 16.2181 36.1782 15.5702 36.1782C14.9222 36.1782 14.4902 35.7463 14.4902 35.0983C14.4902 33.5864 15.6782 32.3984 17.1901 32.3984C18.702 32.3984 19.8899 33.5864 19.8899 35.0983C19.8899 35.6383 19.458 36.1782 18.81 36.1782Z" fill="#0398AB"/>
<path d="M25.8305 36.1782C25.1825 36.1782 24.7506 35.7463 24.7506 35.0983C24.7506 34.7743 24.5346 34.5583 24.2106 34.5583C23.8866 34.5583 23.6706 34.7743 23.6706 35.0983C23.6706 35.7463 23.2386 36.1782 22.5907 36.1782C21.9427 36.1782 21.5107 35.7463 21.5107 35.0983C21.5107 33.5864 22.6987 32.3984 24.2106 32.3984C25.7225 32.3984 26.9104 33.5864 26.9104 35.0983C26.9104 35.6383 26.4785 36.1782 25.8305 36.1782Z" fill="#0398AB"/>
<path d="M18.81 41.4692C18.162 41.4692 17.7301 41.0373 17.7301 40.3893C17.7301 40.0653 17.5141 39.8493 17.1901 39.8493C16.8661 39.8493 16.6501 40.0653 16.6501 40.3893C16.6501 41.0373 16.2181 41.4692 15.5702 41.4692C14.9222 41.4692 14.4902 41.0373 14.4902 40.3893C14.4902 38.8774 15.6782 37.6895 17.1901 37.6895C18.702 37.6895 19.8899 38.8774 19.8899 40.3893C19.8899 41.0373 19.458 41.4692 18.81 41.4692Z" fill="#0398AB"/>
<path d="M25.8305 41.4692C25.1825 41.4692 24.7506 41.0373 24.7506 40.3893C24.7506 40.0653 24.5346 39.8493 24.2106 39.8493C23.8866 39.8493 23.6706 40.0653 23.6706 40.3893C23.6706 41.0373 23.2386 41.4692 22.5907 41.4692C21.9427 41.4692 21.5107 41.0373 21.5107 40.3893C21.5107 38.8774 22.6987 37.6895 24.2106 37.6895C25.7225 37.6895 26.9104 38.8774 26.9104 40.3893C26.9104 41.0373 26.4785 41.4692 25.8305 41.4692Z" fill="#0398AB"/>
<path d="M63.3035 25.9195H43.2167C42.5687 25.9195 42.1367 25.4875 42.1367 24.8395V17.496C42.1367 16.848 42.5687 16.416 43.2167 16.416H63.1955C63.8435 16.416 64.2755 16.848 64.2755 17.496V24.8395C64.3835 25.4875 63.8435 25.9195 63.3035 25.9195ZM44.2966 23.7596H62.1156V18.5759H44.2966V23.7596Z" fill="#0398AB"/>
<path d="M63.3035 31.3181H43.2167C42.5687 31.3181 42.1367 30.8861 42.1367 30.2381C42.1367 29.5902 42.5687 29.1582 43.2167 29.1582H63.1955C63.8435 29.1582 64.2755 29.5902 64.2755 30.2381C64.2755 30.8861 63.8435 31.3181 63.3035 31.3181Z" fill="#0398AB"/>
<path d="M63.3041 36.07H56.3924C55.7445 36.07 55.3125 35.6381 55.3125 34.9901C55.3125 34.3421 55.7445 33.9102 56.3924 33.9102H63.3041C63.952 33.9102 64.384 34.3421 64.384 34.9901C64.384 35.6381 63.844 36.07 63.3041 36.07Z" fill="#0398AB"/>
</svg>
