<svg width="66" height="66" viewBox="0 0 66 66" fill="none" xmlns="http://www.w3.org/2000/svg">
<path d="M61.7572 8.48568H4.24284C1.89964 8.48568 0 6.58618 0 4.24284C0 1.8995 1.89964 0 4.24284 0H61.7572C64.1004 0 66 1.89964 66 4.24284C66 6.58605 64.1005 8.48568 61.7572 8.48568ZM4.24284 1.88574C2.94103 1.88574 1.88574 2.94103 1.88574 4.24284C1.88574 5.54465 2.94103 6.59995 4.24284 6.59995H61.7572C63.059 6.59995 64.1143 5.54465 64.1143 4.24284C64.1143 2.94103 63.059 1.88574 61.7572 1.88574H4.24284Z" fill="#0398AB"/>
<path d="M58.4578 46.2016H7.54345C5.98122 46.2016 4.71484 44.9353 4.71484 43.373V7.54443C4.71484 7.02373 5.13702 6.60156 5.65771 6.60156H60.3434C60.8641 6.60156 61.2863 7.02373 61.2863 7.54443V43.373C61.2864 44.9353 60.0201 46.2016 58.4578 46.2016ZM6.60058 8.4873V43.373C6.60058 43.8937 7.02275 44.3159 7.54345 44.3159H58.4578C58.9785 44.3159 59.4007 43.8937 59.4007 43.373V8.4873H6.60058Z" fill="#0398AB"/>
<path d="M32.9995 65.999C30.3959 65.999 28.2852 63.8883 28.2852 61.2847C28.2852 58.681 30.3959 56.5703 32.9995 56.5703C35.6031 56.5703 37.7138 58.681 37.7138 61.2847C37.7107 63.8871 35.6019 65.9959 32.9995 65.999ZM32.9995 58.4562C31.4373 58.4562 30.1709 59.7226 30.1709 61.2848C30.1709 62.847 31.4373 64.1134 32.9995 64.1134C34.5617 64.1134 35.8281 62.847 35.8281 61.2848C35.8281 59.7226 34.5617 58.4562 32.9995 58.4562Z" fill="#0398AB"/>
<path d="M33.9434 45.2578H32.0576V57.515H33.9434V45.2578Z" fill="#0398AB"/>
<path d="M19.7996 22.6292H11.314C10.7933 22.6292 10.3711 22.2071 10.3711 21.6864V13.2007C10.3711 12.68 10.7933 12.2578 11.314 12.2578H19.7996C20.3203 12.2578 20.7425 12.68 20.7425 13.2007V21.6864C20.7425 22.2071 20.3205 22.6292 19.7996 22.6292ZM12.2568 20.7435H18.8568V14.1436H12.2568V20.7435Z" fill="#0398AB"/>
<path d="M42.1928 14.1426H25.457V16.0283H42.1928V14.1426Z" fill="#0398AB"/>
<path d="M55.6284 19.8008H25.457V21.6865H55.6284V19.8008Z" fill="#0398AB"/>
<path d="M19.7996 38.6117H11.314C10.7933 38.6117 10.3711 38.1895 10.3711 37.6688V29.1831C10.3711 28.6624 10.7933 28.2402 11.314 28.2402H19.7996C20.3203 28.2402 20.7425 28.6624 20.7425 29.1831V37.6688C20.7425 38.1896 20.3205 38.6117 19.7996 38.6117ZM12.2568 36.7261H18.8568V30.126H12.2568V36.7261Z" fill="#0398AB"/>
<path d="M42.1928 30.127H25.457V32.0127H42.1928V30.127Z" fill="#0398AB"/>
<path d="M55.6284 35.7852H25.457V37.6709H55.6284V35.7852Z" fill="#0398AB"/>
</svg>
