<svg width="69" height="69" viewBox="0 0 69 69" fill="none" xmlns="http://www.w3.org/2000/svg">
<path d="M27.8321 12.5429C25.2673 15.6931 21.8484 17.9527 17.9447 19.0772C16.6686 19.4449 15.9321 20.7773 16.2996 22.0535C16.6463 23.2569 17.8511 23.9804 19.0574 23.7505C19.1303 23.7367 19.2033 23.7194 19.2759 23.6985C21.2621 23.1264 23.1471 22.3174 24.8999 21.293" stroke="#0398AB" stroke-width="2" stroke-miterlimit="10" stroke-linecap="round" stroke-linejoin="round"/>
<path d="M34.675 27.3301L37.2931 19.8516C38.0828 19.9742 38.8761 20.0372 39.6667 20.0372C43.2308 20.0372 46.7317 18.8035 49.5457 16.466L49.8684 16.1978C50.8713 15.3646 51.0776 13.8753 50.2807 12.8435C49.4442 11.76 47.8836 11.5945 46.8396 12.462L46.4726 12.7669C45.8462 13.2871 45.1705 13.728 44.4598 14.0866C41.6882 15.4848 38.3576 14.7609 36.2458 12.4855C35.2124 11.3722 33.7352 10.6653 32.0707 10.6653C29.4757 10.6653 27.2082 12.4183 26.5549 14.9298L23.3291 27.3301H34.675Z" stroke="#0398AB" stroke-width="2" stroke-miterlimit="10" stroke-linecap="round" stroke-linejoin="round"/>
<path d="M37.2451 52.5488L44.9776 44.8163L50.7375 50.5762L62.7443 38.5694L65.6482 41.4732L67.9989 29.7921L56.3178 32.1429L58.8567 34.6818L50.7375 42.801L44.9776 37.041L18.2168 63.802L22.1044 67.6895L29.5779 60.216" stroke="#0398AB" stroke-width="2" stroke-miterlimit="10" stroke-linecap="round" stroke-linejoin="round"/>
<path d="M40.42 5.83345C40.42 3.16446 38.2564 1.00088 35.5874 1.00088C32.9185 1.00088 30.7549 3.16446 30.7549 5.83345C30.7549 8.50244 32.9185 10.666 35.5874 10.666C38.2564 10.666 40.42 8.50244 40.42 5.83345Z" stroke="#0398AB" stroke-width="2" stroke-miterlimit="10" stroke-linecap="round" stroke-linejoin="round"/>
<path d="M14.6867 49.99L13.8515 52.1799C13.2359 53.7941 14.2852 55.5606 15.997 55.7922L16.0603 55.8007C17.232 55.9593 18.3608 55.3651 18.8865 54.3227C21.5668 49.0086 29.479 33.3648 29.479 33.3648H32.6923L31.0537 43.6672C30.8111 45.1921 31.9893 46.5726 33.5335 46.5726C34.661 46.5726 35.6503 45.821 35.9525 44.7348L39.0323 33.6689C39.919 30.4825 37.523 27.3287 34.2156 27.3287H32.7486" stroke="#0398AB" stroke-width="2" stroke-miterlimit="10" stroke-linecap="round" stroke-linejoin="round"/>
<path d="M23.3297 27.3306L18.5518 39.8594" stroke="#0398AB" stroke-width="2" stroke-miterlimit="10" stroke-linecap="round" stroke-linejoin="round"/>
<path d="M11.8552 37.5015L1.83825 27.4845C1.15027 26.7965 1.15027 25.6808 1.83825 24.9928L9.1094 17.7216C9.79752 17.0335 10.9131 17.0335 11.6012 17.7216L21.6181 27.7386C22.3062 28.4266 22.3062 29.5422 21.6181 30.2303L14.3471 37.5015C13.659 38.1896 12.5434 38.1896 11.8552 37.5015Z" stroke="#0398AB" stroke-width="2" stroke-miterlimit="10" stroke-linecap="round" stroke-linejoin="round"/>
<path d="M5.47363 21.3582L10.0373 25.9219" stroke="#0398AB" stroke-width="2" stroke-miterlimit="10" stroke-linecap="round" stroke-linejoin="round"/>
<path d="M17.6525 33.5352L13.0889 28.9715" stroke="#0398AB" stroke-width="2" stroke-miterlimit="10" stroke-linecap="round" stroke-linejoin="round"/>
<path d="M10.2446 29.1785L9.83016 28.7641C9.10219 28.0361 9.10219 26.8557 9.83016 26.1276L11.5629 24.3949L14.6138 27.4458L12.8811 29.1785C12.1531 29.9066 10.9727 29.9066 10.2446 29.1785Z" stroke="#0398AB" stroke-width="2" stroke-miterlimit="10" stroke-linecap="round" stroke-linejoin="round"/>
</svg>
