<?xml version="1.0" encoding="utf-8"?>
<!-- Generator: Adobe Illustrator 16.0.0, SVG Export Plug-In . SVG Version: 6.00 Build 0)  -->
<!DOCTYPE svg PUBLIC "-//W3C//DTD SVG 1.1//EN" "http://www.w3.org/Graphics/SVG/1.1/DTD/svg11.dtd">
<svg version="1.1" xmlns="http://www.w3.org/2000/svg" xmlns:xlink="http://www.w3.org/1999/xlink" x="0px" y="0px"
	 width="595.275px" height="841.89px" viewBox="0 0 595.275 841.89" enable-background="new 0 0 595.275 841.89"
	 xml:space="preserve">
<g id="Layer_1">
</g>
<g id="Layer_1_1_">
	<path fill-rule="evenodd" clip-rule="evenodd" fill="#8B2AFA" d="M147.223,404.532c0-8.185,4.687-15.002,12.752-15.002h289.54
		c8.065,0,12.752,6.818,12.752,15.002v194.276H353.501c-9.946,0-10.357,12.002-21.753,12.002h-54.007
		c-11.396,0-11.807-12.002-21.754-12.002h-58.508c-7.347,0-10.95,11.862,0.702,12.051l42.054-0.049
		c3.772,0,10.065-0.39,13.525-0.023c4.101,0.435,5.481,4.078,8.215,6.037c6.499,4.659,11.492,5.988,22.517,5.988
		c13.595,0,48.427,1.737,58.526-2.981c6.721-3.14,9.013-9.021,11.982-9.021H485.52c0,8.675,1.07,23.253-13.502,23.253H137.472
		c-14.572,0-13.502-14.578-13.502-23.253h45.756c8.115,0,9.748-12.002-1.5-12.002h-21.003V404.532L147.223,404.532z
		 M496.771,609.311c0-5.523-5.608-10.502-13.503-10.502h-9.751V400.031c0-6.429-4.545-12.598-8.038-15.964
		c-1.74-1.677-3.977-3.132-6.573-4.242h-82.682l-222.405-1.123c-3.831,1.094-7.142,2.873-9.432,4.993
		c-3.623,3.354-8.417,9.749-8.417,16.337v198.777c-6.645,0-14.753-0.952-18.979,2.772c-2.729,2.406-3.854,4.911-4.273,7.976v14.006
		c0,6.722,5.18,13.854,9.295,16.958c5.843,4.406,11.659,5.545,21.459,5.545h323.295c9.09,0,15.296-1.463,20.709-5.545
		c7.041-5.31,8.886-11.514,9.296-18.49V609.311z"/>
	<path fill-rule="evenodd" clip-rule="evenodd" fill="#8B2AFA" d="M170.476,412.783h268.537v162.772H170.476V412.783
		L170.476,412.783z M159.225,406.782v174.774c0,3.628,2.372,6.001,6.001,6.001h279.038c3.629,0,6.001-2.373,6.001-6.001V406.782
		c0-3.87-3.123-6.001-6.751-6.001H165.976C162.348,400.781,159.225,402.912,159.225,406.782z"/>
	<path fill-rule="evenodd" clip-rule="evenodd" fill="#8B2AFA" d="M305.634,440.537c0,20.444,16.963,18.752,28.504,18.752v82.512
		c0,32.103,35.255,25.505,35.255,6.001v-53.257c0-7.579-10.045-8.133-11.201-1.45c-0.313,1.808-0.052,6.816-0.051,8.951l0.006,37.51
		c0.036,6.339,0.268,12.747-6.006,12.747c-8.547,0-6.001-13.72-6.001-27.754l0.054-69.063c0.001-5.803-2.03-8.107-9.018-8.235
		c-5.693-0.104-11.573,0.037-17.29,0.037c-1.288-1.924-3.216-3.257-2.747-6.501c0.439-3.038,2.52-4.75,5.747-4.75h57.759
		c4.211,0,6,2.587,6,6c0,12.43-28.504-1.969-28.504,11.252c0,16.292-1.976,20.253,6.751,20.253c6,0,4.501-10.645,4.501-14.253
		c9.143,0,18.338,1.425,24.558-5.445c6.474-7.15,6.546-17.719-1.463-25.149c-3.377-3.133-7.821-4.659-14.094-4.659h-52.507
		c-5.85,0-10.484,1.344-13.977,4.025C309.051,430.257,305.634,435.77,305.634,440.537z"/>
	
		<path fill-rule="evenodd" clip-rule="evenodd" fill="none" stroke="#8B2AFA" stroke-width="8.3999" stroke-miterlimit="22.9256" d="
		M202.018,495.582c0-21.642,4.496-38.603,13.467-50.852c8.97-12.25,20.539-18.359,34.732-18.359c9.298,0,17.658,2.887,25.13,8.632
		c7.447,5.745,13.139,13.77,17.05,24.073c3.911,10.274,5.879,21.946,5.879,34.986c0,13.223-2.062,25.077-6.184,35.503
		c-4.122,10.456-9.953,18.359-17.494,23.709c-7.565,5.38-15.716,8.055-24.451,8.055c-9.485,0-17.94-2.979-25.411-8.906
		c-7.448-5.927-13.115-14.013-16.956-24.286C203.938,517.893,202.018,507.042,202.018,495.582L202.018,495.582z M215.788,495.887
		c0,15.715,3.256,28.086,9.767,37.113s14.685,13.557,24.521,13.557c10.023,0,18.244-4.56,24.731-13.678
		c6.464-9.119,9.696-22.068,9.696-38.847c0-10.608-1.382-19.879-4.146-27.782c-2.764-7.902-6.815-14.043-12.132-18.389
		c-5.34-4.348-11.313-6.536-17.939-6.536c-9.415,0-17.519,4.194-24.311,12.584S215.788,476.281,215.788,495.887z"/>
	<g>
		
			<path fill-rule="evenodd" clip-rule="evenodd" fill="#8B2AFA" stroke="#8B2AFA" stroke-width="1.9199" stroke-miterlimit="22.9256" d="
			M357.495,320.907h14.222v17.14h-14.222V320.907L357.495,320.907z M395.785,350.811c0-3.634-2.205-7.106-4.18-8.949
			c-4.529-4.227-8.595-3.815-14.418-3.815v-18.963c0-2.047-2.412-4.011-4.377-4.011H356.4c-1.967,0-4.376,1.678-4.376,4.74v18.234
			h-15.681v-18.598c0-2.191-2.186-4.376-4.376-4.376h-16.046c-3.486,0-5.105,2.679-5.105,6.199v16.775
			c-14.222,0-4.719,0.519-15.681-4.741c0-4.505-0.364-7.791-0.364-12.034c3.773-1.997,6.929-4.103,6.929-9.846v-20.057
			c0-4.62-2.823-8.275-6.817-9.593c-0.876-0.289-1.913,0.417-1.962-3.144c-0.156-11.292-2-6.506,6.502-16.161
			c0.5-0.567,0.911-0.919,1.459-1.458c1.184-1.163,1.607-1.98,2.725-3.11c1.824-1.842,4.408-5.02,5.751-5.919l10.868,14.295
			c1.098,1.613,2.479,3.596,3.8,4.953c2.269,2.329,2.85,2.062,5.27,3.118c2.319,1.012,0.271,1.321,3.097,5.655
			c5.63,8.632,18.115,7.596,22.186,1.519l5.406,2.681c0.085,2.298-1.747,9.332,4.176,14.722c6.808,6.194,17.039,4.511,17.039,0.831
			c0-4.221-4.165-2.553-7.658-2.553c-3.919,0-8.022-4.104-8.022-8.023v-1.823c0-8.119,12.698-12.49,17.379-2.792
			c1.284,2.66,1.567,2.428,3.771,2.428c1.818,0,2.414-2.474,1.704-4.229c-1.853-4.579-6.987-9.264-12.644-9.264
			c-9.408,0-9.635,3.13-13.129,5.47c-1.988-0.463-3.116-1.725-5.104-2.188c1.052-4.517,1.357-7.854-1.598-12.26
			c-1.56-2.326-2.53-3.226-4.967-4.515c0-7.686-1.48-7.156-5.587-14.106c-0.913-1.545-1.65-2.482-2.553-4.011
			c-1.021-1.731-10.094-15.935-10.094-16.162c0-1.727,1.094-2.19,1.094-6.929c0-6.527-5.574-10.497-9.025-13.949
			c-5.406-5.405-7.164-9.025-15.772-9.025c-5.063,0-7.723,2.916-10.477,5.569l-19.518,18.044c-1.961,1.965-3.697,3.32-5.652,5.288
			l-11.117,10.399c-2.222,2.323-2.707,1.544-9.031,1.544c-3.89,0-7.034-0.157-10.424,0.516
			c-10.991,2.183-19.146,11.749-19.491,23.541c-0.208,7.094-0.718,13.845-0.718,20.798c-4.284,0.356-8.022,5.127-8.022,9.846v20.057
			c0,2.268,0.841,4.802,1.918,6.104c0.438,0.527,1.473,1.563,1.999,2.013c2.54,2.17,2.282-0.765,2.282,6.834
			c0,2.862-0.364,4.146-0.364,6.929c-3.042,1.609-5.429,2.84-7.513,5.616c-1.647,2.194-3.792,6.085-3.792,9.7v29.903
			c0,1.958,2.053,4.012,4.011,4.012h89.345c4.084,0,4.376-4.12,4.376-6.929h63.453c2.619,0,3.046-5.47-0.729-5.47h-62.724
			c0-8.476,0.791-18.169-1.094-26.256l75.861-0.009c10.177-0.071,8.743,9.492,8.743,16.784c0,13.374-12.764,6.75-12.764,12.035
			c0,5.362,10.729,2.93,14.503-1.177c2.446-2.661,3.398-5.478,3.73-8.697V350.811L395.785,350.811z M316.651,320.907h13.857v17.14
			h-13.857V320.907L316.651,320.907z M242.987,334.4c0,4.029,2.541,3.285,6.564,3.282h27.351c5.543,0,12.892-0.739,16.784,1.084
			c3.67,1.72,7.284,5.61,7.284,10.95v27.351h-86.428V351.54c0-10.337,6.493-13.878,15.315-13.858
			c1.898,0.004,5.298,0.606,6.704-0.59c1.727-1.47,1.311-4.879-1.598-4.879h-8.752c0-4.014,0.364-6.606,0.364-10.575h62.359
			c0.519,2.225,0.344,4.244,0.358,6.94c0.023,4.149,1.318,3.694-3.27,3.642l-37.569-0.007
			C247.234,332.205,242.987,331.697,242.987,334.4L242.987,334.4z M220.378,312.155v-20.787c0-2.354,1.365-4.376,3.646-4.376h68.193
			c1.834,0,3.647,1.813,3.647,3.646v21.516c0,2.815-2.64,4.011-5.471,4.011h-64.547
			C222.908,316.167,220.378,314.744,220.378,312.155L220.378,312.155z M335.979,273.864c6.293-3.33,8.614-5.973,12.764-8.752
			c3.347,2.909,3.646,3.799,3.646,8.023c0,3.875-3.669,7.235-7.746,7.578C340.566,281.056,336.276,277.442,335.979,273.864
			L335.979,273.864z M313.369,247.608c2.094-3.127,5.208-5.782,7.746-8.664c0.788-0.894,0.925-1.289,1.819-2.192l6.115-6.283
			c2.304,4.354,16.41,24.569,16.41,27.715c0,3.472-4.31,5.674-7.949,8.096c-8.208,5.46-8.17,2.741-17.16-9.242
			C318,253.904,315.516,250.813,313.369,247.608L313.369,247.608z M292.218,261.831c0-5.122-0.829-9.05-3.116-12.929
			c-2.817-4.778-6-1.429-6,0.166c0,2.591,3.702,3.435,3.647,14.586l0.729,17.505H228.4c0-5.093,0.389-9.032,0.362-13.86
			c-0.018-3.282,0.424-9.856,1.409-12.813c2.166-6.504,9.143-11.981,16.462-11.981c6.052,0,22.377-0.708,27.273,0.807
			c0.64,0.198,6.682,3.519,6.912-1.212c0.19-3.894-9.554-5.43-11.94-5.43c0.551-0.823,0.909-0.905,1.713-1.569l5.494-5.082
			c1.263-1.168,2.192-2.305,3.455-3.473l3.651-3.278c0.604-0.607,1.016-1.084,1.645-1.638l10.771-10.015
			c6.191-5.176,11.986-14.079,19.286-8.561c1.933,1.461,5.045,4.994,6.954,6.903c5.533,5.533,6.108,4.816,6.108,11.032
			c0,3-4.581,6.694-5.889,8.333c-3.69,4.625-12.104,12.808-15.938,17.613c-0.752,0.942-1.463,1.531-2.339,2.402
			C301.397,251.715,294.15,260.537,292.218,261.831z"/>
		
			<path fill-rule="evenodd" clip-rule="evenodd" fill="#8B2AFA" stroke="#8B2AFA" stroke-width="1.9199" stroke-miterlimit="22.9256" d="
			M231.683,297.568h14.951v8.752h-14.951V297.568L231.683,297.568z M225.848,295.016v13.857c0,1.764,1.153,2.917,2.918,2.917h21.516
			c1.182,0,2.188-1.584,2.188-2.917v-14.587c0-1.327-1.778-2.553-3.282-2.553H229.13
			C227.145,291.733,225.848,293.03,225.848,295.016z"/>
		
			<path fill-rule="evenodd" clip-rule="evenodd" fill="#8B2AFA" stroke="#8B2AFA" stroke-width="1.9199" stroke-miterlimit="22.9256" d="
			M252.469,261.101c0-8.465,10.575-6.571,10.575-1.458c0,4.802-1.396,6.199-6.199,6.199
			C254.785,265.842,252.469,263.156,252.469,261.101L252.469,261.101z M257.574,271.676c12.584,0,15.378-16.395,4.749-21.159
			c-8.946-4.009-18.591,5.168-14.716,14.351C249.079,268.357,252.783,271.676,257.574,271.676z"/>
		
			<path fill-rule="evenodd" clip-rule="evenodd" fill="#8B2AFA" stroke="#8B2AFA" stroke-width="1.9199" stroke-miterlimit="22.9256" d="
			M228.4,360.656c0-4.41,6.199-4.517,6.199,0C234.6,364.818,228.4,364.075,228.4,360.656L228.4,360.656z M240.435,360.292
			c0-6.324-7.54-11.48-14.025-7.097c-8.471,5.725-0.873,19.878,8.697,15.262C238.031,367.046,240.435,364.4,240.435,360.292z"/>
		
			<path fill-rule="evenodd" clip-rule="evenodd" fill="#8B2AFA" stroke="#8B2AFA" stroke-width="1.9199" stroke-miterlimit="22.9256" d="
			M365.882,358.104c0-1.946,0.556-4.103,3.177-3.851c4.077,0.392,3.804,5.765,0.348,6.275
			C367.886,360.753,365.882,359.552,365.882,358.104L365.882,358.104z M360.047,357.375c0,4.969,3.71,8.752,9.481,8.752
			c3.888,0,8.023-3.75,8.023-7.659v-2.188C377.552,346.639,360.047,345.301,360.047,357.375z"/>
		
			<path fill-rule="evenodd" clip-rule="evenodd" fill="#8B2AFA" stroke="#8B2AFA" stroke-width="1.9199" stroke-miterlimit="22.9256" d="
			M330.509,360.656c-4.049,0-3.884-6.794,0.261-6.405C335.006,354.65,334.377,360.656,330.509,360.656L330.509,360.656z
			 M321.757,357.375c0,5.302,3.81,8.752,9.481,8.752c4.556,0,8.022-3.841,8.022-9.482c0-4.018-3.689-8.023-8.752-8.023
			C325.652,348.622,321.757,352.519,321.757,357.375z"/>
		
			<path fill-rule="evenodd" clip-rule="evenodd" fill="#8B2AFA" stroke="#8B2AFA" stroke-width="1.9199" stroke-miterlimit="22.9256" d="
			M306.44,220.258c0-4.049,5.47-3.517,5.47-0.365C311.91,223.942,306.44,223.41,306.44,220.258L306.44,220.258z M308.629,211.87
			c-1.624,0.375-1.65-0.127-3.277,0.734c-8.689,4.602-3.726,16.951,4.538,15.852C322.605,226.764,317.453,209.836,308.629,211.87z"
			/>
		
			<path fill-rule="evenodd" clip-rule="evenodd" fill="#8B2AFA" stroke="#8B2AFA" stroke-width="1.9199" stroke-miterlimit="22.9256" d="
			M251.011,351.54c-4.172,0.348-3.834,3.798-2.176,5.093c0.62,0.484,1.16,0.658,2.176,0.742c0,5.176-1.212,12.399,2.917,12.399
			c4.068,0,2.917-6.476,2.917-12.399c4.491-0.374,4.485-5.735,0-5.835c0-2.808,0.673-6.564-2.917-6.564
			C250.688,344.976,251.011,348.284,251.011,351.54z"/>
		
			<path fill-rule="evenodd" clip-rule="evenodd" fill="#8B2AFA" stroke="#8B2AFA" stroke-width="1.9199" stroke-miterlimit="22.9256" d="
			M280.549,348.622c-4.335,0.097-4.59,5.47,0,5.47v12.035c0,5.3,5.834,4.471,5.834,0.364v-12.399c4.456,0,4.448-5.371,0-5.47
			C286.271,343.583,280.549,343.592,280.549,348.622z"/>
		
			<path fill-rule="evenodd" clip-rule="evenodd" fill="#8B2AFA" stroke="#8B2AFA" stroke-width="1.9199" stroke-miterlimit="22.9256" d="
			M265.962,347.164v11.305c-4.439,0.099-4.979,5.42,0,5.835c0,1.075-0.719,5.47,2.553,5.47c3.265,0,2.917-2.413,2.917-5.47
			c4.949-0.412,4.464-5.835,0-5.835v-11.305C271.432,344.257,265.962,344.257,265.962,347.164z"/>
		
			<path fill-rule="evenodd" clip-rule="evenodd" fill="#8B2AFA" stroke="#8B2AFA" stroke-width="1.9199" stroke-miterlimit="22.9256" d="
			M282.007,296.109c0,3.967,6.93,3.812,6.93,0.365C288.937,291.984,282.007,292.493,282.007,296.109z"/>
		
			<path fill-rule="evenodd" clip-rule="evenodd" fill="#8B2AFA" stroke="#8B2AFA" stroke-width="1.9199" stroke-miterlimit="22.9256" d="
			M282.007,306.685c0,3.967,6.93,3.812,6.93,0.365C288.937,302.56,282.007,303.068,282.007,306.685z"/>
		
			<path fill-rule="evenodd" clip-rule="evenodd" fill="#8B2AFA" stroke="#8B2AFA" stroke-width="1.9199" stroke-miterlimit="22.9256" d="
			M273.984,299.027c5.463,0,4.252-5.835,0.365-5.835C269.734,293.192,269.91,299.027,273.984,299.027z"/>
		
			<path fill-rule="evenodd" clip-rule="evenodd" fill="#8B2AFA" stroke="#8B2AFA" stroke-width="1.9199" stroke-miterlimit="22.9256" d="
			M273.984,309.603c5.463,0,4.252-5.835,0.365-5.835C269.734,303.768,269.91,309.603,273.984,309.603z"/>
		
			<path fill-rule="evenodd" clip-rule="evenodd" fill="#8B2AFA" stroke="#8B2AFA" stroke-width="1.9199" stroke-miterlimit="22.9256" d="
			M259.763,306.685c0,4.031,6.563,3.904,6.563,0C266.326,302.786,259.763,302.786,259.763,306.685z"/>
		
			<path fill-rule="evenodd" clip-rule="evenodd" fill="#8B2AFA" stroke="#8B2AFA" stroke-width="1.9199" stroke-miterlimit="22.9256" d="
			M259.763,296.109c0,4.031,6.563,3.904,6.563,0c0-2.836-3.433-3.483-5.482-2.2C260.106,294.371,259.763,294.923,259.763,296.109z"
			/>
	</g>
</g>
</svg>
