<svg width="80" height="67" viewBox="0 0 80 67" fill="none" xmlns="http://www.w3.org/2000/svg">
<path d="M72.6416 0H6.95535C3.32939 0.00425982 0.391062 2.8861 0.386719 6.44233V52.8271C0.391062 56.3833 3.32939 59.2652 6.95535 59.2694H46.3671V65.7118C46.3672 66.2328 46.6873 66.7025 47.1781 66.9019C47.669 67.1013 48.2339 66.9911 48.6096 66.6227L52.9357 62.3798L57.2618 66.6227C57.6376 66.9911 58.2025 67.1013 58.6933 66.9019C59.1842 66.7025 59.5043 66.2328 59.5044 65.7118V59.2694H72.6416C76.2676 59.2652 79.2059 56.3833 79.2103 52.8271V6.44233C79.2059 2.8861 76.2676 0.00425982 72.6416 0ZM42.8332 25.2088C42.6301 25.117 42.4842 24.9353 42.4405 24.7202C42.3968 24.5051 42.4608 24.2825 42.6125 24.1214C43.788 22.8684 43.788 20.9408 42.6125 19.6878C42.4603 19.5264 42.3962 19.3033 42.4402 19.0878C42.4841 18.8723 42.6308 18.6905 42.8345 18.599C44.4082 17.8808 45.1594 16.1006 44.5634 14.5017C44.4858 14.2958 44.5134 14.066 44.6377 13.8835C44.7619 13.701 44.9677 13.5878 45.1913 13.5791C46.9262 13.5076 48.316 12.1446 48.3889 10.443C48.3976 10.2234 48.5132 10.0212 48.6996 9.89928C48.8861 9.77737 49.1208 9.75054 49.3309 9.82713C50.9614 10.4082 52.7744 9.67178 53.5085 8.13022C53.6014 7.93066 53.7864 7.78704 54.0058 7.74416C54.2252 7.70128 54.4522 7.76438 54.616 7.91376C55.894 9.06684 57.8598 9.06684 59.1378 7.91376C59.3021 7.76448 59.5294 7.7016 59.749 7.74472C59.9685 7.78784 60.1536 7.93172 60.2466 8.13151C60.9794 9.67381 62.7931 10.4102 64.423 9.82713C64.633 9.75054 64.8678 9.77737 65.0542 9.89928C65.2407 10.0212 65.3562 10.2234 65.3649 10.443C65.4386 12.1469 66.8317 13.5109 68.5691 13.5804C68.7926 13.5887 68.9985 13.7015 69.1228 13.8839C69.2471 14.0662 69.2747 14.296 69.197 14.5017C68.6006 16.1009 69.3525 17.8817 70.9272 18.599C71.1303 18.6909 71.2763 18.8725 71.3199 19.0876C71.3636 19.3027 71.2996 19.5253 71.1479 19.6865C69.9724 20.9395 69.9724 22.8671 71.1479 24.1201C71.3001 24.2814 71.3642 24.5045 71.3202 24.72C71.2763 24.9356 71.1296 25.1173 70.9259 25.2088C69.3522 25.9271 68.601 27.7073 69.197 29.3062C69.2746 29.512 69.247 29.7418 69.1227 29.9244C68.9985 30.1069 68.7927 30.22 68.5691 30.2287C66.8292 30.2972 65.4347 31.6648 65.3649 33.3713C65.3562 33.5909 65.2407 33.7931 65.0542 33.915C64.8678 34.0369 64.633 34.0638 64.423 33.9872C62.7925 33.4054 60.979 34.142 60.2453 35.6841C60.1558 35.8855 59.9703 36.0303 59.75 36.0706C59.5301 36.1157 59.3016 36.0527 59.1378 35.9018C57.8596 34.7494 55.8943 34.7494 54.616 35.9018C54.4521 36.0525 54.2237 36.1155 54.0038 36.0706C53.7833 36.0303 53.5973 35.8856 53.5072 35.6841C52.7749 34.1413 50.9607 33.4047 49.3309 33.9884C49.1208 34.065 48.8861 34.0382 48.6996 33.9163C48.5132 33.7944 48.3976 33.5922 48.3889 33.3726C48.3192 31.6657 46.9251 30.2972 45.1848 30.2274C44.9613 30.2192 44.7554 30.1063 44.6311 29.924C44.5068 29.7416 44.4791 29.5119 44.5568 29.3062C45.1542 27.7086 44.4053 25.9285 42.8332 25.2088ZM57.2632 49.3379L56.8769 49.7168V37.6052C57.0527 37.6047 57.2222 37.6696 57.3512 37.7868C57.96 38.3465 58.7632 38.658 59.5976 38.6578C59.8208 38.6574 60.0434 38.6358 60.2624 38.5934C61.3078 38.3933 62.1893 37.7084 62.6271 36.7561C62.781 36.4312 63.1633 36.2765 63.506 36.4005C63.9058 36.5394 64.3289 36.6019 64.7527 36.5847V49.7168L61.7403 46.7623C61.2273 46.2593 60.3957 46.2593 59.8827 46.7623L57.2632 49.3379ZM56.8769 62.6014L53.8645 59.647C53.3515 59.144 52.5199 59.144 52.0069 59.647L48.9946 62.6014V36.5821C49.4183 36.5994 49.8415 36.5369 50.2413 36.3979C50.5833 36.2732 50.9655 36.4276 51.1189 36.7522C51.5579 37.7069 52.4428 38.3927 53.4914 38.5908C53.741 38.6393 53.9952 38.6604 54.2495 38.654V52.8271C54.2496 53.3482 54.5697 53.8179 55.0605 54.0172C55.5513 54.2166 56.1163 54.1064 56.492 53.7381L56.8769 53.3605V62.6014ZM76.5828 52.8271C76.5828 54.9619 74.8183 56.6925 72.6416 56.6925H59.5044V50.7836L60.8181 49.4951L65.1442 53.7381C65.5199 54.1064 66.0849 54.2166 66.5757 54.0172C67.0665 53.8179 67.3866 53.3482 67.3867 52.8271V35.1841C67.7534 34.6792 67.9629 34.0808 67.9897 33.4615C68.0058 33.1041 68.2979 32.8181 68.6624 32.8031C69.7274 32.7628 70.7082 32.2244 71.3002 31.3551C71.8922 30.4859 72.0237 29.391 71.6537 28.4107C71.5283 28.0753 71.6859 27.7017 72.0163 27.5513C72.9853 27.1147 73.6821 26.2489 73.8901 25.2232C74.0981 24.1975 73.7921 23.1361 73.0673 22.3691C72.8203 22.1058 72.8203 21.7008 73.0673 21.4375C73.7922 20.6707 74.0982 19.6095 73.8901 18.5839C73.6821 17.5584 72.9852 16.6929 72.0163 16.2566C71.6849 16.1071 71.5265 15.7329 71.6524 15.3972C72.0224 14.4168 71.8909 13.322 71.2989 12.4527C70.7069 11.5835 69.7261 11.0451 68.661 11.0048C68.2966 10.9898 68.0045 10.7038 67.9884 10.3464C67.9486 9.30146 67.4003 8.33863 66.514 7.75737C65.6278 7.17611 64.5111 7.04692 63.5112 7.40997C63.1692 7.53663 62.7856 7.38175 62.6337 7.05564C62.1885 6.1053 61.3058 5.42189 60.2599 5.21786C59.2141 5.01384 58.1319 5.31394 57.3499 6.02487C57.0818 6.26687 56.6694 6.26687 56.4014 6.02487C55.6195 5.31392 54.5375 5.0138 53.4918 5.21784C52.4462 5.42188 51.5637 6.10534 51.1189 7.05564C50.9664 7.38194 50.5827 7.53718 50.24 7.41126C49.2401 7.0482 48.1234 7.1774 47.2372 7.75866C46.3509 8.33992 45.8026 9.30274 45.7628 10.3477C45.7468 10.7051 45.4546 10.991 45.0902 11.0061C44.0251 11.0464 43.0443 11.5848 42.4523 12.454C41.8603 13.3233 41.7289 14.4181 42.0988 15.3985C42.2242 15.7338 42.0666 16.1075 41.7362 16.2579C40.7673 16.6945 40.0704 17.5602 39.8624 18.5859C39.6544 19.6117 39.9604 20.673 40.6853 21.4401C40.9322 21.7034 40.9322 22.1083 40.6853 22.3716C39.9604 23.1384 39.6544 24.1996 39.8624 25.2252C40.0704 26.2508 40.7673 27.1163 41.7362 27.5526C42.0676 27.702 42.226 28.0763 42.1001 28.412C41.7302 29.3923 41.8616 30.4872 42.4536 31.3564C43.0456 32.2257 44.0265 32.7641 45.0915 32.8043C45.4559 32.8194 45.7481 33.1054 45.7641 33.4628C45.7912 34.0817 46.0007 34.6796 46.3671 35.1841V56.6925H6.95535C4.77869 56.6925 3.01417 54.9619 3.01417 52.8271V6.44233C3.01417 4.30753 4.77869 2.57693 6.95535 2.57693H72.6416C74.8183 2.57693 76.5828 4.30753 76.5828 6.44233V52.8271Z" fill="white"/>
<path d="M14.8382 46.3837C12.6615 46.3837 10.897 44.6531 10.897 42.5183V16.749C10.897 14.6142 12.6615 12.8836 14.8382 12.8836H38.4852C39.2108 12.8836 39.7989 12.3067 39.7989 11.5951C39.7989 10.8835 39.2108 10.3066 38.4852 10.3066H14.8382C11.2122 10.3109 8.27387 13.1927 8.26953 16.749V42.5183C8.27387 46.0745 11.2122 48.9564 14.8382 48.9606H39.7989C40.5245 48.9606 41.1127 48.3838 41.1127 47.6722C41.1127 46.9606 40.5245 46.3837 39.7989 46.3837H14.8382Z" fill="white"/>
<path d="M16.1516 30.9246H34.5438C35.2693 30.9246 35.8575 30.3477 35.8575 29.6361C35.8575 28.9245 35.2693 28.3477 34.5438 28.3477H16.1516C15.4261 28.3477 14.8379 28.9245 14.8379 29.6361C14.8379 30.3477 15.4261 30.9246 16.1516 30.9246Z" fill="white"/>
<path d="M16.1516 25.7703H34.5438C35.2693 25.7703 35.8575 25.1934 35.8575 24.4818C35.8575 23.7702 35.2693 23.1934 34.5438 23.1934H16.1516C15.4261 23.1934 14.8379 23.7702 14.8379 24.4818C14.8379 25.1934 15.4261 25.7703 16.1516 25.7703Z" fill="white"/>
<path d="M16.1516 20.614H34.5438C35.2693 20.614 35.8575 20.0372 35.8575 19.3256C35.8575 18.614 35.2693 18.0371 34.5438 18.0371H16.1516C15.4261 18.0371 14.8379 18.614 14.8379 19.3256C14.8379 20.0372 15.4261 20.614 16.1516 20.614Z" fill="white"/>
<path d="M14.9457 43.0347C15.1548 43.5045 15.6278 43.808 16.1504 43.8078C16.3313 43.8086 16.5103 43.7721 16.6759 43.7008C17.8922 43.2577 19.0099 42.5888 19.9681 41.7308C20.3238 41.3826 20.6348 40.9932 20.8943 40.5712C21.396 41.1243 21.9856 41.5942 22.6402 41.9627C23.5533 42.5482 24.6897 42.6907 25.7236 42.3492C26.1199 42.1983 26.4783 41.9654 26.7745 41.6664C27.369 42.0307 28.0239 42.2902 28.7096 42.433L29.7028 42.6636C31.73 43.246 33.8364 43.5198 35.9483 43.4754C36.4165 43.4422 36.831 43.1666 37.0359 42.7524C37.2407 42.3382 37.2046 41.8482 36.9413 41.4671C36.6779 41.0861 36.2273 40.8717 35.7591 40.9049C33.9162 40.9285 32.0805 40.6765 30.315 40.1576L29.2995 39.9218C28.0738 39.6447 27.7585 39.1603 27.6285 38.8188C27.3995 38.2193 26.7565 37.8756 26.1188 38.0118C25.481 38.1479 25.0419 38.7227 25.0877 39.3613C25.1024 39.5923 24.9908 39.8136 24.7947 39.9424C24.4878 39.9807 24.1776 39.9023 23.9277 39.7233C22.8652 39.0746 22.0663 38.0833 21.6681 36.9196C21.442 36.3205 20.8025 35.9742 20.1651 36.106C19.5277 36.2377 19.085 36.8077 19.1247 37.4453C19.1468 38.367 18.7787 39.2566 18.1079 39.9024C17.3784 40.5281 16.5364 41.0149 15.6249 41.3378C15.3053 41.4744 15.0542 41.7299 14.9268 42.0482C14.7994 42.3665 14.8062 42.7214 14.9457 43.0347Z" fill="white"/>
<path d="M56.877 32.2131C62.6814 32.2131 67.3868 27.5982 67.3868 21.9054C67.3868 16.2126 62.6814 11.5977 56.877 11.5977C51.0726 11.5977 46.3672 16.2126 46.3672 21.9054C46.3737 27.5955 51.0753 32.2067 56.877 32.2131ZM56.877 14.1746C61.2303 14.1746 64.7593 17.6358 64.7593 21.9054C64.7593 26.175 61.2303 29.6362 56.877 29.6362C52.5237 29.6362 48.9946 26.175 48.9946 21.9054C48.999 17.6375 52.5255 14.1788 56.877 14.1746Z" fill="white"/>
</svg>
