<svg width="68" height="68" viewBox="0 0 68 68" fill="none" xmlns="http://www.w3.org/2000/svg">
<path d="M33.9294 10.7716C30.562 10.7716 27.8223 13.5113 27.8223 16.8789C27.8223 20.2464 30.562 22.9861 33.9294 22.9861C37.2969 22.9861 40.0365 20.2464 40.0365 16.8789C40.0365 13.5113 37.2969 10.7716 33.9294 10.7716ZM33.9294 21.7647C31.2313 21.7647 29.0438 19.577 29.0438 16.8789C29.0438 14.1807 31.2313 11.9931 33.9294 11.9931C36.6275 11.9931 38.8151 14.1807 38.8151 16.8789C38.8151 19.577 36.6275 21.7647 33.9294 21.7647Z" stroke="white" stroke-width="1.3"/>
<path d="M49.8078 22.9861C49.8078 14.2149 42.7004 7.10726 33.9294 7.10726C25.1584 7.10726 18.051 14.2149 18.051 22.9861C18.051 29.1117 21.5223 34.4165 26.6009 37.0646V60.8511L32.708 66.9584L41.2579 55.9653L37.5937 52.3009V44.9722L41.2579 41.3079V37.0646C46.3366 34.4165 49.8078 29.1117 49.8078 22.9861ZM32.5932 65.1164L31.4866 64.0086V37.6435C31.4866 36.9705 32.035 36.4221 32.708 36.4221C33.381 36.4221 33.9294 36.9705 33.9294 37.6435V63.3978L32.5932 65.1164ZM40.6936 35.9824L40.0365 36.3244V40.8022L36.3723 44.4666V52.8066L39.631 56.0667L35.1508 61.8283V37.6435C35.1508 36.2963 34.0552 35.2006 32.708 35.2006C31.3608 35.2006 30.2652 36.2963 30.2652 37.6435V62.7883L27.8223 60.3454V36.3244L27.1652 35.9824C22.2967 33.443 19.2724 28.4631 19.2724 22.9861C19.2724 14.9038 25.8473 8.32871 33.9294 8.32871C42.0115 8.32871 48.5864 14.9038 48.5864 22.9861C48.5864 28.4631 45.5622 33.443 40.6936 35.9824Z" stroke="white" stroke-width="1.3"/>
<path d="M24.1581 6.06169L23.5474 5.00392C22.0304 5.8797 20.6856 6.93503 19.4825 8.10396L15.9538 2.22145H4.61542V1H0.951172V4.66435H4.61542V3.4429H15.2625L18.5933 8.99318C17.4757 10.2195 16.5377 11.5729 15.756 13.0032L12.2493 8.32871H9.50109V7.10726H5.83684V10.7716H9.50109V9.55016H11.6386L15.1196 14.1917L15.1514 14.1672C14.5602 15.4302 14.1034 16.7482 13.776 18.1003H9.82843L7.3856 14.436H4.61542V13.2145H0.951172V16.8789H4.61542V15.6574H6.73092L9.17375 19.3218H13.5098C13.2215 20.9255 13.1299 22.5647 13.2252 24.2076H9.12367L6.68084 29.0934H4.61542V27.8719H0.951172V31.5363H4.61542V30.3148H7.43567L9.87851 25.429H13.3156C13.6344 28.1504 14.493 30.8498 15.9477 33.3685L17.0055 32.7565C11.608 23.41 14.8106 11.4581 24.1581 6.06169ZM3.39401 3.4429H2.17259V2.22145H3.39401V3.4429ZM8.27967 9.55016H7.05826V8.32871H8.27967V9.55016ZM3.39401 15.6574H2.17259V14.436H3.39401V15.6574ZM3.39401 30.3148H2.17259V29.0934H3.39401V30.3148Z" stroke="white" stroke-width="1.3"/>
<path d="M66.9077 18.0992V14.4348H63.2434V15.6562H60.4232L57.9803 20.5421H54.5433C54.2245 17.8207 53.3658 15.1213 51.9111 12.6014L50.8534 13.2133C56.2508 22.5599 53.0483 34.513 43.7008 39.9082L44.3115 40.9659C45.8126 40.0999 47.1452 39.0568 48.3397 37.9025L51.8733 44.9711H63.2434V46.1925H66.9077V42.5282H63.2434V43.7496H52.6281L49.2509 36.995C50.3587 35.7821 51.2894 34.4446 52.0699 33.0302L55.5693 38.8638H58.3578V40.0853H62.022V36.4209H58.3578V37.6424H56.2606L52.7747 31.8319L52.6672 31.8967C53.2779 30.6056 53.7469 29.2559 54.0828 27.872H57.9803L60.4232 32.7578H63.2434V33.9792H66.9077V30.3149H63.2434V31.5363H61.178L58.7352 26.6505H54.3479C54.6373 25.0468 54.7277 23.4076 54.6337 21.7647H58.7352L61.178 16.8789H63.2434V18.1004L66.9077 18.0992ZM64.4648 15.655H65.6863V16.8765H64.4648V15.655ZM64.4648 43.7496L65.6863 43.7484V44.9699H64.4648V43.7496ZM59.5792 37.6411H60.8006V38.8626H59.5792V37.6411ZM64.4648 31.5351L65.6863 31.5339V32.7553H64.4648V31.5351Z" stroke="white" stroke-width="1.3"/>
</svg>
