<svg width="72" height="90" viewBox="0 0 72 90" fill="none" xmlns="http://www.w3.org/2000/svg">
<path d="M35.2328 16.5762C37.3565 17.4735 38.8448 19.5673 38.8448 22.0076C38.8448 25.2661 36.1867 27.9087 32.9076 27.9087C32.6952 27.9087 32.4864 27.8982 32.2793 27.8753V35.0028" stroke="white" stroke-width="2" stroke-miterlimit="10" stroke-linecap="round" stroke-linejoin="round"/>
<path d="M26.9688 25.5235V22.126C26.9688 19.7841 28.3314 17.7132 30.3064 16.7227" stroke="white" stroke-width="2" stroke-miterlimit="10" stroke-linecap="round" stroke-linejoin="round"/>
<path d="M26.9688 35.0035V31.6816" stroke="white" stroke-width="2" stroke-miterlimit="10" stroke-linecap="round" stroke-linejoin="round"/>
<path d="M30.3066 1V20.5765C30.3066 21.895 31.3258 23.0296 32.6505 23.0917C34.0648 23.1578 35.2325 22.0374 35.2325 20.6456V1.0007" stroke="white" stroke-width="2" stroke-miterlimit="10" stroke-linecap="round" stroke-linejoin="round"/>
<path d="M1.04688 67.9166V43.1746C1.04688 38.6597 4.72792 35 9.26728 35H22.5438H27.853H41.7419" stroke="white" stroke-width="2" stroke-miterlimit="10" stroke-linecap="round" stroke-linejoin="round"/>
<path d="M50.1304 35H62.7805C67.3198 35 71.0009 38.6597 71.0009 43.1746V80.27C71.0009 84.7813 67.3198 88.4411 62.7805 88.4411H9.26728C4.72792 88.4411 1.04688 84.7813 1.04688 80.27V74.0748" stroke="white" stroke-width="2" stroke-miterlimit="10" stroke-linecap="round" stroke-linejoin="round"/>
<path d="M40.7003 47.2594C44.4172 45.7948 47.0522 42.1848 47.0522 37.974H50.1549C51.1472 37.974 51.6843 36.8187 51.0413 36.0672L43.7934 27.5953C43.0919 26.7753 41.743 27.2685 41.743 28.345V37.8739C41.743 39.8732 40.5139 41.6329 38.7493 42.3439C37.7908 42.7301 37.1305 43.6147 37.1022 44.6425L37.0987 44.7725C37.0472 46.6493 38.9447 47.951 40.7003 47.2594Z" stroke="white" stroke-width="2" stroke-miterlimit="10" stroke-linecap="round" stroke-linejoin="round"/>
<path d="M71.0012 43.1797L62.043 50.4902" stroke="white" stroke-width="2" stroke-miterlimit="10" stroke-linecap="round" stroke-linejoin="round"/>
<path d="M1.04688 43.1797L29.7095 66.5739C33.3799 69.5686 38.6679 69.5686 42.3383 66.5739L57.2554 54.3982" stroke="white" stroke-width="2" stroke-miterlimit="10" stroke-linecap="round" stroke-linejoin="round"/>
<path d="M23.7715 61.7246L1.04688 80.2728" stroke="white" stroke-width="2" stroke-miterlimit="10" stroke-linecap="round" stroke-linejoin="round"/>
<path d="M71.0023 80.2728L48.2793 61.7246" stroke="white" stroke-width="2" stroke-miterlimit="10" stroke-linecap="round" stroke-linejoin="round"/>
</svg>
