<svg width="75" height="74" viewBox="0 0 75 74" fill="none" xmlns="http://www.w3.org/2000/svg">
<path d="M8.77099 26.9517C8.98457 27.1628 9.26496 27.2689 9.54536 27.2689C9.82575 27.2689 10.1062 27.1633 10.3203 26.9517C10.748 26.5289 10.748 25.8431 10.3203 25.4204L7.66025 22.7913L10.3203 20.1628C10.748 19.7395 10.748 19.0543 10.3203 18.6315C9.89257 18.2088 9.19872 18.2088 8.77099 18.6315L5.33657 22.026C5.13098 22.2291 5.01562 22.5046 5.01562 22.7913C5.01562 23.0786 5.13098 23.354 5.33657 23.5572L8.77099 26.9517Z" fill="white"/>
<path d="M19.6409 22.7919L16.9809 25.421C16.5532 25.8437 16.5532 26.5295 16.9815 26.9522C17.195 27.1633 17.4754 27.2694 17.7558 27.2694C18.0362 27.2694 18.3166 27.1633 18.5302 26.9522L21.9652 23.5572C22.3929 23.1345 22.3929 22.4487 21.9652 22.0265L18.5302 18.6315C18.1025 18.2088 17.4092 18.2088 16.9815 18.6315C16.5532 19.0548 16.5532 19.74 16.9815 20.1628L19.6409 22.7919Z" fill="white"/>
<path d="M12.0174 27.1946C12.1487 27.2454 12.2846 27.2697 12.4177 27.2697C12.8551 27.2697 13.268 27.0089 13.4376 26.5828L16.1359 19.7933C16.3575 19.2368 16.08 18.6086 15.5169 18.3896C14.9544 18.1712 14.3182 18.4449 14.0972 19.0015L11.3983 25.7909C11.1773 26.3474 11.4543 26.9762 12.0174 27.1946Z" fill="white"/>
<path d="M6.73008 33.6227H14.11C14.7148 33.6227 15.2053 33.1379 15.2053 32.5396C15.2053 31.9419 14.7148 31.457 14.11 31.457H6.73008C6.12474 31.457 5.63477 31.9419 5.63477 32.5396C5.63477 33.1379 6.12474 33.6227 6.73008 33.6227Z" fill="white"/>
<path d="M31.1072 31.457H18.1324C17.5277 31.457 17.0371 31.9419 17.0371 32.5396C17.0371 33.1379 17.5277 33.6227 18.1324 33.6227H31.1072C31.7125 33.6227 32.203 33.1379 32.203 32.5396C32.203 31.9419 31.7125 31.457 31.1072 31.457Z" fill="white"/>
<path d="M6.73008 38.1911H9.87382C10.4786 38.1911 10.9691 37.7062 10.9691 37.108C10.9691 36.5102 10.4786 36.0254 9.87382 36.0254H6.73008C6.12474 36.0254 5.63477 36.5102 5.63477 37.108C5.63477 37.7062 6.12474 38.1911 6.73008 38.1911Z" fill="white"/>
<path d="M27.0992 36.0254C26.4939 36.0254 26.0039 36.5102 26.0039 37.108C26.0039 37.7062 26.4939 38.1911 27.0992 38.1911H29.0134C29.6188 38.1911 30.1093 37.7062 30.1093 37.108C30.1093 36.5102 29.6188 36.0254 29.0134 36.0254H27.0992Z" fill="white"/>
<path d="M24.2169 37.108C24.2169 36.5102 23.7264 36.0254 23.1216 36.0254H13.7184C13.113 36.0254 12.623 36.5102 12.623 37.108C12.623 37.7062 13.113 38.1911 13.7184 38.1911H23.1216C23.7264 38.1911 24.2169 37.7062 24.2169 37.108Z" fill="white"/>
<path d="M31.3926 37.108C31.3926 37.7062 31.8831 38.1911 32.4879 38.1911H36.0736C36.679 38.1911 37.1695 37.7062 37.1695 37.108C37.1695 36.5102 36.679 36.0254 36.0736 36.0254H32.4879C31.8831 36.0254 31.3926 36.5102 31.3926 37.108Z" fill="white"/>
<path d="M25.426 23.6637H29.2082C29.8135 23.6637 30.3041 23.1789 30.3041 22.5806C30.3041 21.9829 29.8135 21.498 29.2082 21.498H25.426C24.8206 21.498 24.3301 21.9829 24.3301 22.5806C24.3301 23.1789 24.8206 23.6637 25.426 23.6637Z" fill="white"/>
<path d="M33.4435 23.6637H56.5211C57.1264 23.6637 57.6164 23.1789 57.6164 22.5806C57.6164 21.9829 57.1264 21.498 56.5211 21.498H33.4435C32.8382 21.498 32.3477 21.9829 32.3477 22.5806C32.3477 23.1789 32.8382 23.6637 33.4435 23.6637Z" fill="white"/>
<path d="M53.018 26.2637H43.6695C43.0648 26.2637 42.5742 26.7485 42.5742 27.3468C42.5742 27.9445 43.0648 28.4294 43.6695 28.4294H53.018C53.6227 28.4294 54.1133 27.9445 54.1133 27.3468C54.1133 26.7485 53.6227 26.2637 53.018 26.2637Z" fill="white"/>
<path d="M40.1642 26.2637H36.9508C36.3454 26.2637 35.8555 26.7485 35.8555 27.3468C35.8555 27.9445 36.3454 28.4294 36.9508 28.4294H40.1642C40.7695 28.4294 41.2595 27.9445 41.2595 27.3468C41.2595 26.7485 40.7695 26.2637 40.1642 26.2637Z" fill="white"/>
<path d="M25.426 28.4294H33.2982C33.9029 28.4294 34.3935 27.9445 34.3935 27.3468C34.3935 26.7485 33.9029 26.2637 33.2982 26.2637H25.426C24.8206 26.2637 24.3301 26.7485 24.3301 27.3468C24.3301 27.9445 24.8206 28.4294 25.426 28.4294Z" fill="white"/>
<path d="M23.1335 40.5527H15.7541C15.1488 40.5527 14.6582 41.0376 14.6582 41.6353C14.6582 42.233 15.1488 42.7179 15.7541 42.7179H23.1335C23.7382 42.7179 24.2288 42.233 24.2288 41.6353C24.2288 41.0376 23.7382 40.5527 23.1335 40.5527Z" fill="white"/>
<path d="M12.3997 40.5527H6.73008C6.12474 40.5527 5.63477 41.0376 5.63477 41.6353C5.63477 42.233 6.12474 42.7179 6.73008 42.7179H12.3997C13.005 42.7179 13.495 42.233 13.495 41.6353C13.495 41.0376 13.005 40.5527 12.3997 40.5527Z" fill="white"/>
<path d="M36.5129 40.5527H26.8727C26.2673 40.5527 25.7773 41.0376 25.7773 41.6353C25.7773 42.233 26.2673 42.7179 26.8727 42.7179H36.5129C37.1177 42.7179 37.6082 42.233 37.6082 41.6353C37.6082 41.0376 37.1177 40.5527 36.5129 40.5527Z" fill="white"/>
<path d="M49.5485 34.9922H44.277C43.6722 34.9922 43.1816 35.477 43.1816 36.0747C43.1816 36.673 43.6722 37.1579 44.277 37.1579H49.5485C50.1538 37.1579 50.6438 36.673 50.6438 36.0747C50.6438 35.477 50.1538 34.9922 49.5485 34.9922Z" fill="white"/>
<path d="M58.6969 37.1579H66.1385C66.7438 37.1579 67.2344 36.673 67.2344 36.0747C67.2344 35.477 66.7438 34.9922 66.1385 34.9922H58.6969C58.0915 34.9922 57.6016 35.477 57.6016 36.0747C57.6016 36.673 58.0921 37.1579 58.6969 37.1579Z" fill="white"/>
<path d="M54.9749 34.9922H53.2697C52.6644 34.9922 52.1738 35.477 52.1738 36.0747C52.1738 36.673 52.6644 37.1579 53.2697 37.1579H54.9749C55.5803 37.1579 56.0702 36.673 56.0702 36.0747C56.0702 35.477 55.5803 34.9922 54.9749 34.9922Z" fill="white"/>
<path d="M44.277 48.9561H49.5485C50.1538 48.9561 50.6438 48.4719 50.6438 47.8736C50.6438 47.2759 50.1538 46.791 49.5485 46.791H44.277C43.6722 46.791 43.1816 47.2759 43.1816 47.8736C43.1816 48.4719 43.6722 48.9561 44.277 48.9561Z" fill="white"/>
<path d="M58.6969 48.9561H66.1385C66.7438 48.9561 67.2344 48.4719 67.2344 47.8736C67.2344 47.2759 66.7438 46.791 66.1385 46.791H58.6969C58.0915 46.791 57.6016 47.2759 57.6016 47.8736C57.6016 48.4719 58.0921 48.9561 58.6969 48.9561Z" fill="white"/>
<path d="M53.2711 48.9561H54.9763C55.5816 48.9561 56.0722 48.4719 56.0722 47.8736C56.0722 47.2759 55.5816 46.791 54.9763 46.791H53.2711C52.6658 46.791 52.1758 47.2759 52.1758 47.8736C52.1758 48.4719 52.6658 48.9561 53.2711 48.9561Z" fill="white"/>
<path d="M49.5485 58.5879H44.277C43.6722 58.5879 43.1816 59.0727 43.1816 59.6705C43.1816 60.2682 43.6722 60.753 44.277 60.753H49.5485C50.1538 60.753 50.6438 60.2682 50.6438 59.6705C50.6438 59.0727 50.1538 58.5879 49.5485 58.5879Z" fill="white"/>
<path d="M66.1385 58.5879H58.6969C58.0915 58.5879 57.6016 59.0727 57.6016 59.6705C57.6016 60.2682 58.0915 60.753 58.6969 60.753H66.1385C66.7438 60.753 67.2344 60.2682 67.2344 59.6705C67.2344 59.0727 66.7438 58.5879 66.1385 58.5879Z" fill="white"/>
<path d="M54.9749 58.5879H53.2697C52.6644 58.5879 52.1738 59.0727 52.1738 59.6705C52.1738 60.2682 52.6644 60.753 53.2697 60.753H54.9749C55.5803 60.753 56.0702 60.2682 56.0702 59.6705C56.0702 59.0727 55.5803 58.5879 54.9749 58.5879Z" fill="white"/>
<path d="M70.1808 0H4.97194C2.31361 0 0.150391 2.13747 0.150391 4.76542V57.1534C0.150391 59.7808 2.31361 61.9183 4.97194 61.9183H9.0945C9.69927 61.9183 10.1898 61.434 10.1898 60.8357C10.1898 60.238 9.69927 59.7531 9.0945 59.7531H4.97194C3.52142 59.7531 2.34159 58.587 2.34159 57.1534V53.0461H42.252V54.9121H41.3834C40.195 54.9121 39.2288 55.8671 39.2288 57.0416V59.7531H15.7549C15.1501 59.7531 14.6596 60.238 14.6596 60.8357C14.6596 61.434 15.1501 61.9183 15.7549 61.9183H26.2877V65.8015H22.9801C20.7735 65.8015 18.9786 67.576 18.9786 69.7564V72.0954C18.9786 73.0904 19.7975 73.8998 20.8043 73.8998H54.2645C55.2713 73.8998 56.0902 73.0904 56.0902 72.0954V69.7564C56.0902 67.576 54.2953 65.8015 52.0887 65.8015H48.7811V64.4328H69.033C70.2208 64.4328 71.187 63.4778 71.187 62.3032V61.7935C73.3223 61.3036 74.9184 59.41 74.9184 57.1534L75.0012 4.76485C75.0018 2.13747 72.8391 0 70.1808 0ZM41.42 50.4684V45.2785H68.9964V50.4684H41.42ZM44.4426 43.1128V40.8348H65.9732V43.1128H44.4426ZM65.9732 52.6335V54.9121H44.4426V52.6335H65.9732ZM28.4784 61.9183H39.2288V62.3038C39.2288 63.4778 40.195 64.4328 41.3834 64.4328H46.5904V65.8015H28.4784V61.9183ZM52.0893 67.9672C53.0875 67.9672 53.8996 68.7698 53.8996 69.7564V71.7347H21.1692V69.7564C21.1692 68.7698 21.9819 67.9672 22.9801 67.9672H52.0893ZM68.9964 62.2671H41.42V57.0778H68.9964V62.2671ZM72.7278 57.1534C72.7278 58.2021 72.095 59.1057 71.1876 59.5161V57.0411C71.1876 55.8671 70.2208 54.9121 69.033 54.9121H68.1644V53.0461H72.7278V57.1534ZM72.7278 50.881H71.1516C71.1739 50.7585 71.1876 45.2424 71.1876 45.2424C71.1876 44.0678 70.2208 43.1128 69.033 43.1128H68.1644V40.8348H69.033C70.2208 40.8348 71.1876 39.8793 71.1876 38.7053V33.4431C71.1876 32.2692 70.2208 31.3136 69.033 31.3136H62.8454C62.2401 31.3136 61.7501 31.7984 61.7501 32.3967C61.7501 32.9944 62.2401 33.4793 62.8454 33.4793H68.9964V38.6691H41.42V33.4793H56.0291C56.6344 33.4793 57.1244 32.9944 57.1244 32.3967C57.1244 31.7984 56.6344 31.3136 56.0291 31.3136H41.3834C40.195 31.3136 39.2288 32.2692 39.2288 33.4431V38.7053C39.2288 39.8793 40.195 40.8348 41.3834 40.8348H42.252V43.1128H41.3834C40.195 43.1128 39.2288 44.0684 39.2288 45.2424C39.2288 45.2424 39.2425 50.7585 39.2647 50.881H2.34159V14.728H72.7278V50.881ZM72.7278 12.5623H2.42211V4.76485C2.42211 3.33178 3.60194 2.16569 5.05246 2.16569H70.0974C71.548 2.16569 72.7278 3.33178 72.7278 4.76542V12.5623Z" fill="white"/>
<path d="M8.23018 4.15234C6.45758 4.15234 5.01562 5.57751 5.01562 7.32948C5.01562 9.08144 6.45758 10.5072 8.23018 10.5072C10.0028 10.5072 11.4453 9.08144 11.4453 7.32948C11.4453 5.57751 10.0028 4.15234 8.23018 4.15234ZM8.23018 8.34149C7.66596 8.34149 7.20625 7.88769 7.20625 7.32948C7.20625 6.77183 7.66596 6.31747 8.23018 6.31747C8.79497 6.31747 9.25411 6.77183 9.25411 7.32948C9.25411 7.88769 8.79497 8.34149 8.23018 8.34149Z" fill="white"/>
<path d="M16.4163 4.15234C14.6437 4.15234 13.2012 5.57751 13.2012 7.32948C13.2012 9.08144 14.6437 10.5072 16.4163 10.5072C18.1889 10.5072 19.6309 9.08144 19.6309 7.32948C19.6309 5.57751 18.1883 4.15234 16.4163 4.15234ZM16.4163 8.34149C15.8515 8.34149 15.3924 7.88769 15.3924 7.32948C15.3924 6.77183 15.8515 6.31747 16.4163 6.31747C16.9805 6.31747 17.4402 6.77183 17.4402 7.32948C17.4402 7.88769 16.9805 8.34149 16.4163 8.34149Z" fill="white"/>
<path d="M24.5993 4.15234C22.8267 4.15234 21.3848 5.57751 21.3848 7.32948C21.3848 9.08144 22.8267 10.5072 24.5993 10.5072C26.3719 10.5072 27.8145 9.08144 27.8145 7.32948C27.8145 5.57751 26.3719 4.15234 24.5993 4.15234ZM24.5993 8.34149C24.0351 8.34149 23.5754 7.88769 23.5754 7.32948C23.5754 6.77183 24.0351 6.31747 24.5993 6.31747C25.1641 6.31747 25.6233 6.77183 25.6233 7.32948C25.6233 7.88769 25.1641 8.34149 24.5993 8.34149Z" fill="white"/>
</svg>
