<svg width="81" height="79" viewBox="0 0 81 79" fill="none" xmlns="http://www.w3.org/2000/svg">
<path d="M54.0717 39.8933L27.8372 65.9766L13.7891 52.0095L48.8106 17.1898L62.8586 31.1568L57.9371 36.0501" stroke="white" stroke-width="2" stroke-miterlimit="10" stroke-linecap="round" stroke-linejoin="round"/>
<path d="M27.8372 65.9766L13.7891 52.0095L33.96 31.9547L48.008 45.922L27.8372 65.9766Z" stroke="white" stroke-width="2" stroke-miterlimit="10" stroke-linecap="round" stroke-linejoin="round"/>
<path d="M27.8391 65.9757L13.791 52.0087L10.601 55.1801C9.63038 56.1453 9.63038 57.7098 10.601 58.675L10.7572 63.6465C10.8488 66.5601 13.2032 68.901 16.1337 68.9921L21.134 69.1473C22.1047 70.1124 23.6785 70.1124 24.6492 69.1473L27.8391 65.9757Z" stroke="white" stroke-width="2" stroke-miterlimit="10" stroke-linecap="round" stroke-linejoin="round"/>
<path d="M69.5971 26.3149L53.6781 10.4875C53.0866 9.89935 52.1277 9.89935 51.536 10.4875L47.8753 14.1272C47.2838 14.7153 47.2838 15.6688 47.8753 16.2569L63.7943 32.0843C64.3858 32.6724 65.3448 32.6724 65.9363 32.0843L69.5971 28.4446C70.1887 27.8564 70.1887 26.903 69.5971 26.3149Z" stroke="white" stroke-width="2" stroke-miterlimit="10" stroke-linecap="round" stroke-linejoin="round"/>
<path d="M67.4877 17.0375L63.8776 20.627L59.3965 16.1716L66.8784 8.73287L71.3595 13.188" stroke="white" stroke-width="2" stroke-miterlimit="10" stroke-linecap="round" stroke-linejoin="round"/>
<path d="M78.3347 11.9059L68.1695 1.79935C67.0972 0.73313 65.3588 0.73313 64.2866 1.79935L64.0366 2.04771C62.9644 3.11377 62.9644 4.84217 64.0366 5.90824L74.2018 16.0149C75.2739 17.081 77.0125 17.081 78.0847 16.0149L78.3347 15.7664C79.4069 14.7003 79.4069 12.9719 78.3347 11.9059Z" stroke="white" stroke-width="2" stroke-miterlimit="10" stroke-linecap="round" stroke-linejoin="round"/>
<path d="M1.69336 78L12.3794 67.3757" stroke="white" stroke-width="2" stroke-miterlimit="10" stroke-linecap="round" stroke-linejoin="round"/>
<path d="M47.9115 27.0938L43.3789 22.5873" stroke="white" stroke-width="2" stroke-miterlimit="10" stroke-linecap="round" stroke-linejoin="round"/>
<path d="M43.257 31.7207L38.7246 27.2143" stroke="white" stroke-width="2" stroke-miterlimit="10" stroke-linecap="round" stroke-linejoin="round"/>
<path d="M34.0775 40.8496L29.5449 36.3432" stroke="white" stroke-width="2" stroke-miterlimit="10" stroke-linecap="round" stroke-linejoin="round"/>
<path d="M21.7832 18.4669L24.4901 21.1582" stroke="white" stroke-width="2" stroke-miterlimit="10" stroke-linecap="round" stroke-linejoin="round"/>
<path d="M30.3262 18.3398V14.0296" stroke="white" stroke-width="2" stroke-miterlimit="10" stroke-linecap="round" stroke-linejoin="round"/>
<path d="M21.6968 26.9199H17.3613" stroke="white" stroke-width="2" stroke-miterlimit="10" stroke-linecap="round" stroke-linejoin="round"/>
<path d="M27.8379 56.4689C27.8379 55.8109 28.3742 55.2777 29.036 55.2777C29.6978 55.2777 30.2344 55.8109 30.2344 56.4689C30.2344 57.1269 29.6978 57.6602 29.036 57.6602C28.3742 57.6602 27.8379 57.1269 27.8379 56.4689Z" fill="white"/>
<path d="M31.8105 52.6427C31.8105 51.9849 32.3471 51.4515 33.0087 51.4515C33.6705 51.4515 34.207 51.9849 34.207 52.6427C34.207 53.3007 33.6705 53.834 33.0087 53.834C32.3471 53.834 31.8105 53.3007 31.8105 52.6427Z" fill="white"/>
</svg>
