<svg width="74" height="72" viewBox="0 0 74 72" fill="none" xmlns="http://www.w3.org/2000/svg">
<path d="M57.6369 13.6487H53.8336V9.87399C53.8336 8.86574 53.0097 8.04809 51.9938 8.04809C50.978 8.04809 50.1541 8.86574 50.1541 9.87399V13.6487H46.3508C45.3349 13.6487 44.5111 14.4664 44.5111 15.4746C44.5111 16.4829 45.3349 17.3005 46.3508 17.3005H50.1541V21.0753C50.1541 22.0841 50.978 22.9012 51.9938 22.9012C53.0097 22.9012 53.8336 22.0835 53.8336 21.0753V17.3005H57.6369C58.6528 17.3005 59.4766 16.4829 59.4766 15.4746C59.4766 14.4664 58.6534 13.6487 57.6369 13.6487Z" fill="#5F5FED"/>
<path d="M25.806 19.9185H22.8046V16.9397C22.8046 16.1437 22.1546 15.4987 21.3527 15.4987C20.5507 15.4987 19.9008 16.1437 19.9008 16.9397V19.9185H16.8994C16.0975 19.9185 15.4475 20.5635 15.4475 21.3595C15.4475 22.1554 16.0975 22.8004 16.8994 22.8004H19.9008V25.7792C19.9008 26.5752 20.5507 27.2202 21.3527 27.2202C22.1546 27.2202 22.8046 26.5752 22.8046 25.7792V22.8004H25.806C26.6079 22.8004 27.2578 22.1554 27.2578 21.3595C27.2578 20.5641 26.6079 19.9185 25.806 19.9185Z" fill="#5F5FED"/>
<path d="M51.9938 30.9503C60.5914 30.9503 67.5862 24.0081 67.5862 15.4752C67.5862 6.94228 60.5914 0 51.9938 0C43.3963 0 36.4008 6.94166 36.4008 15.4746C36.4008 24.0081 43.3963 30.9503 51.9938 30.9503ZM51.9938 1.24169C59.902 1.24169 66.3351 7.62708 66.3351 15.4752C66.3351 23.3239 59.902 29.7087 51.9938 29.7087C44.0857 29.7087 37.6519 23.3233 37.6519 15.4746C37.6519 7.62645 44.0857 1.24169 51.9938 1.24169Z" fill="#5F5FED"/>
<path d="M21.3527 33.7025C28.2099 33.7025 33.7886 28.1658 33.7886 21.3601C33.7886 14.5544 28.2099 9.01771 21.3527 9.01771C14.4954 9.01771 8.91681 14.5544 8.91681 21.3601C8.91681 28.1658 14.4954 33.7025 21.3527 33.7025ZM21.3527 10.2594C27.52 10.2594 32.5375 15.2392 32.5375 21.3601C32.5375 27.481 27.52 32.4608 21.3527 32.4608C15.1854 32.4608 10.1679 27.481 10.1679 21.3601C10.1673 15.2392 15.1848 10.2594 21.3527 10.2594Z" fill="#5F5FED"/>
<path d="M73.086 25.0201C72.4192 24.2825 71.4621 23.8535 70.4606 23.8429C70.4487 23.8429 70.4381 23.8429 70.4262 23.8429C68.6665 23.8429 67.1427 25.197 66.8737 27.0068L65.2379 38.0001C64.2427 37.8765 63.2455 38.1894 62.5043 38.8848L57.1371 43.9149C55.8128 45.1559 54.3184 46.202 52.6957 47.0234L51.0955 47.8336C49.5217 48.6271 48.1824 49.6353 47.1139 50.8298C43.4144 54.9516 44.5661 61.3687 44.6168 61.64C44.6806 61.9765 45.0065 62.1987 45.3455 62.1366C45.6852 62.0739 45.9091 61.7505 45.8472 61.4134C45.8353 61.3525 44.7613 55.3185 48.0498 51.6549C49.0137 50.5771 50.2292 49.6639 51.6635 48.9406L53.2643 48.1298C54.9933 47.2544 56.5853 46.14 57.996 44.8182L63.3631 39.7881C63.9449 39.243 64.7825 39.0735 65.5482 39.343C65.8653 39.4559 66.1449 39.6379 66.3783 39.8831C66.7705 40.2959 66.9776 40.8355 66.9619 41.4023C66.9456 41.9691 66.7073 42.4962 66.292 42.8855L56.7198 51.8567C56.469 52.092 56.4571 52.485 56.6948 52.7346C56.8174 52.8637 56.9832 52.9289 57.1496 52.9289C57.3035 52.9289 57.458 52.873 57.5793 52.7594L67.1515 43.7882C67.8102 43.1711 68.1867 42.336 68.213 41.4377C68.2387 40.5393 67.9109 39.6844 67.2885 39.0313C67.0445 38.7743 66.7567 38.5607 66.4452 38.3918L68.1123 27.1893C68.2925 25.9787 69.3077 25.0778 70.4487 25.0859C71.1099 25.0927 71.7154 25.364 72.1558 25.8501C72.5962 26.3375 72.8033 26.9633 72.7401 27.6084C72.7401 27.6084 70.7853 45.4831 70.6064 47.0867C70.4124 48.7922 69.7913 51.1912 67.9321 52.9339C65.5963 55.1236 61.4784 58.2551 59.2314 59.9277C58.1373 60.7428 57.4843 62.041 57.4843 63.4013V70.1375C57.4843 70.4795 57.204 70.7583 56.8587 70.7583H46.4828C46.1375 70.7583 45.8572 70.4795 45.8572 70.1375V68.8244C45.8572 68.4817 45.5776 68.2035 45.2317 68.2035C44.8857 68.2035 44.6061 68.4817 44.6061 68.8244V70.1375C44.6061 71.1643 45.4481 72 46.4828 72H56.8568C57.8915 72 58.7335 71.1643 58.7335 70.1375V63.4013C58.7335 62.4297 59.1995 61.5021 59.9802 60.921C62.2484 59.2329 66.4077 56.0685 68.7891 53.8366C70.9241 51.8356 71.631 49.1374 71.8487 47.2246C72.0276 45.6203 73.9824 27.7431 73.9831 27.7363C74.0806 26.7485 73.7535 25.7589 73.086 25.0201Z" fill="#5F5FED"/>
<path d="M45.2317 67.1934C45.5776 67.1934 45.8572 66.9153 45.8572 66.5725V63.8563C45.8572 63.5136 45.5776 63.2355 45.2317 63.2355C44.8857 63.2355 44.6061 63.5136 44.6061 63.8563V66.5725C44.6061 66.9153 44.8857 67.1934 45.2317 67.1934Z" fill="#5F5FED"/>
<path d="M22.9059 47.8349L21.3045 47.024C19.6812 46.202 18.1874 45.1559 16.8631 43.9155L11.4959 38.8854C10.754 38.19 9.75378 37.8771 8.76166 38.0007L7.12585 27.0074C6.85687 25.1976 5.33304 23.8436 3.574 23.8436C3.56211 23.8436 3.55085 23.8436 3.53897 23.8436C2.53747 23.8535 1.58038 24.2831 0.913548 25.0207C0.246089 25.7589 -0.0810713 26.7485 0.0171396 27.7418C0.0171396 27.7418 1.97197 45.6191 2.15088 47.2246C2.36732 49.1355 3.07419 51.8337 5.20981 53.8353C7.58501 56.0617 11.7486 59.2292 14.0188 60.9192C14.8001 61.5009 15.2661 62.4278 15.2661 63.4V70.1362C15.2661 71.1631 16.1081 71.9987 17.1427 71.9987H27.5174C28.5521 71.9987 29.3941 71.1631 29.3941 70.1362V61.581C29.5167 60.8738 30.4419 54.7914 26.8869 50.831C25.8178 49.6353 24.4773 48.6271 22.9059 47.8349ZM28.1536 61.4133C28.1467 61.4506 28.143 61.4891 28.143 61.5263V70.1362C28.143 70.4783 27.8621 70.7571 27.5174 70.7571H17.1427C16.7981 70.7571 16.5172 70.4783 16.5172 70.1362V63.4C16.5172 62.0392 15.8641 60.7403 14.77 59.9264C12.5212 58.252 8.40009 55.1174 6.06931 52.9326C4.20893 51.1887 3.58839 48.7903 3.39509 47.0867C3.21619 45.4825 1.26198 27.6139 1.26198 27.6139C1.19755 26.9633 1.4046 26.3362 1.84499 25.8495C2.28475 25.3634 2.8909 25.0915 3.55211 25.0852C4.68872 25.0604 5.70837 25.978 5.88852 27.1887L7.55498 38.3899C7.24471 38.5576 6.96009 38.7693 6.71174 39.0307C5.42812 40.3797 5.48942 42.5142 6.84874 43.7882L16.4209 52.7594C16.5416 52.873 16.6961 52.9289 16.8506 52.9289C17.0164 52.9289 17.1821 52.8637 17.3054 52.7346C17.5425 52.4856 17.5312 52.0926 17.2797 51.8567L7.70761 42.8855C6.84999 42.0815 6.8112 40.7349 7.62129 39.8837C7.85524 39.6378 8.13424 39.4559 8.45139 39.3429H8.45201C9.21831 39.0729 10.0553 39.243 10.6371 39.7881L16.0042 44.8182C17.4142 46.1399 19.0062 47.2544 20.7353 48.1298L22.3379 48.9412C23.7704 49.6632 24.9858 50.5765 25.9517 51.6562C29.2389 55.3185 28.1649 61.3531 28.1536 61.4133Z" fill="#5F5FED"/>
<path d="M37.0001 31.5668C31.3189 31.5668 26.6967 36.1542 26.6967 41.7928C26.6967 47.4313 31.3189 52.0187 37.0001 52.0187C42.6813 52.0187 47.3041 47.4313 47.3041 41.7928C47.3041 36.1542 42.6813 31.5668 37.0001 31.5668ZM37.0001 50.777C32.0089 50.777 27.9478 46.7465 27.9478 41.7928C27.9478 36.839 32.0089 32.8085 37.0001 32.8085C41.9913 32.8085 46.053 36.839 46.053 41.7928C46.053 46.7465 41.9913 50.777 37.0001 50.777Z" fill="#5F5FED"/>
<path d="M40.6495 40.612H38.1899V38.1708C38.1899 37.5189 37.6569 36.99 37.0001 36.99C36.3433 36.99 35.8103 37.5189 35.8103 38.1708V40.612H33.3507C32.6938 40.612 32.1609 41.1409 32.1609 41.7928C32.1609 42.4447 32.6938 42.9737 33.3507 42.9737H35.8103V45.4148C35.8103 46.0667 36.3433 46.5957 37.0001 46.5957C37.6569 46.5957 38.1899 46.0667 38.1899 45.4148V42.9737H40.6495C41.3064 42.9737 41.8393 42.4447 41.8393 41.7928C41.8393 41.1403 41.3064 40.612 40.6495 40.612Z" fill="#5F5FED"/>
</svg>
