<svg width="90" height="48" viewBox="0 0 90 48" fill="none" xmlns="http://www.w3.org/2000/svg">
<path d="M88.9299 22.8055C88.7279 22.5801 83.8959 17.2221 76.0475 11.8009C66.8091 5.41946 55.8298 0.757812 44.6929 0.757812C33.5544 0.757812 22.5751 5.42071 13.3383 11.8009C5.48972 17.2221 0.657701 22.5801 0.455868 22.8055C-0.151956 23.4843 -0.151956 24.5117 0.455868 25.1907C0.657701 25.4161 5.48972 30.7739 13.3383 36.1954C20.5071 41.1471 31.6059 47.0294 44.0443 47.2291C44.4996 47.2416 44.8858 47.2416 45.3415 47.2291C57.7799 47.0294 68.8787 41.1471 76.0475 36.1954C83.8959 30.7741 88.7281 25.4161 88.9299 25.1907C89.5378 24.5117 89.5378 23.4843 88.9299 22.8055ZM64.3578 23.9981C64.3578 34.8336 55.5427 43.663 44.6929 43.663C33.8592 43.663 25.028 34.8497 25.028 23.9981C25.028 13.1626 33.8429 4.33324 44.6929 4.33324C55.5268 4.33324 64.3578 13.1465 64.3578 23.9981ZM4.26192 23.9974C6.0895 22.1545 10.0164 18.441 15.3704 14.7428C18.7671 12.3966 23.0909 9.82868 28.0158 7.83002C19.2582 16.8608 19.27 31.147 28.0151 40.1657C23.12 38.179 18.822 35.6319 15.4432 33.3037C10.0656 29.5983 6.10165 25.8513 4.26192 23.9974ZM74.0154 33.2535C70.6187 35.5995 66.2951 38.1672 61.3703 40.166C70.1276 31.1352 70.1158 16.8492 61.3709 7.83055C66.266 9.81707 70.564 12.3642 73.9426 14.6923C79.3201 18.3979 83.2841 22.1448 85.1239 23.9987C83.2965 25.842 79.3694 29.5552 74.0154 33.2535Z" fill="white"/>
<path d="M35.7544 23.9972C35.7544 28.9259 39.7642 32.9358 44.693 32.9358C49.6217 32.9358 53.6316 28.9259 53.6316 23.9972C53.6316 19.0684 49.6217 15.0586 44.693 15.0586C39.7642 15.0586 35.7544 19.0684 35.7544 23.9972ZM50.0561 23.9972C50.0561 26.9544 47.6502 29.3603 44.693 29.3603C41.7357 29.3603 39.3298 26.9544 39.3298 23.9972C39.3298 21.0399 41.7357 18.634 44.693 18.634C47.6502 18.634 50.0561 21.0399 50.0561 23.9972Z" fill="white"/>
</svg>
