<svg width="123" height="118" viewBox="0 0 123 118" fill="none" xmlns="http://www.w3.org/2000/svg">
<path d="M21.5552 21.4043C23.5803 19.0884 25.7894 16.939 28.1593 14.9788" stroke="#12006C" stroke-width="3" stroke-miterlimit="10" stroke-linecap="round" stroke-linejoin="round"/>
<path d="M8.91614 46.1113C10.3458 39.8998 12.7866 34.0767 16.0547 28.8265" stroke="#12006C" stroke-width="3" stroke-miterlimit="10" stroke-linecap="round" stroke-linejoin="round"/>
<path d="M27.8039 102.721C15.368 92.2642 7.45935 76.5581 7.45935 58.9972C7.45935 58.3301 7.47084 57.6657 7.49335 57.0045" stroke="#12006C" stroke-width="3" stroke-miterlimit="10" stroke-linecap="round" stroke-linejoin="round"/>
<path d="M91.7393 108.872C83.5901 113.414 74.2106 116 64.2297 116C54.2827 116 44.9334 113.431 36.8036 108.919" stroke="#12006C" stroke-width="3" stroke-miterlimit="10" stroke-linecap="round" stroke-linejoin="round"/>
<path d="M112.368 28.7669C117.837 37.5298 121 47.893 121 58.9979C121 76.5333 113.115 92.2193 100.71 102.676" stroke="#12006C" stroke-width="3" stroke-miterlimit="10" stroke-linecap="round" stroke-linejoin="round"/>
<path d="M99.7969 14.5648C101.898 16.2625 103.876 18.1076 105.716 20.084" stroke="#12006C" stroke-width="3" stroke-miterlimit="10" stroke-linecap="round" stroke-linejoin="round"/>
<path d="M37.1584 8.88281C45.205 4.49144 54.4274 1.99681 64.2299 1.99681C73.7808 1.99681 82.7811 4.36511 90.6796 8.54858" stroke="#12006C" stroke-width="3" stroke-miterlimit="10" stroke-linecap="round" stroke-linejoin="round"/>
<path d="M68.9838 21.9238C75.3779 17.9478 82.4217 14.8227 89.9913 12.7368" stroke="#12006C" stroke-width="3" stroke-miterlimit="10" stroke-linecap="round" stroke-linejoin="round"/>
<path d="M45.7218 43.9043C49.8121 38.1042 54.6645 32.8391 60.1699 28.2745" stroke="#12006C" stroke-width="3" stroke-miterlimit="10" stroke-linecap="round" stroke-linejoin="round"/>
<path d="M31.5247 100.346C29.4811 83.6513 32.712 67.356 40.0103 53.2938" stroke="#12006C" stroke-width="3" stroke-miterlimit="10" stroke-linecap="round" stroke-linejoin="round"/>
<path d="M59.4755 21.9238C52.8652 17.8133 45.5606 14.6124 37.6985 12.5286" stroke="#12006C" stroke-width="3" stroke-miterlimit="10" stroke-linecap="round" stroke-linejoin="round"/>
<path d="M90.5394 57.6309C85.4892 46.303 77.8806 36.2257 68.2902 28.2741" stroke="#12006C" stroke-width="3" stroke-miterlimit="10" stroke-linecap="round" stroke-linejoin="round"/>
<path d="M96.6707 78.6895C96.1317 75.0469 95.3421 71.4422 94.311 67.9073" stroke="#12006C" stroke-width="3" stroke-miterlimit="10" stroke-linecap="round" stroke-linejoin="round"/>
<path d="M96.9011 100.615C97.3759 96.8359 97.5871 93.0242 97.528 89.2154" stroke="#12006C" stroke-width="3" stroke-miterlimit="10" stroke-linecap="round" stroke-linejoin="round"/>
<path d="M37.5242 47.4543C29.3459 47.4126 21.0444 48.2895 12.7479 50.1602" stroke="#12006C" stroke-width="3" stroke-miterlimit="10" stroke-linecap="round" stroke-linejoin="round"/>
<path d="M87.8726 60.0176C75.6973 53.6397 62.3204 49.5228 48.4045 48.0557" stroke="#12006C" stroke-width="3" stroke-miterlimit="10" stroke-linecap="round" stroke-linejoin="round"/>
<path d="M116.418 81.4707C110.637 75.4398 104.212 70.1072 97.2872 65.5582" stroke="#12006C" stroke-width="3" stroke-miterlimit="10" stroke-linecap="round" stroke-linejoin="round"/>
<path d="M95.3629 57.9453C100.718 49.3317 104.94 39.8927 107.8 29.8175" stroke="#12006C" stroke-width="3" stroke-miterlimit="10" stroke-linecap="round" stroke-linejoin="round"/>
<path d="M37.5244 104.121C58.0485 97.0485 76.0089 84.0263 89.1547 66.9098" stroke="#12006C" stroke-width="3" stroke-miterlimit="10" stroke-linecap="round" stroke-linejoin="round"/>
<path d="M64.2298 30.0957C61.2193 30.0957 58.7704 27.6367 58.7704 24.6138C58.7704 21.5912 61.2193 19.1322 64.2298 19.1322C67.2402 19.1322 69.6892 21.5912 69.6892 24.6138C69.6892 27.6367 67.2402 30.0957 64.2298 30.0957Z" stroke="#12006C" stroke-width="3" stroke-miterlimit="10" stroke-linecap="round" stroke-linejoin="round"/>
<path d="M42.9838 54.1797C39.9734 54.1797 37.5244 51.7205 37.5244 48.6978C37.5244 45.6752 39.9734 43.216 42.9838 43.216C45.9943 43.216 48.4432 45.6752 48.4432 48.6978C48.4432 51.7205 45.9943 54.1797 42.9838 54.1797Z" stroke="#12006C" stroke-width="3" stroke-miterlimit="10" stroke-linecap="round" stroke-linejoin="round"/>
<path d="M92.636 68.1758C89.6256 68.1758 87.1766 65.7166 87.1766 62.6939C87.1766 59.6713 89.6256 57.2121 92.636 57.2121C95.6465 57.2121 98.0954 59.6713 98.0954 62.6939C98.0954 65.7166 95.6465 68.1758 92.636 68.1758Z" stroke="#12006C" stroke-width="3" stroke-miterlimit="10" stroke-linecap="round" stroke-linejoin="round"/>
<path d="M32.3432 111.244C29.3328 111.244 26.8838 108.785 26.8838 105.762C26.8838 102.74 29.3328 100.281 32.3432 100.281C35.3536 100.281 37.8028 102.74 37.8028 105.762C37.8028 108.785 35.3536 111.244 32.3432 111.244Z" stroke="#12006C" stroke-width="3" stroke-miterlimit="10" stroke-linecap="round" stroke-linejoin="round"/>
<path d="M96.4319 111.557C93.4215 111.557 90.9725 109.097 90.9725 106.075C90.9725 103.052 93.4215 100.593 96.4319 100.593C99.4424 100.593 101.892 103.052 101.892 106.075C101.892 109.097 99.4424 111.557 96.4319 111.557Z" stroke="#12006C" stroke-width="3" stroke-miterlimit="10" stroke-linecap="round" stroke-linejoin="round"/>
<path d="M109.161 29.8203C106.15 29.8203 103.701 27.3611 103.701 24.3384C103.701 21.3158 106.15 18.8566 109.161 18.8566C112.171 18.8566 114.62 21.3158 114.62 24.3384C114.62 27.3611 112.171 29.8203 109.161 29.8203Z" stroke="#12006C" stroke-width="3" stroke-miterlimit="10" stroke-linecap="round" stroke-linejoin="round"/>
<path d="M95.3006 16.9453C92.2901 16.9453 89.8412 14.4863 89.8412 11.4635C89.8412 8.44081 92.2901 5.98183 95.3006 5.98183C98.311 5.98183 100.76 8.44081 100.76 11.4635C100.76 14.4863 98.311 16.9453 95.3006 16.9453Z" stroke="#12006C" stroke-width="3" stroke-miterlimit="10" stroke-linecap="round" stroke-linejoin="round"/>
<path d="M32.3432 16.9453C29.3328 16.9453 26.8838 14.4863 26.8838 11.4635C26.8838 8.44081 29.3328 5.98183 32.3432 5.98183C35.3536 5.98183 37.8028 8.44081 37.8028 11.4635C37.8028 14.4863 35.3536 16.9453 32.3432 16.9453Z" stroke="#12006C" stroke-width="3" stroke-miterlimit="10" stroke-linecap="round" stroke-linejoin="round"/>
<path d="M7.45941 57.0039C4.44896 57.0039 2 54.5449 2 51.522C2 48.4994 4.44896 46.0404 7.45941 46.0404C10.4699 46.0404 12.9188 48.4994 12.9188 51.522C12.9188 54.5449 10.4699 57.0039 7.45941 57.0039Z" stroke="#12006C" stroke-width="3" stroke-miterlimit="10" stroke-linecap="round" stroke-linejoin="round"/>
</svg>
