<svg width="118" height="118" viewBox="0 0 118 118" fill="none" xmlns="http://www.w3.org/2000/svg">
<path d="M75.225 117.999H44.6188C43.5125 117.999 42.775 117.077 42.775 116.155V107.674C42.775 106.568 43.6969 105.83 44.6188 105.83C45.5406 105.83 46.4625 106.752 46.4625 107.674V114.311H73.1969V107.674C73.1969 106.568 74.1188 105.83 75.0406 105.83C75.9625 105.83 76.8844 106.752 76.8844 107.674V116.155C77.0688 117.261 76.1469 117.999 75.225 117.999Z" fill="#12006C"/>
<path d="M83.7063 118H36.1376C35.0313 118 34.2938 117.078 34.2938 116.156C34.2938 115.234 35.2157 114.312 36.1376 114.312H83.7063C84.8126 114.312 85.5501 115.234 85.5501 116.156C85.5501 117.078 84.6282 118 83.7063 118Z" fill="#12006C"/>
<path d="M116.156 81.8625H3.6875C2.58125 81.8625 1.84375 80.9406 1.84375 80.0187V42.775C1.84375 41.6687 2.76562 40.9312 3.6875 40.9312C4.60938 40.9312 5.53125 41.8531 5.53125 42.775V77.9906H114.312V24.1531C114.312 21.0187 111.731 18.4375 108.597 18.4375H48.3063C47.2 18.4375 46.4625 17.5156 46.4625 16.5937C46.4625 15.6719 47.3844 14.75 48.3063 14.75H108.597C113.759 14.75 118 18.9906 118 24.1531V80.0187C118 80.9406 117.078 81.8625 116.156 81.8625Z" fill="#12006C"/>
<path d="M108.597 101.959H11.0625C5.9 101.959 1.84375 97.7184 1.84375 92.5559V79.834C1.84375 78.7277 2.76562 77.9902 3.6875 77.9902H116.156C117.262 77.9902 118 78.9121 118 79.834V92.5559C118 97.7184 113.759 101.959 108.597 101.959ZM5.53125 81.8621V92.5559C5.53125 95.6902 8.1125 98.2715 11.2469 98.2715H108.781C111.916 98.2715 114.497 95.6902 114.497 92.5559V81.8621H5.53125Z" fill="#12006C"/>
<path d="M59.9219 95.6895C56.7875 95.6895 54.3906 93.1082 54.3906 90.1582C54.3906 87.0238 56.9719 84.627 59.9219 84.627C63.0562 84.627 65.4531 87.2082 65.4531 90.1582C65.4531 93.1082 63.0562 95.6895 59.9219 95.6895ZM59.9219 88.1301C58.8156 88.1301 58.0781 89.0519 58.0781 89.9738C58.0781 91.0801 59 91.8176 59.9219 91.8176C61.0281 91.8176 61.7656 90.8957 61.7656 89.9738C61.7656 89.0519 60.8438 88.1301 59.9219 88.1301Z" fill="#12006C"/>
<path d="M61.0281 73.3824H58.6312C56.6031 73.3824 54.7594 71.9074 54.3906 69.8793L53.8375 66.1918C53.8375 66.0074 53.6531 65.823 53.4687 65.823C52.9156 65.6387 52.3625 65.4543 51.8094 65.0855C51.625 65.0855 51.4406 64.9012 51.2562 65.0855L48.3063 67.298C46.6469 68.5887 44.25 68.4043 42.775 66.9293L41.1156 65.0855C39.6406 63.6105 39.4563 61.398 40.7469 59.7387L42.9594 56.7887C43.1437 56.6043 43.1437 56.4199 42.9594 56.2355C42.775 55.6824 42.4062 55.1293 42.2219 54.5762C42.2219 54.5762 42.0375 54.3918 41.8531 54.2074L38.1656 53.6543C36.5063 53.4699 35.0312 51.6262 35.0312 49.598V47.0168C35.0312 44.9887 36.5062 43.1449 38.5344 42.7762L42.2219 42.223C42.4062 42.223 42.5906 42.0387 42.5906 41.8543C42.775 41.3012 42.9594 40.748 43.3281 40.1949C43.3281 40.0105 43.3281 39.8262 43.3281 39.8262L40.9313 36.8762C39.6406 35.2168 39.825 33.0043 41.3 31.5293L42.9594 29.6855C44.4344 28.2105 46.8312 28.0262 48.4906 29.3168L51.4406 31.5293C51.625 31.7137 51.8094 31.5293 51.9937 31.5293C52.5469 31.3449 53.1 30.9762 53.6531 30.7918C53.8375 30.7918 54.0219 30.6074 54.0219 30.423L54.575 26.7355C54.9437 24.7074 56.6031 23.2324 58.8156 23.2324H61.2125C63.2406 23.2324 65.0844 24.7074 65.4531 26.7355L66.0062 30.423C66.0062 30.6074 66.1906 30.7918 66.375 30.7918C66.9281 30.9762 67.4813 31.1605 68.0344 31.5293H68.5875L71.5375 29.3168C73.1969 28.2105 75.5937 28.2105 77.0687 29.6855L78.7281 31.5293C80.2031 33.0043 80.3875 35.2168 79.0969 36.8762L76.8844 39.8262C76.7 40.0105 76.7 40.1949 76.8844 40.3793C77.0687 40.9324 77.4375 41.4855 77.6219 42.0387C77.6219 42.223 77.8062 42.4074 77.9906 42.4074L81.6781 42.9605C83.7062 43.3293 85.1812 44.9887 85.1812 47.2012V49.7824C85.1812 51.8105 83.7062 53.6543 81.6781 54.023L77.9906 54.5762C77.8062 54.5762 77.6219 54.7605 77.6219 54.9449C77.4375 55.498 77.2531 56.0512 76.8844 56.6043V56.973L79.0969 59.923C80.3875 61.5824 80.2031 63.7949 78.7281 65.2699L77.0687 67.1137C75.5937 68.5887 73.1969 68.773 71.5375 67.4824L68.2187 65.0855C68.0344 64.9012 67.85 64.9012 67.6656 65.0855C67.1125 65.2699 66.5594 65.6387 66.0062 65.823C65.8219 65.823 65.8219 66.0074 65.8219 66.1918L65.2688 69.8793C64.9 71.9074 63.2406 73.3824 61.0281 73.3824ZM51.8094 61.398C52.3625 61.398 53.1 61.5824 53.6531 61.7668C54.0219 61.9512 54.575 62.1355 54.9437 62.3199C56.4187 62.873 57.3406 64.1637 57.7094 65.6387L58.2625 69.3262C58.2625 69.5105 58.4469 69.6949 58.6312 69.6949H61.0281C61.2125 69.6949 61.3969 69.5105 61.3969 69.3262L61.95 65.6387C62.1344 64.1637 63.2406 62.873 64.7156 62.3199C65.2687 62.1355 65.6375 61.9512 66.0062 61.7668C67.2969 61.2137 69.1406 61.2137 70.2469 62.1355L73.1969 64.348C73.3812 64.5324 73.5656 64.5324 73.75 64.348L75.4094 62.5043C75.5938 62.3199 75.5938 62.1355 75.4094 61.9512L73.5656 59.0012C72.6437 57.7105 72.4594 56.2355 73.1969 54.7605C73.3812 54.3918 73.5656 53.8387 73.75 53.4699C74.3031 51.9949 75.5937 50.8887 77.0687 50.7043L80.5719 50.1512C80.7562 50.1512 80.9406 49.9668 80.9406 49.7824V47.2012C80.9406 47.0168 80.7562 46.8324 80.5719 46.8324L76.8844 46.2793C75.4094 46.0949 74.1188 44.9887 73.5656 43.5137C73.3812 42.9605 73.1969 42.5918 73.0125 42.223C72.275 40.748 72.4594 39.0887 73.3812 37.9824L75.5937 35.0324C75.7781 34.848 75.7781 34.6637 75.5937 34.4793L73.9344 32.8199C73.75 32.6355 73.5656 32.6355 73.3812 32.8199L70.4312 35.0324C69.325 35.9543 67.4813 36.1387 66.1906 35.4012C65.8219 35.2168 65.2687 35.0324 64.9 34.848C63.425 34.2949 62.5031 33.0043 62.1344 31.5293L61.5813 27.8418C61.5813 27.6574 61.3969 27.473 61.2125 27.473H58.8156C58.6312 27.473 58.4469 27.6574 58.4469 27.8418L57.8937 31.5293C57.7094 33.0043 56.6031 34.2949 55.1281 34.848C54.7594 35.0324 54.2062 35.2168 53.8375 35.4012C52.5469 35.9543 50.7031 35.9543 49.5969 35.0324L46.6469 32.8199C46.4625 32.6355 46.2781 32.6355 46.0937 32.8199L44.4344 34.6637C44.25 34.848 44.25 35.0324 44.4344 35.2168L46.6469 38.1668C47.5687 39.4574 47.7531 40.9324 47.0156 42.4074C46.8312 42.7762 46.6469 43.3293 46.4625 43.698C45.9094 45.173 44.6187 46.2793 43.1437 46.4637L39.6406 47.0168C39.4562 47.0168 39.2719 47.2012 39.2719 47.3855V49.9668C39.2719 50.1512 39.4562 50.3355 39.6406 50.3355L43.3281 50.8887C44.8031 51.073 46.0937 52.1793 46.6469 53.6543C46.8312 54.2074 47.0156 54.5762 47.2 54.9449C47.9375 56.4199 47.7531 58.0793 46.8312 59.1855L44.6188 62.1355C44.4344 62.3199 44.4344 62.5043 44.6188 62.6887L46.2781 64.348C46.4625 64.5324 46.6469 64.5324 46.8312 64.348L49.7812 62.1355C49.9656 61.5824 50.8875 61.398 51.8094 61.398Z" fill="#12006C"/>
<path d="M59.9219 58.8156C54.0219 58.8156 49.4125 54.0219 49.4125 48.3063C49.4125 42.5906 54.2062 37.7969 59.9219 37.7969C65.8219 37.7969 70.4312 42.5906 70.4312 48.3063C70.4312 54.0219 65.6375 58.8156 59.9219 58.8156ZM59.9219 41.4844C56.2344 41.4844 53.1 44.6188 53.1 48.3063C53.1 51.9938 56.2344 55.1281 59.9219 55.1281C63.6094 55.1281 66.7437 51.9938 66.7437 48.3063C66.7437 44.6188 63.6094 41.4844 59.9219 41.4844Z" fill="#12006C"/>
<path d="M22.8625 44.0656H20.8344C18.9906 44.0656 17.3312 42.5906 16.9625 40.7469L16.4094 37.6125C15.8562 37.2437 15.3031 37.0594 14.75 36.875L12.1687 38.7188C10.5094 39.825 8.29688 39.6406 7.00625 38.35L5.71562 36.875C4.425 35.5844 4.24062 33.3719 5.34688 31.8969L7.19063 29.3156C7.00625 28.7625 6.82187 28.2094 6.6375 27.6562L3.31875 27.1031C1.475 26.7344 0 25.075 0 23.2313V21.0187C0 19.175 1.475 17.5156 3.31875 17.1469L6.45312 16.5938L6.6375 16.4094C6.82187 15.8562 7.00625 15.4875 7.19063 14.9344L5.34688 12.1687C4.24062 10.5094 4.425 8.48125 5.71562 7.19063L7.19063 5.71562C8.48125 4.425 10.6937 4.24062 12.3531 5.34688L14.9344 7.19063C15.4875 7.00625 16.0406 6.82187 16.5938 6.6375L17.1469 3.31875C17.5156 1.475 19.175 0 21.0187 0H23.0469C24.8906 0 26.55 1.475 26.9188 3.31875L27.4719 6.45312L27.6562 6.6375C28.2094 6.82187 28.5781 7.00625 29.1313 7.19063L31.8969 5.34688C33.3719 4.24062 35.7687 4.425 37.0594 5.71562L38.5344 7.19063C39.825 8.48125 40.0094 10.6937 38.9031 12.1687L37.0594 14.75C37.2438 15.3031 37.4281 15.8562 37.6125 16.4094L40.9313 16.9625C42.775 17.3312 44.25 18.9906 44.25 20.8344V23.0469C44.25 25.075 42.775 26.55 40.9313 26.9188L37.7969 27.4719C37.4281 28.025 37.2438 28.5781 37.0594 29.1313L38.9031 31.8969C40.0094 33.3719 39.825 35.5844 38.5344 36.875L37.0594 38.35C35.7687 39.6406 33.3719 39.825 31.8969 38.7188L29.3156 36.875C28.7625 37.0594 28.2094 37.2437 27.6562 37.4281L27.1031 40.7469C26.55 42.775 24.8906 44.0656 22.8625 44.0656ZM14.9344 33.1875C15.4875 33.1875 16.0406 33.3719 16.5938 33.5563C16.9625 33.7406 17.3313 33.925 17.7 34.1094C18.9906 34.6625 19.9125 35.7688 20.2812 37.2438L20.8344 40.3781L23.0469 40.5625C23.0469 40.5625 23.2313 40.5625 23.2313 40.3781L23.7844 37.2438C23.9688 35.7688 24.8906 34.6625 26.3656 34.1094C26.7344 33.925 27.1031 33.7406 27.4719 33.7406C28.7625 33.0031 30.4219 33.1875 31.5281 34.1094L34.1094 35.9531H34.2938L35.7687 34.4781V34.2938L33.925 31.7125C33.0031 30.6063 33.0031 29.1313 33.5563 27.6562C33.7406 27.2875 33.925 26.9187 34.1094 26.55C34.6625 25.2594 35.7688 24.1531 37.2438 23.9688L40.1937 23.4156L40.3781 23.2313V21.0187L40.1937 20.8344L36.6906 20.2812C35.2156 20.0969 34.1094 19.175 33.5563 17.7C33.5563 17.3313 33.3719 16.9625 33.1875 16.5938C32.6344 15.3031 32.6344 13.6438 33.5563 12.5375L35.4 9.95625V9.77188L33.925 8.29688H33.7406L31.1594 10.1406C30.0531 11.0625 28.3937 11.0625 27.1031 10.5094C26.7344 10.325 26.3656 10.1406 25.9969 9.95625C24.7063 9.40312 23.7844 8.29688 23.4156 6.82188L22.8625 3.6875H20.8344C20.8344 3.6875 20.65 3.6875 20.65 3.87187L20.0969 7.00625C19.9125 8.48125 18.9906 9.5875 17.5156 10.1406C17.3312 10.325 16.9625 10.325 16.5938 10.5094C15.3031 11.2469 13.6438 11.0625 12.5375 10.1406L9.95625 8.29688H9.77188L8.29688 9.77188V9.95625L10.1406 12.5375C11.0625 13.8281 11.2469 15.3031 10.5094 16.5938C10.325 16.9625 10.1406 17.3313 10.1406 17.7C9.5875 18.9906 8.48125 20.0969 7.00625 20.2812L3.87187 20.8344L3.6875 21.0187V23.2313L3.87187 23.4156L7.00625 23.9688C8.48125 24.1531 9.5875 25.075 10.1406 26.55L10.6938 27.6562C11.2469 28.9469 11.2469 30.6063 10.325 31.7125L8.48125 34.2938V34.4781L9.95625 35.9531L11.0625 37.2438L9.95625 35.7687L12.5375 33.925C13.275 33.3719 14.0125 33.1875 14.9344 33.1875Z" fill="#12006C"/>
<path d="M21.9406 31.3426C16.5937 31.3426 12.5375 27.2863 12.5375 22.1238C12.5375 16.9613 16.5937 12.7207 21.9406 12.7207C27.2875 12.7207 31.3437 16.777 31.3437 22.1238C31.3437 27.4707 27.1031 31.3426 21.9406 31.3426ZM21.9406 16.4082C18.8062 16.4082 16.225 18.9895 16.225 22.1238C16.225 25.2582 18.8062 27.8395 21.9406 27.8395C25.075 27.8395 27.6562 25.2582 27.6562 22.1238C27.4719 18.9895 24.8906 16.4082 21.9406 16.4082Z" fill="#12006C"/>
</svg>
