<svg width="124" height="124" viewBox="0 0 124 124" fill="none" xmlns="http://www.w3.org/2000/svg">
<path d="M61.5739 34.002C56.0361 34.002 50.6227 35.6441 46.0182 38.7207C41.4138 41.7973 37.825 46.1702 35.7058 51.2865C33.5866 56.4027 33.0321 62.0324 34.1125 67.4638C35.1928 72.8951 37.8595 77.8841 41.7753 81.7999C45.6911 85.7157 50.6801 88.3824 56.1115 89.4628C61.5428 90.5431 67.1726 89.9887 72.2888 87.8694C77.405 85.7502 81.7779 82.1615 84.8545 77.557C87.9312 72.9525 89.5733 67.5391 89.5733 62.0014C89.565 54.578 86.6124 47.4611 81.3633 42.212C76.1142 36.9629 68.9972 34.0103 61.5739 34.002ZM65.8394 76.1407V85.5989C63.0184 86.1352 60.1214 86.1348 57.3005 85.5976V76.1407C57.3006 75.767 57.196 75.4008 56.9985 75.0836C56.8011 74.7663 56.5187 74.5108 56.1834 74.3458C54.285 73.4221 52.6561 72.0257 51.4533 70.2907C50.2504 68.5558 49.5139 66.5406 49.3146 64.4389C49.1153 62.3371 49.46 60.2195 50.3153 58.2894C51.1707 56.3593 52.5081 54.6816 54.199 53.4175V64.0013C54.199 64.264 54.2507 64.5241 54.3511 64.7668C54.4516 65.0094 54.5989 65.2299 54.7847 65.4157C54.9704 65.6014 55.1909 65.7487 55.4336 65.8492C55.6762 65.9497 55.9363 66.0013 56.199 66.0013H66.939C67.2017 66.0013 67.4618 65.9497 67.7044 65.8492C67.9471 65.7487 68.1676 65.6014 68.3534 65.4157C68.5391 65.2299 68.6864 65.0094 68.7869 64.7668C68.8874 64.5241 68.939 64.264 68.939 64.0013V53.3951C70.6359 54.6576 71.9788 56.3361 72.8382 58.2687C73.6975 60.2014 74.0443 62.3228 73.8451 64.4285C73.6458 66.5341 72.9073 68.5529 71.7007 70.29C70.4941 72.0272 68.8602 73.424 66.9566 74.3458C66.6213 74.5108 66.3389 74.7663 66.1414 75.0836C65.944 75.4008 65.8394 75.767 65.8394 76.1407ZM69.8393 84.5033V77.333C72.4685 75.7926 74.6133 73.5461 76.0302 70.8483C77.4472 68.1506 78.0796 65.1097 77.8557 62.0707C77.6317 59.0317 76.5605 56.1164 74.7634 53.6554C72.9664 51.1945 70.5156 49.2865 67.689 48.1481C67.3854 48.0253 67.0564 47.979 66.7307 48.0131C66.4051 48.0472 66.0928 48.1608 65.8213 48.3438C65.5498 48.5268 65.3273 48.7737 65.1735 49.0627C65.0197 49.3518 64.9392 49.6742 64.9391 50.0016V62.0014H58.199V50.0212C58.1988 49.6937 58.1183 49.3713 57.9645 49.0823C57.8107 48.7932 57.5882 48.5464 57.3167 48.3634C57.0452 48.1803 56.7329 48.0668 56.4073 48.0327C56.0816 47.9986 55.7526 48.0449 55.449 48.1677C52.6277 49.3088 50.1821 51.2169 48.3891 53.676C46.5962 56.1351 45.5274 59.047 45.3038 62.0822C45.0802 65.1173 45.7108 68.1544 47.1241 70.8497C48.5373 73.545 50.6769 75.7909 53.3006 77.3331V84.5005C48.0093 82.5574 43.5708 78.8138 40.7632 73.926C37.9555 69.0382 36.9579 63.3181 37.9452 57.7685C38.9324 52.2188 41.8416 47.1937 46.1627 43.5741C50.4838 39.9545 55.9411 37.9714 61.5779 37.9723C67.2146 37.9733 72.6712 39.9583 76.9911 43.5794C81.311 47.2004 84.2185 52.2265 85.2038 57.7765C86.1892 63.3265 85.1897 69.0462 82.3804 73.9331C79.571 78.8199 75.1313 82.562 69.8393 84.5033Z" fill="#12006C"/>
<path d="M96.4872 73.0897C96.5877 72.7029 96.8104 72.359 97.1223 72.1091C97.4341 71.8592 97.8183 71.7168 98.2177 71.703H100.815C101.279 71.703 101.729 71.5416 102.087 71.2466C102.445 70.9516 102.689 70.5412 102.778 70.0858C103.838 64.7494 103.838 59.2566 102.778 53.9202C102.689 53.4648 102.445 53.0544 102.087 52.7594C101.729 52.4644 101.279 52.3031 100.815 52.303H98.2177C97.8185 52.2893 97.4343 52.147 97.1225 51.8973C96.8107 51.6476 96.5879 51.3039 96.4872 50.9173C95.8556 48.9345 95.0558 47.0093 94.0967 45.1626C93.8934 44.8175 93.8073 44.416 93.8513 44.018C93.8954 43.6199 94.0671 43.2469 94.3408 42.9546L96.1884 41.108C96.5164 40.7796 96.7201 40.3476 96.7646 39.8856C96.8091 39.4237 96.6918 38.9607 96.4326 38.5758C93.3988 34.0603 89.5164 30.1775 85.0012 27.1434C84.6161 26.8849 84.1533 26.7681 83.6917 26.8128C83.2301 26.8575 82.7983 27.061 82.47 27.3885L80.6224 29.2361C80.3297 29.5096 79.9566 29.6811 79.5585 29.7251C79.1604 29.7691 78.7587 29.6832 78.4134 29.4803C76.5671 28.5209 74.6421 27.7212 72.6596 27.0897C72.273 26.9891 71.9294 26.7663 71.6798 26.4544C71.4303 26.1426 71.2882 25.7584 71.2748 25.3593V22.7617C71.275 22.2977 71.1137 21.848 70.8186 21.4899C70.5236 21.1318 70.1131 20.8875 69.6577 20.7988C64.3201 19.7441 58.8276 19.7441 53.49 20.7988C53.0345 20.8875 52.6241 21.1318 52.3291 21.4899C52.034 21.848 51.8727 22.2977 51.8728 22.7617V25.3593C51.8595 25.7584 51.7174 26.1426 51.4679 26.4544C51.2183 26.7663 50.8746 26.9891 50.4881 27.0897C48.5055 27.7212 46.5806 28.5209 44.7342 29.4803C44.3889 29.6831 43.9873 29.7689 43.5892 29.7249C43.1912 29.6809 42.818 29.5095 42.5253 29.2361L40.6777 27.3885C40.3494 27.0609 39.9176 26.8574 39.456 26.8127C38.9944 26.768 38.5315 26.8849 38.1465 27.1434C33.6313 30.1775 29.7488 34.0603 26.7151 38.5758C26.4559 38.9607 26.3385 39.4237 26.383 39.8856C26.4276 40.3476 26.6312 40.7796 26.9592 41.108L28.8068 42.9536C29.0806 43.2463 29.2523 43.6197 29.2963 44.018C29.3403 44.4163 29.2542 44.8182 29.051 45.1636C28.0921 47.0098 27.2923 48.9343 26.6604 50.9164C26.5599 51.3031 26.3372 51.6471 26.0254 51.897C25.7135 52.1469 25.3293 52.2893 24.93 52.3031H22.3325C21.8686 52.3031 21.419 52.4644 21.0609 52.7595C20.7028 53.0545 20.4585 53.4648 20.3697 53.9202C19.3098 59.2567 19.3098 64.7495 20.3697 70.0859C20.4585 70.5413 20.7028 70.9516 21.0609 71.2467C21.419 71.5417 21.8686 71.703 22.3325 71.7031H24.9301C25.3293 71.7168 25.7135 71.8591 26.0253 72.1088C26.3371 72.3585 26.5599 72.7022 26.6606 73.0888C27.2921 75.0709 28.0919 76.9955 29.0511 78.8416C29.2544 79.1869 29.3405 79.5888 29.2965 79.9871C29.2525 80.3855 29.0808 80.7589 28.807 81.0515L26.9594 82.8982C26.6314 83.2265 26.4277 83.6586 26.3832 84.1205C26.3387 84.5824 26.456 85.0454 26.7152 85.4303C29.749 89.9458 33.6314 93.8286 38.1466 96.8627C38.5314 97.1221 38.9944 97.2396 39.4563 97.1948C39.9181 97.1501 40.35 96.946 40.6778 96.6176L42.5255 94.77C42.8185 94.4972 43.1916 94.3261 43.5895 94.2821C43.9874 94.2381 44.3889 94.3236 44.7344 94.5259C46.5807 95.4852 48.5057 96.285 50.4883 96.9164C50.8748 97.017 51.2185 97.2398 51.468 97.5517C51.7176 97.8635 51.8596 98.2477 51.873 98.6469V101.244C51.873 101.708 52.0344 102.158 52.3294 102.516C52.6244 102.874 53.0348 103.119 53.4902 103.207C58.8273 104.267 64.3207 104.267 69.6578 103.207C70.1132 103.119 70.5236 102.874 70.8186 102.516C71.1136 102.158 71.275 101.708 71.275 101.244V98.6468C71.2884 98.2476 71.4304 97.8634 71.68 97.5516C71.9295 97.2397 72.2732 97.0169 72.6597 96.9163C74.6423 96.2849 76.5673 95.4851 78.4136 94.5258C78.7591 94.3235 79.1606 94.238 79.5585 94.2819C79.9564 94.3259 80.3296 94.497 80.6225 94.7699L82.4702 96.6175C82.7983 96.9454 83.2301 97.1492 83.6918 97.1939C84.1535 97.2386 84.6164 97.1215 85.0014 96.8626C89.5166 93.8285 93.399 89.9457 96.4328 85.4303C96.692 85.0453 96.8093 84.5823 96.7648 84.1204C96.7203 83.6585 96.5166 83.2264 96.1886 82.8981L94.341 81.0524C94.0671 80.7596 93.8954 80.3859 93.8517 79.9873C93.8081 79.5887 93.8948 79.1867 94.0988 78.8415C95.0566 76.9955 95.8557 75.0712 96.4872 73.0897ZM92.6748 71.8777C92.113 73.6416 91.4021 75.3544 90.5499 76.9977C89.954 78.0975 89.726 79.3592 89.8993 80.5979C90.0725 81.8367 90.638 82.9874 91.5127 83.8814L92.1709 84.5376C89.9048 87.6157 87.1867 90.3338 84.1086 92.6L83.4504 91.9418C82.5571 91.0669 81.407 90.5012 80.1688 90.3275C78.9305 90.1539 77.6692 90.3815 76.5697 90.9769C74.9264 91.8304 73.2131 92.5419 71.4487 93.1038C70.2533 93.4627 69.2038 94.194 68.4531 95.191C67.7023 96.188 67.2896 97.3987 67.275 98.6467V99.5627C63.4967 100.147 59.6511 100.147 55.8729 99.5627V98.6467C55.8583 97.3987 55.4455 96.188 54.6948 95.191C53.944 94.194 52.8945 93.4627 51.6991 93.1038C49.9347 92.5419 48.2215 91.8304 46.5781 90.9769C45.4785 90.3819 44.2173 90.1545 42.9792 90.3281C41.741 90.5017 40.5909 91.0672 39.6974 91.9418L39.0392 92.599C35.9614 90.333 33.2433 87.6152 30.9769 84.5376L31.6351 83.8804C32.5092 82.9865 33.0745 81.8364 33.2485 80.5983C33.4224 79.3602 33.1958 78.0989 32.6019 76.9987C31.7467 75.3556 31.0344 73.642 30.473 71.8768C30.114 70.6815 29.3827 69.6321 28.3858 68.8814C27.3888 68.1306 26.1781 67.7178 24.9302 67.7031H24.0142C23.4282 63.9256 23.4282 60.0804 24.0142 56.3029H24.9302C26.1782 56.2882 27.389 55.8753 28.386 55.1243C29.3831 54.3734 30.1142 53.3237 30.473 52.1282C31.0348 50.3632 31.747 48.6496 32.6019 47.0063C33.1958 45.9061 33.4223 44.6449 33.2484 43.4068C33.0744 42.1687 32.5091 41.0186 31.6351 40.1247L30.9769 39.4684C33.2433 36.3908 35.9614 33.6731 39.0392 31.4071L39.6974 32.0643C40.5913 32.9381 41.7413 33.5032 42.9793 33.6768C44.2173 33.8503 45.4783 33.6234 46.5781 33.0291C48.2215 32.1757 49.9347 31.4641 51.6991 30.9022C52.8945 30.5433 53.944 29.8121 54.6948 28.8151C55.4455 27.818 55.8583 26.6073 55.8729 25.3593V24.4434C59.6511 23.8594 63.4967 23.8594 67.275 24.4434V25.3593C67.2896 26.6073 67.7023 27.818 68.4531 28.8151C69.2038 29.8121 70.2533 30.5433 71.4487 30.9022C73.2131 31.4641 74.9264 32.1757 76.5697 33.0291C77.6694 33.6238 78.9305 33.851 80.1686 33.6774C81.4067 33.5038 82.5567 32.9385 83.4504 32.0643L84.1086 31.4071C87.1865 33.6731 89.9045 36.3908 92.1709 39.4684L91.5127 40.1256C90.6382 41.0191 90.0727 42.1692 89.8991 43.4074C89.7255 44.6455 89.9528 45.9067 90.5479 47.0063C91.4013 48.65 92.1128 50.3635 92.6748 52.1282C93.0338 53.3235 93.7651 54.374 94.7621 55.1247C95.7591 55.8754 96.9697 56.2882 98.2177 56.303H99.1337C99.7196 60.0804 99.7196 63.9257 99.1337 67.7031H98.2177C96.9696 67.7179 95.7588 68.1308 94.7618 68.8817C93.7648 69.6326 93.0336 70.6822 92.6748 71.8777Z" fill="#12006C"/>
<path d="M113.999 20.0017C113.999 18.024 113.412 16.0906 112.313 14.4462C111.215 12.8017 109.653 11.52 107.826 10.7631C105.998 10.0063 103.988 9.80826 102.048 10.1941C100.108 10.5799 98.3264 11.5323 96.9279 12.9308C95.5294 14.3293 94.577 16.1111 94.1912 18.0509C93.8053 19.9907 94.0034 22.0013 94.7602 23.8285C95.5171 25.6557 96.7988 27.2175 98.4432 28.3163C100.088 29.4151 102.021 30.0015 103.999 30.0015C106.65 29.9984 109.192 28.9439 111.066 27.0692C112.941 25.1946 113.995 22.6529 113.999 20.0017ZM97.9989 20.0017C97.9989 18.8151 98.3508 17.6551 99.0101 16.6684C99.6694 15.6817 100.606 14.9127 101.703 14.4586C102.799 14.0045 104.005 13.8857 105.169 14.1172C106.333 14.3487 107.402 14.9201 108.241 15.7592C109.08 16.5983 109.652 17.6674 109.883 18.8312C110.115 19.9951 109.996 21.2015 109.542 22.2978C109.088 23.3941 108.319 24.3312 107.332 24.9905C106.345 25.6497 105.185 26.0016 103.999 26.0016C102.408 25.9999 100.883 25.3672 99.7582 24.2424C98.6334 23.1176 98.0007 21.5925 97.9989 20.0017Z" fill="#12006C"/>
<path d="M30.0004 104C30.0004 102.022 29.4139 100.089 28.3151 98.4442C27.2163 96.7998 25.6546 95.5181 23.8273 94.7612C22.0001 94.0043 19.9895 93.8063 18.0497 94.1921C16.11 94.578 14.3282 95.5304 12.9297 96.9289C11.5312 98.3274 10.5788 100.109 10.1929 102.049C9.8071 103.989 10.0051 105.999 10.762 107.827C11.5188 109.654 12.8005 111.216 14.445 112.314C16.0895 113.413 18.0228 114 20.0006 114C22.6517 113.996 25.1934 112.942 27.0681 111.067C28.9427 109.193 29.9973 106.651 30.0004 104ZM14.0007 104C14.0007 102.813 14.3526 101.653 15.0119 100.666C15.6712 99.6798 16.6082 98.9108 17.7045 98.4566C18.8009 98.0025 20.0072 97.8837 21.1711 98.1152C22.335 98.3467 23.404 98.9181 24.2431 99.7572C25.0822 100.596 25.6537 101.665 25.8852 102.829C26.1167 103.993 25.9979 105.2 25.5437 106.296C25.0896 107.392 24.3206 108.329 23.3339 108.989C22.3473 109.648 21.1873 110 20.0006 110C18.4099 109.998 16.8848 109.365 15.76 108.24C14.6351 107.116 14.0024 105.591 14.0007 104Z" fill="#12006C"/>
<path d="M11.7586 90.9986C5.38098 79.9398 2.82914 67.0862 4.49856 54.4298C6.16799 41.7734 11.9655 30.021 20.9925 20.9941C30.0195 11.9672 41.7719 6.16989 54.4283 4.50062C67.0847 2.83134 79.9384 5.38334 90.9971 11.7611L93.0011 8.29839C81.1795 1.47927 67.4387 -1.24981 53.9084 0.534155C40.3782 2.31812 27.8143 8.51551 18.1642 18.1657C8.51418 27.8158 2.31692 40.3798 0.533094 53.9101C-1.25073 67.4403 1.4785 81.1811 8.29774 93.0026L11.7586 90.9986Z" fill="#12006C"/>
<path d="M112.241 33.004C118.616 44.0588 121.168 56.9072 119.502 69.5594C117.837 82.2116 112.045 93.9615 103.026 102.989C94.0065 112.017 82.2619 117.819 69.6113 119.497C56.9607 121.174 44.1099 118.634 33.0492 112.269L31.0492 115.734C42.8729 122.539 56.6107 125.256 70.1347 123.463C83.6587 121.67 96.2141 115.468 105.856 105.816C115.498 96.1651 121.688 83.6038 123.468 70.0781C125.248 56.5524 122.518 42.8171 115.702 31L112.241 33.004Z" fill="#12006C"/>
</svg>
