<svg width="103" height="118" viewBox="0 0 103 118" fill="none" xmlns="http://www.w3.org/2000/svg">
<path d="M10.6404 108.167H14.1233C13.8904 108.797 13.768 109.462 13.7615 110.133V112.1C13.7615 113.665 14.3831 115.165 15.4895 116.272C16.596 117.378 18.0967 118 19.6615 118H82.5948C84.1596 118 85.6603 117.378 86.7667 116.272C87.8732 115.165 88.4948 113.665 88.4948 112.1V110.133C88.4883 109.462 88.3659 108.797 88.1329 108.167H91.6179C93.2076 108.166 94.777 107.81 96.2108 107.124C97.6447 106.437 98.9066 105.438 99.9037 104.2C100.901 102.962 101.608 101.516 101.973 99.9692C102.338 98.422 102.352 96.8127 102.014 95.2594L93.4587 56.1326C92.9836 54.0178 91.8794 52.0964 90.2912 50.6213C88.7031 49.1462 86.7055 48.1866 84.5615 47.8687L78.4038 46.9876C79.8523 43.2648 80.6126 39.3099 80.6478 35.3154C80.5868 18.585 62.9694 0 51.0672 0H51.0455C45.3579 0.00983333 38.0085 4.4309 31.8548 11.5365C25.3451 19.0629 21.6281 27.791 21.6399 35.4826C21.6899 39.4194 22.4452 43.3154 23.8701 46.9856L17.6948 47.8687C15.5492 48.1865 13.5503 49.147 11.9617 50.6237C10.373 52.1004 9.26915 54.0238 8.79563 56.1405L0.242594 95.2614C-0.0947857 96.8146 -0.0800933 98.4236 0.285593 99.9704C0.65128 101.517 1.35868 102.962 2.35587 104.2C3.35307 105.438 4.61475 106.436 6.04831 107.123C7.48188 107.809 9.05095 108.166 10.6404 108.167ZM84.5615 110.133V112.1C84.5615 112.622 84.3543 113.122 83.9854 113.491C83.6166 113.859 83.1164 114.067 82.5948 114.067H19.6615C19.1399 114.067 18.6396 113.859 18.2708 113.491C17.902 113.122 17.6948 112.622 17.6948 112.1V110.133C17.6948 109.612 17.902 109.112 18.2708 108.743C18.6396 108.374 19.1399 108.167 19.6615 108.167H82.5948C83.1164 108.167 83.6166 108.374 83.9854 108.743C84.3543 109.112 84.5615 109.612 84.5615 110.133ZM78.6615 60.9667C79.2191 60.9668 79.7703 61.0855 80.2785 61.3149C80.7868 61.5444 81.2404 61.8792 81.6094 62.2973C81.9784 62.7154 82.2543 63.2071 82.4187 63.7399C82.5832 64.2727 82.6325 64.8344 82.5633 65.3877L77.7096 104.233H24.5486L19.6929 65.3877C19.6238 64.8344 19.6731 64.2727 19.8375 63.7399C20.002 63.2071 20.2779 62.7154 20.6468 62.2973C21.0158 61.8792 21.4695 61.5444 21.9777 61.3149C22.486 61.0855 23.0372 60.9668 23.5948 60.9667H78.6615ZM34.3544 34.1453C37.3615 46.5569 43.1159 53.1 51.1281 53.1C59.1403 53.1 64.9086 46.5451 67.9097 34.1118C68.4804 34.7252 68.8071 35.5261 68.8281 36.3637C68.8281 49.7881 59.7087 57.0333 51.1281 57.0333C42.5476 57.0333 33.4281 49.7881 33.4281 36.3637C33.4588 35.5366 33.7878 34.7486 34.3544 34.1453ZM37.8453 31.7853C42.0795 30.1574 46.5933 29.3808 51.1281 29.5C55.4786 29.4181 59.8085 30.1182 63.9115 31.567C64.0727 31.6319 64.2399 31.7086 64.4051 31.7794C62.6351 40.0374 58.9102 49.1667 51.1281 49.1667C43.346 49.1667 39.6251 40.0472 37.8453 31.7931V31.7853ZM84.0049 51.7627C85.3582 51.964 86.6187 52.5704 87.6207 53.5021C88.6226 54.4338 89.3188 55.6471 89.6178 56.9822L98.1728 96.0972C98.3853 97.0764 98.376 98.0907 98.1454 99.0658C97.9148 100.041 97.4688 100.952 96.8402 101.732C96.2116 102.512 95.4163 103.142 94.5126 103.575C93.6089 104.008 92.6198 104.233 91.6179 104.233H81.6724L86.4672 65.8833C86.6067 64.7759 86.509 63.6515 86.1805 62.5848C85.852 61.5181 85.3003 60.5335 84.562 59.6964C83.8236 58.8593 82.9157 58.189 81.8983 57.7298C80.881 57.2706 79.7776 57.0332 78.6615 57.0333H72.6887C74.2498 55.0708 75.6109 52.9573 76.7518 50.7243L84.0049 51.7627ZM34.8382 14.1089C40.1758 7.9355 46.5419 3.93333 51.0534 3.93333H51.0672C60.0037 3.93333 76.6574 20.06 76.7145 35.3253C76.5189 43.4782 73.2077 51.2465 67.4613 57.0333H63.0658C68.6433 53.039 72.7615 46.0672 72.7615 36.3637C72.7615 28.91 61.8976 25.5667 51.1281 25.5667C40.3587 25.5667 29.4948 28.91 29.4948 36.3637C29.4948 46.0672 33.6248 53.039 39.1905 57.0333H34.8166C29.1073 51.2832 25.8022 43.5746 25.5733 35.4747C25.5615 28.8156 29.0267 20.829 34.8382 14.1089ZM4.08546 96.0992L12.6385 56.9881C12.9363 55.6515 13.6323 54.4366 14.6347 53.5037C15.6371 52.5708 16.8988 51.9638 18.2533 51.7627L25.53 50.7223C26.6686 52.9564 28.0285 55.0707 29.5892 57.0333H23.5948C22.4786 57.0332 21.3752 57.2706 20.3579 57.7298C19.3406 58.189 18.4326 58.8593 17.6943 59.6964C16.956 60.5335 16.4043 61.5181 16.0758 62.5848C15.7473 63.6515 15.6496 64.7759 15.7891 65.8833L20.5838 104.233H10.6404C9.63836 104.233 8.6491 104.009 7.74523 103.576C6.84136 103.144 6.04584 102.514 5.41712 101.734C4.7884 100.954 4.34244 100.043 4.112 99.0678C3.88156 98.0927 3.87249 97.0783 4.08546 96.0992Z" fill="#12006C"/>
<path d="M51.1281 92.4323C53.073 92.4323 54.9742 91.8556 56.5912 90.7751C58.2083 89.6946 59.4687 88.1588 60.2129 86.362C60.9572 84.5652 61.1519 82.5881 60.7725 80.6806C60.3931 78.7731 59.4566 77.021 58.0813 75.6457C56.7061 74.2705 54.954 73.334 53.0465 72.9546C51.139 72.5752 49.1619 72.7699 47.3651 73.5142C45.5683 74.2584 44.0325 75.5188 42.952 77.1359C41.8715 78.7529 41.2948 80.6541 41.2948 82.599C41.2979 85.206 42.3349 87.7053 44.1784 89.5487C46.0218 91.3922 48.5211 92.4292 51.1281 92.4323ZM51.1281 76.699C52.295 76.699 53.4357 77.045 54.406 77.6933C55.3762 78.3416 56.1325 79.263 56.579 80.3411C57.0256 81.4192 57.1424 82.6055 56.9148 83.75C56.6871 84.8945 56.1252 85.9458 55.3001 86.7709C54.4749 87.596 53.4237 88.1579 52.2792 88.3856C51.1347 88.6132 49.9484 88.4964 48.8703 88.0498C47.7922 87.6033 46.8708 86.8471 46.2225 85.8768C45.5742 84.9066 45.2281 83.7659 45.2281 82.599C45.2281 81.0342 45.8497 79.5335 46.9562 78.427C48.0627 77.3206 49.5634 76.699 51.1281 76.699Z" fill="#12006C"/>
</svg>
