<svg width="140" height="139" viewBox="0 0 140 139" fill="none" xmlns="http://www.w3.org/2000/svg">
<path d="M58.6667 127.935H11.0667C8.66204 127.935 6.3559 126.979 4.65557 125.279C2.95524 123.579 2 121.273 2 118.868V73.5347C2 71.1301 2.95524 68.8239 4.65557 67.1236C6.3559 65.4233 8.66204 64.468 11.0667 64.468H60.9333" stroke="#FF0000" stroke-width="2.5" stroke-linejoin="round"/>
<path d="M6.53369 64.4685V55.4019H56.4004" stroke="#FF0000" stroke-width="2.5" stroke-linejoin="round"/>
<path d="M20.1333 55.4015V16.8682" stroke="#FF0000" stroke-width="2.5" stroke-linejoin="round"/>
<path d="M20.1333 100.735V64.468" stroke="#FF0000" stroke-width="2.5" stroke-linejoin="round"/>
<path d="M49.6004 55.4013V32.7346L40.5337 23.668" stroke="#FF0000" stroke-width="2.5" stroke-linejoin="round"/>
<path d="M49.5996 98.468V64.468" stroke="#FF0000" stroke-width="2.5" stroke-linejoin="round"/>
<path d="M20.1333 32.7348L33.7333 19.1348V1.00146" stroke="#FF0000" stroke-width="2.5" stroke-linejoin="round"/>
<path d="M20.1333 28.2015H11.0666V7.80146L4.2666 1.00146" stroke="#FF0000" stroke-width="2.5" stroke-linejoin="round"/>
<path d="M54.1333 7.80146L60.9333 1.00146" stroke="#FF0000" stroke-width="2.5" stroke-linejoin="round"/>
<path d="M49.6002 48.6015L58.6669 41.8015V14.6015L45.0669 1.00146" stroke="#FF0000" stroke-width="2.5" stroke-linejoin="round"/>
<path d="M49.5996 41.8015H38.2663L31.4663 35.0015" stroke="#FF0000" stroke-width="2.5" stroke-linejoin="round"/>
<path d="M2 100.735L4.924 97.811C5.43207 97.3005 6.03608 96.8954 6.70128 96.6193C7.36648 96.3431 8.07974 96.2011 8.8 96.2017C9.52026 96.2011 10.2335 96.3431 10.8987 96.6193C11.5639 96.8954 12.1679 97.3005 12.676 97.811L13.9907 99.1257C14.4987 99.6362 15.1027 100.041 15.768 100.317C16.4332 100.594 17.1464 100.736 17.8667 100.735C18.5869 100.736 19.3002 100.594 19.9654 100.317C20.6306 100.041 21.2346 99.6362 21.7427 99.1257L23.0573 97.811C23.5654 97.3005 24.1694 96.8954 24.8346 96.6193C25.4998 96.3431 26.2131 96.2011 26.9333 96.2017C27.6536 96.2011 28.3668 96.3431 29.032 96.6193C29.6973 96.8954 30.3013 97.3005 30.8093 97.811L32.124 99.1257C32.6321 99.6362 33.2361 100.041 33.9013 100.317C34.5665 100.594 35.2797 100.736 36 100.735C36.7203 100.736 37.4335 100.594 38.0987 100.317C38.7639 100.041 39.3679 99.6362 39.876 99.1257L41.1907 97.811C41.6987 97.3005 42.3027 96.8954 42.9679 96.6193C43.6331 96.3431 44.3464 96.2011 45.0667 96.2017C45.7869 96.2011 46.5002 96.3431 47.1654 96.6193C47.8306 96.8954 48.4346 97.3005 48.9427 97.811L50.2573 99.1257C50.7654 99.6362 51.3694 100.041 52.0346 100.317C52.6998 100.594 53.4131 100.736 54.1333 100.735C54.8536 100.736 55.5669 100.594 56.2321 100.317C56.8973 100.041 57.5013 99.6362 58.0093 99.1257L59.324 97.811C59.8321 97.3005 60.4361 96.8954 61.1013 96.6193C61.7665 96.3431 62.4797 96.2011 63.2 96.2017C63.9824 96.205 64.7551 96.375 65.4667 96.7003" stroke="#FF0000" stroke-width="2.5" stroke-linejoin="round"/>
<path d="M138 137.002H56.4004L67.7337 80.3352L56.4004 55.4019H138L126.667 80.3352L138 137.002Z" stroke="#FF0000" stroke-width="2.5" stroke-linejoin="round"/>
<path d="M115.334 137.002H79.0669V107.535C79.0669 102.726 80.9774 98.1136 84.378 94.713C87.7787 91.3123 92.391 89.4019 97.2002 89.4019C102.009 89.4019 106.622 91.3123 110.022 94.713C113.423 98.1136 115.334 102.726 115.334 107.535V137.002Z" stroke="#FF0000" stroke-width="2.5" stroke-linejoin="round"/>
<path d="M106.267 127.935H88.1333V137.001H106.267V127.935Z" stroke="#FF0000" stroke-width="2.5" stroke-linejoin="round"/>
<path d="M97.2002 127.935V118.868" stroke="#FF0000" stroke-width="2.5" stroke-linejoin="round"/>
<path d="M97.2004 118.868C97.9207 118.869 98.6339 118.727 99.2991 118.45C99.9643 118.174 100.568 117.769 101.076 117.259L102.074 116.261C102.686 115.653 103.172 114.929 103.503 114.131C103.833 113.333 104.003 112.478 104 111.615C104.001 110.426 103.68 109.259 103.071 108.237L97.2004 98.468L91.3297 108.237C90.7212 109.259 90.4001 110.426 90.4004 111.615C90.3983 112.478 90.5675 113.333 90.8982 114.131C91.2289 114.929 91.7146 115.653 92.3271 116.261L93.3244 117.259C93.8325 117.769 94.4365 118.174 95.1017 118.45C95.7669 118.727 96.4801 118.869 97.2004 118.868Z" stroke="#FF0000" stroke-width="2.5" stroke-linejoin="round"/>
<path d="M74.5337 55.4016V46.335H119.867V55.4016" stroke="#FF0000" stroke-width="2.5" stroke-linejoin="round"/>
<path d="M85.8668 12.335L82.9428 15.259C82.4323 15.767 82.0273 16.371 81.7511 17.0362C81.4749 17.7014 81.333 18.4147 81.3335 19.135C81.333 19.8552 81.4749 20.5685 81.7511 21.2337C82.0273 21.8989 82.4323 22.5029 82.9428 23.011L84.2575 24.3256C84.768 24.8337 85.173 25.4377 85.4492 26.1029C85.7254 26.7681 85.8674 27.4814 85.8668 28.2016C85.8674 28.9219 85.7254 29.6351 85.4492 30.3003C85.173 30.9655 84.768 31.5696 84.2575 32.0776L81.3335 35.0016" stroke="#FF0000" stroke-width="2.5" stroke-linejoin="round"/>
<path d="M99.4664 12.335L96.5424 15.259C96.0319 15.767 95.6269 16.371 95.3507 17.0362C95.0745 17.7014 94.9326 18.4147 94.9331 19.135C94.9326 19.8552 95.0745 20.5685 95.3507 21.2337C95.6269 21.8989 96.0319 22.5029 96.5424 23.011L97.8571 24.3256C98.3676 24.8337 98.7727 25.4377 99.0488 26.1029C99.325 26.7681 99.467 27.4814 99.4664 28.2016C99.467 28.9219 99.325 29.6351 99.0488 30.3003C98.7727 30.9655 98.3676 31.5696 97.8571 32.0776L94.9331 35.0016" stroke="#FF0000" stroke-width="2.5" stroke-linejoin="round"/>
<path d="M113.067 12.335L110.143 15.259C109.632 15.767 109.227 16.371 108.951 17.0362C108.675 17.7014 108.533 18.4147 108.534 19.135C108.533 19.8552 108.675 20.5685 108.951 21.2337C109.227 21.8989 109.632 22.5029 110.143 23.011L111.458 24.3256C111.968 24.8337 112.373 25.4377 112.649 26.1029C112.926 26.7681 113.068 27.4814 113.067 28.2016C113.068 28.9219 112.926 29.6351 112.649 30.3003C112.373 30.9655 111.968 31.5696 111.458 32.0776L108.534 35.0016" stroke="#FF0000" stroke-width="2.5" stroke-linejoin="round"/>
</svg>
