<svg width="136" height="132" viewBox="0 0 136 132" fill="none" xmlns="http://www.w3.org/2000/svg">
<path d="M23.576 117.508H20.9525V54.2662H16.8349V117.508H14.2114V51.6213H23.576V117.508Z" fill="#FFB900"/>
<path d="M22.2641 61.23H16.2932V63.8748H22.2641V61.23Z" fill="#FFB900"/>
<path d="M23.2249 70.353H16.4866V72.9976H23.2249V70.353Z" fill="#FFB900"/>
<path d="M22.2641 83.4556H16.2932V86.1004H22.2641V83.4556Z" fill="#FFB900"/>
<path d="M23.2249 92.5781H16.4866V95.223H23.2249V92.5781Z" fill="#FFB900"/>
<path d="M30.6738 103.919H28.0503V51.6213H37.4121V98.8722H34.7886V54.2662H30.6738V103.919Z" fill="#FFB900"/>
<path d="M36.1 61.23H30.1318V63.8748H36.1V61.23Z" fill="#FFB900"/>
<path d="M37.0635 70.353H30.3225V72.9976H37.0635V70.353Z" fill="#FFB900"/>
<path d="M36.1 83.4556H30.1318V86.1004H36.1V83.4556Z" fill="#FFB900"/>
<path d="M37.0635 92.5781H30.3225V95.223H37.0635V92.5781Z" fill="#FFB900"/>
<path d="M51.2478 103.532H48.6243V54.2662H44.5094V103.532H41.886V51.6213H51.2478V103.532Z" fill="#FFB900"/>
<path d="M49.936 61.23H43.9678V63.8748H49.936V61.23Z" fill="#FFB900"/>
<path d="M50.8995 70.353H44.1611V72.9976H50.8995V70.353Z" fill="#FFB900"/>
<path d="M49.936 83.4556H43.9678V86.1004H49.936V83.4556Z" fill="#FFB900"/>
<path d="M50.8995 92.5781H44.1611V95.223H50.8995V92.5781Z" fill="#FFB900"/>
<path d="M23.644 115.513H93.4304V105.123H23.644V115.513ZM96.0539 118.155H21.0205V102.478H96.0539V118.155Z" fill="#FFB900"/>
<path d="M2.62349 129.264H114.454V118.35H2.62349V129.264ZM117.077 131.909H0V115.708H117.077V131.909Z" fill="#FFB900"/>
<path d="M54.6496 102.283H60.6912V100.169H54.6496V102.283ZM63.3147 104.928H52.0261V97.5249H63.3147V104.928Z" fill="#FFB900"/>
<path d="M75.2509 102.283H81.2926V100.169H75.2509V102.283ZM83.9161 104.928H72.6274V97.5249H83.9161V104.928Z" fill="#FFB900"/>
<path d="M35.7817 102.283H41.8233V100.169H35.7817V102.283ZM44.4468 104.928H33.1582V97.5249H44.4468V104.928Z" fill="#FFB900"/>
<path d="M33.3732 107.584H30.7498V113.603H33.3732V107.584Z" fill="#FFB900"/>
<path d="M42.4248 107.584H39.8013V113.603H42.4248V107.584Z" fill="#FFB900"/>
<path d="M51.4736 107.584H48.8501V113.603H51.4736V107.584Z" fill="#FFB900"/>
<path d="M60.5227 107.584H57.8992V113.603H60.5227V107.584Z" fill="#FFB900"/>
<path d="M69.5715 107.584H66.948V113.603H69.5715V107.584Z" fill="#FFB900"/>
<path d="M78.6203 107.584H75.9995V113.603H78.6203V107.584Z" fill="#FFB900"/>
<path d="M87.6718 107.584H85.0483V113.603H87.6718V107.584Z" fill="#FFB900"/>
<path d="M79.393 86.5244H76.7722V97.9766H79.393V86.5244Z" fill="#FFB900"/>
<path d="M17.9317 50.8937C17.9317 50.8937 12.3009 24.7498 32.6874 35.8134C46.028 43.0541 60.147 44.5823 63.6141 44.5219C80.1905 44.2322 44.3326 33.9436 43.6576 33.6539C36.6689 30.6455 18.3344 15.842 11.8655 30.9224C8.41198 38.9763 17.9317 50.8937 17.9317 50.8937Z" fill="#D3CFD3"/>
<path d="M21.2219 25.4096C20.1796 25.4096 19.1781 25.5509 18.2419 25.8672C15.9151 26.6527 14.1733 28.4566 12.9187 31.3816C10.9402 35.9972 13.7732 42.2214 16.1545 46.2161C16.1083 45.5354 16.0783 44.8135 16.0701 44.0703C16.0293 38.8207 17.2622 35.2073 19.736 33.3304C22.7214 31.0628 27.2635 31.5556 33.2317 34.7947C46.7193 42.1155 60.6177 43.4154 63.595 43.3652C64.9258 43.3419 65.7586 43.2538 66.2702 43.163C65.3313 42.5347 63.0208 41.3327 57.3602 39.3101C52.4969 37.5739 47.2554 35.9717 44.738 35.2018C43.5161 34.8284 43.331 34.7713 43.2086 34.7178C41.8424 34.1302 40.1252 33.1485 38.1385 32.0113C33.1419 29.153 26.5995 25.4096 21.2219 25.4096ZM17.9316 52.0507C17.5915 52.0507 17.2594 51.8992 17.0363 51.6194C16.6308 51.1104 7.12472 39.0591 10.8123 30.4633C12.32 26.9501 14.5734 24.6655 17.5125 23.6731C24.2427 21.3998 32.9296 26.3701 39.2733 29.9991C41.1865 31.0944 42.8412 32.0412 44.0849 32.5792C44.2182 32.6253 44.768 32.7937 45.4021 32.9874C47.9357 33.7611 53.8631 35.5733 59.0039 37.4461C68.6515 40.9612 69.2938 42.3904 69.1196 43.6582C68.8964 45.2594 66.7655 45.624 63.6331 45.6786C60.5198 45.7327 46.0688 44.3905 32.1431 36.8318C27.0349 34.0591 23.3228 33.5027 21.1157 35.1788C17.3111 38.0656 18.3371 47.3245 19.0529 50.6484C19.1645 51.1724 18.9059 51.7061 18.4242 51.9376C18.2664 52.0139 18.0977 52.0507 17.9316 52.0507Z" fill="#FFB900"/>
<path d="M32.0806 50.6903C32.0806 50.6903 30.113 38.085 36.5275 37.0367C44.0061 35.8138 52.2684 51.3397 67.2528 52.3208C82.8196 53.3395 72.6876 48.9569 72.0888 48.3231C67.9386 43.9407 63.0808 44.3739 58.1468 41.8331C54.745 40.0805 54.5272 37.9851 51.6888 35.4061C35.3137 20.5297 26.6078 31.2166 25.6117 37.2403C24.398 44.5767 32.0806 50.6903 32.0806 50.6903Z" fill="#D3CFD3"/>
<path d="M72.9106 47.5147C72.9133 47.5177 72.916 47.5204 72.9187 47.5235C72.916 47.5204 72.9133 47.518 72.9106 47.5147ZM37.3819 35.8099C40.8708 35.8099 44.327 38.5787 48.2759 41.7399C53.4929 45.9149 59.4039 50.6468 67.3288 51.1656C71.577 51.4438 73.4766 51.2836 74.3121 51.1146C73.7243 50.655 72.7636 50.0962 72.3771 49.8709C71.7294 49.4945 71.46 49.3332 71.2586 49.1211C68.8583 46.5857 66.2539 45.8219 63.2412 44.9371C61.426 44.404 59.5482 43.8528 57.6241 42.8623C55.3354 41.6837 54.3339 40.3552 53.2725 38.9491C52.6302 38.0956 51.9635 37.2129 50.9211 36.265C44.2236 30.1799 38.1412 27.8588 33.3296 29.5533C29.212 31.0028 27.1356 35.0578 26.7437 37.4297C26.0497 41.6208 28.6596 45.4572 30.668 47.7076C30.5156 43.5669 31.0871 36.7531 36.345 35.8938C36.6906 35.837 37.0362 35.8099 37.3819 35.8099ZM71.3267 53.633C70.1864 53.633 68.8175 53.5819 67.1791 53.4747C58.5385 52.9089 52.056 47.7207 46.8498 43.5521C42.9364 40.4189 39.5536 37.7134 36.7124 38.1779C31.5688 39.0185 33.1962 50.3952 33.2153 50.5099C33.2888 50.9804 33.0684 51.4479 32.6601 51.6883C32.2519 51.9289 31.7403 51.893 31.3702 51.5977C31.2858 51.5314 29.3046 49.942 27.4649 47.3975C24.9639 43.9411 23.9324 40.3626 24.4794 37.0494C25.0564 33.5563 27.835 29.0367 32.573 27.3688C39.7114 24.8549 47.3261 29.8842 52.456 34.5461C53.6589 35.6395 54.4237 36.6538 55.0986 37.5485C56.0756 38.8416 56.8458 39.863 58.6691 40.8019C60.4 41.6925 62.1689 42.2126 63.8835 42.7155C66.9179 43.607 70.0585 44.5283 72.8725 47.4766C72.9868 47.5539 73.2834 47.7262 73.5229 47.867C75.281 48.8887 77.4663 50.1604 76.9574 51.8496C76.6254 52.9539 75.485 53.633 71.3267 53.633Z" fill="#FFB900"/>
<path d="M46.8364 50.8936C46.8364 50.8936 43.1978 42.3346 49.6667 41.7233C56.1029 41.1147 70.0967 56.2304 85.043 54.7656C99.5973 53.3389 85.6471 44.0158 89.2857 39.8892C92.9243 35.7622 119.608 43.6507 130.119 39.2776C142.855 33.9791 111.928 15.4342 116.171 9.52442C119.619 4.72638 132.59 7.80033 133.961 5.65235C135.779 2.79926 121.832 0.965146 110.309 1.16927C84.5014 1.62554 110.663 21.2301 111.724 24.5537C114.149 32.145 82.7161 22.0065 76.3506 27.0504C69.2231 32.6946 79.1809 40.0927 75.5423 41.7233C71.9745 43.3217 66.3873 40.4755 62.8059 38.2586C51.2832 31.126 44.006 32.5525 41.3798 38.0548C37.4092 46.3685 46.8364 50.8936 46.8364 50.8936Z" fill="#D3CFD3"/>
<path d="M50.0557 40.5483C52.8996 40.5483 56.5164 42.7015 61.0286 45.3878C67.8187 49.4311 76.2688 54.4629 84.9312 53.6143C88.8229 53.2329 90.0993 52.3135 90.4857 51.6095C91.1062 50.4769 90.1346 48.5199 89.193 46.6268C87.9466 44.1164 86.5341 41.2707 88.4283 39.1205C90.453 36.8255 96.1355 37.3199 106.001 38.3905C114.641 39.3282 124.436 40.3908 129.683 38.2083C131.065 37.6332 131.827 36.9111 132.018 36.0011C132.66 32.9202 127.307 27.3051 123.007 22.7933C117.567 17.0835 112.867 12.1527 115.243 8.84607C117.646 5.49858 123.426 5.44671 128.069 5.40501C129.631 5.39074 131.895 5.37045 132.764 5.09883C132.203 4.71198 130.442 3.86366 125.266 3.14949C120.827 2.53657 115.384 2.23669 110.331 2.32586C104.583 2.42764 101.121 3.51356 100.316 5.4662C98.8814 8.94703 105.217 15.5817 109.003 19.5459C111.365 22.0207 112.513 23.2523 112.818 24.1991C113.259 25.5841 112.84 26.5046 112.41 27.0327C110.546 29.3247 104.855 28.7933 95.7245 27.7364C88.578 26.9092 79.6842 25.8801 77.058 27.9601C73.7651 30.5684 74.6985 33.337 76.3722 36.9638C77.156 38.6607 77.8336 40.1264 77.3601 41.4002C77.2023 41.8236 76.8403 42.4069 76.0075 42.7805C72.8915 44.1759 68.2486 42.986 62.2043 39.2448C54.1351 34.2492 49.2773 34.137 46.6266 34.9228C44.7107 35.4899 43.2928 36.7125 42.4138 38.557C40.9932 41.5311 41.3388 44.3002 43.4453 46.787C43.897 47.3185 44.3814 47.7844 44.855 48.1822C44.5556 46.5168 44.5121 44.5082 45.4428 42.9328C46.0034 41.98 47.1736 40.7969 49.5604 40.5714C49.7209 40.556 49.8869 40.5483 50.0557 40.5483ZM82.9554 56.0237C74.3774 56.024 66.3844 51.2644 59.8611 47.3799C55.6156 44.8525 51.9498 42.6705 49.7727 42.8749C48.616 42.9847 47.8431 43.3893 47.4159 44.1126C46.3654 45.8902 47.4023 49.2821 47.8921 50.4394C48.0799 50.8816 47.9738 51.3952 47.6309 51.728C47.2852 52.0611 46.7736 52.1451 46.3436 51.9385C46.1395 51.8405 41.3361 49.492 39.7522 44.9631C38.9276 42.5989 39.1263 40.1058 40.3455 37.5531C41.5021 35.1286 43.4507 33.4514 45.9789 32.7029C50.4231 31.3868 56.4511 32.9669 63.4072 37.273C68.616 40.4981 72.7608 41.7031 75.0741 40.666C75.1666 40.6249 75.2074 40.5903 75.2156 40.5804C75.3517 40.2353 74.6876 38.799 74.293 37.9408C72.935 35.0021 70.6626 30.0839 75.6401 26.1407C79.0093 23.4729 87.639 24.4718 95.9858 25.4378C101.676 26.0963 109.471 26.9984 110.635 25.5657C110.674 25.5207 110.785 25.3832 110.633 24.9086C110.439 24.3876 108.725 22.5927 107.348 21.1504C102.637 16.2168 96.1871 9.45955 98.1956 4.5792C99.4121 1.62871 103.366 0.135073 110.29 0.0124332C116.054 -0.0893551 132.954 0.457993 135.012 4.18163C135.382 4.84888 135.349 5.61299 134.924 6.27832C134.04 7.66522 131.672 7.68634 128.088 7.71872C124.18 7.75384 118.827 7.80212 117.102 10.2031C115.85 11.9439 120.737 17.0706 124.662 21.1902C130.058 26.8516 135.156 32.1989 134.263 36.4768C133.912 38.1682 132.666 39.4704 130.556 40.3472C124.771 42.7542 114.669 41.6584 105.756 40.691C99.3958 40.001 91.4818 39.142 90.1455 40.6578C89.3427 41.5681 90.0584 43.2022 91.245 45.5911C92.3962 47.9062 93.6997 50.5302 92.4941 52.7286C91.5171 54.509 89.1848 55.5219 85.1516 55.9173C84.4168 55.9894 83.682 56.0237 82.9554 56.0237Z" fill="#FFB900"/>
</svg>
