<svg width="130" height="131" viewBox="0 0 130 131" fill="none" xmlns="http://www.w3.org/2000/svg">
<path d="M92.2315 47.9202C92.2236 47.9097 92.216 47.8996 92.2081 47.8897L67.121 15.5895C66.641 14.9717 65.9034 14.6097 65.1215 14.6079C65.1195 14.6079 65.1174 14.6079 65.1157 14.6079C64.3358 14.6079 63.5989 14.9664 63.1177 15.5804L37.9201 47.7112C37.8749 47.7688 37.8325 47.828 37.7929 47.8887C32.7435 54.1068 29.9665 61.932 29.9665 69.959C29.9665 89.2749 45.6825 104.99 65.0004 104.99C84.3182 104.99 100.034 89.2749 100.034 69.959C100.034 61.953 97.2642 54.1307 92.2315 47.9202ZM65.0001 99.9118C48.4824 99.9118 35.0443 86.4748 35.0443 69.9587C35.0443 63.0113 37.477 56.2409 41.8941 50.8947C41.9665 50.8071 42.0323 50.7154 42.0912 50.6207L65.106 21.2734L88.1386 50.9279C88.1686 50.9698 88.1998 51.0104 88.2326 51.0506C92.5685 56.3702 94.9562 63.0852 94.9562 69.9587C94.9562 86.4748 81.5179 99.9118 65.0001 99.9118Z" fill="#0635FE"/>
<path d="M87.8433 72.1797C86.4784 71.8575 85.111 72.7033 84.7893 74.068C83.3429 80.2032 78.9895 85.3008 73.145 87.7048C71.8484 88.2383 71.2293 89.7218 71.7631 91.0185C72.1666 91.9994 73.1132 92.592 74.1122 92.592C74.4339 92.592 74.7613 92.5306 75.0774 92.4006C82.4325 89.3753 87.9111 82.9575 89.7326 75.2332C90.0538 73.8684 89.2079 72.5014 87.8433 72.1797Z" fill="#0635FE"/>
<path d="M87.8517 61.8805C86.4497 61.8805 85.3126 63.0172 85.3126 64.4193V64.4708C85.3126 65.8729 86.4497 67.0096 87.8517 67.0096C89.2536 67.0096 90.3907 65.8729 90.3907 64.4708V64.4193C90.3907 63.0172 89.2536 61.8805 87.8517 61.8805Z" fill="#0635FE"/>
<path d="M96.159 8.36407L92.6103 2.21776C91.9092 1.00358 90.3572 0.587429 89.1419 1.28846C88.1043 1.88743 87.6526 3.1072 87.9789 4.20737C75.8506 -0.372591 62.5471 -1.23892 49.8252 1.81837C34.5423 5.49138 21.1195 14.5632 12.0302 27.3634C3.02939 40.0391 -1.14601 55.502 0.274485 70.9032C0.395864 72.2202 1.5025 73.2092 2.79983 73.209C2.87804 73.209 2.95676 73.2054 3.03599 73.198C4.43236 73.0693 5.46002 71.8333 5.33128 70.4368C2.6203 41.0426 22.2586 13.6656 51.0115 6.75558C63.5428 3.74425 76.6853 4.86372 88.4644 9.87456L86.5442 10.9834C85.3296 11.6847 84.9137 13.237 85.6148 14.4515C86.0853 15.266 86.9385 15.721 87.8161 15.721C88.2468 15.721 88.6835 15.6113 89.0832 15.3805L95.2299 11.8319C96.4442 11.1311 96.8604 9.57825 96.159 8.36407Z" fill="#0635FE"/>
<path d="M129.427 56.4037C129.24 55.014 127.962 54.038 126.573 54.2251C125.183 54.4118 124.208 55.6894 124.394 57.0793C128.323 86.3359 109.838 114.504 81.396 122.602C69.2177 126.069 56.5841 125.639 44.7514 121.374L47.1523 119.852C48.3366 119.101 48.6875 117.533 47.9369 116.349C47.1861 115.164 45.6175 114.814 44.4327 115.564L38.4389 119.365C37.2553 120.115 36.9039 121.682 37.6532 122.866L41.416 128.811C41.8992 129.574 42.7222 129.992 43.5637 129.992C44.0279 129.992 44.4979 129.865 44.9192 129.598C45.7683 129.061 46.1868 128.103 46.0817 127.168C52.237 129.052 58.5624 130.001 64.915 130.001C70.8895 130.001 76.8882 129.164 82.7867 127.485C97.9043 123.181 110.939 113.56 119.489 100.394C127.956 87.3554 131.486 71.7325 129.427 56.4037Z" fill="#0635FE"/>
<path d="M34.3247 95.215C34.3214 95.2107 34.3186 95.2067 34.3153 95.2024L21.3777 78.1871C20.8986 77.5571 20.1538 77.1867 19.3623 77.1847C19.3602 77.1847 19.3582 77.1847 19.3564 77.1847C18.5675 77.1847 17.8229 77.5516 17.3423 78.1777L4.34756 95.1036C4.31734 95.1432 4.2884 95.1831 4.26072 95.2239C1.5114 98.7027 0 103.068 0 107.544C0 118.382 8.65678 127.199 19.2968 127.199C29.9367 127.199 38.5935 118.382 38.5935 107.544C38.5935 103.069 37.0781 98.6936 34.3247 95.215ZM19.2968 122.122C11.4564 122.122 5.07812 115.582 5.07812 107.544C5.07812 104.153 6.23859 100.851 8.34597 98.2464C8.40158 98.1776 8.45338 98.1063 8.50086 98.0329L19.3468 83.9058L30.2293 98.2183C30.2547 98.2535 30.2808 98.2883 30.3083 98.3224C32.3765 100.914 33.5159 104.19 33.5159 107.544C33.5154 115.582 27.1372 122.122 19.2968 122.122Z" fill="#0635FE"/>
<path d="M27.6757 105.006C26.2738 105.006 25.1367 106.142 25.1367 107.544C25.1367 110.863 22.5171 113.564 19.2967 113.564C17.8948 113.564 16.7577 114.7 16.7577 116.102C16.7577 117.505 17.8948 118.641 19.2967 118.641C25.317 118.641 30.2148 113.663 30.2148 107.544C30.2148 106.142 29.0779 105.006 27.6757 105.006Z" fill="#0635FE"/>
<path d="M125.731 18.0316C125.728 18.0273 125.725 18.0232 125.722 18.0189L112.784 1.00389C112.305 0.373945 111.56 0.00349609 110.769 0.00146484C110.767 0.00146484 110.765 0.00146484 110.763 0.00146484C109.974 0.00146484 109.23 0.368359 108.749 0.994493L95.754 17.9204C95.7241 17.9592 95.6956 17.9991 95.6679 18.0395C92.9181 21.5182 91.4064 25.8844 91.4064 30.3608C91.4064 41.1985 100.063 50.0157 110.703 50.0157C121.343 50.0157 130 41.1983 130 30.3608C130 25.8854 128.484 21.5101 125.731 18.0316ZM110.703 44.9381C102.863 44.9381 96.4846 38.3987 96.4846 30.3608C96.4846 26.9699 97.6453 23.6681 99.7522 21.063C99.8075 20.9944 99.8588 20.9239 99.9061 20.851L110.753 6.72237L121.636 21.0348C121.661 21.0701 121.687 21.1049 121.715 21.1389C123.783 23.731 124.922 27.0062 124.922 30.3608C124.922 38.399 118.543 44.9381 110.703 44.9381Z" fill="#0635FE"/>
<path d="M119.082 27.8222C117.68 27.8222 116.543 28.9589 116.543 30.361C116.543 33.6801 113.923 36.3804 110.703 36.3804C109.301 36.3804 108.164 37.5171 108.164 38.9192C108.164 40.3212 109.301 41.458 110.703 41.458C116.723 41.458 121.621 36.4799 121.621 30.361C121.621 28.9587 120.484 27.8222 119.082 27.8222Z" fill="#0635FE"/>
</svg>
